PowerhouseFilarOcto-Bold.ufo
<glyph name="exclam" format="2">
  <advance width="300"/>
  <unicode hex="0021"/>
  <outline>
    <contour>
      <point x="229" y="700" type="line"/>
      <point x="70" y="700" type="line"/>
      <point x="105" y="217" type="line"/>
      <point x="194" y="217" type="line"/>
    </contour>
    <component base="period" identifier="74AA3EC3"/>
  </outline>
</glyph>
<glyph name="quotedbl" format="2">
  <advance width="500"/>
  <unicode hex="0022"/>
  <outline>
    <contour>
      <point x="73" y="700" type="line"/>
      <point x="99" y="364" type="line"/>
      <point x="205" y="364" type="line"/>
      <point x="231" y="700" type="line"/>
    </contour>
    <contour>
      <point x="270" y="700" type="line"/>
      <point x="296" y="364" type="line"/>
      <point x="402" y="364" type="line"/>
      <point x="428" y="700" type="line"/>
    </contour>
  </outline>
</glyph>
<glyph name="asterisk" format="2">
  <advance width="450"/>
  <unicode hex="002A"/>
  <outline>
    <contour>
      <point x="62" y="350" type="line"/>
      <point x="141" y="292" type="line"/>
      <point x="225" y="407" type="line"/>
      <point x="309" y="292" type="line"/>
      <point x="388" y="350" type="line"/>
      <point x="303" y="468" type="line"/>
      <point x="439" y="513" type="line"/>
      <point x="409" y="606" type="line"/>
      <point x="274" y="563" type="line"/>
      <point x="274" y="700" type="line"/>
      <point x="176" y="700" type="line"/>
      <point x="176" y="563" type="line"/>
      <point x="41" y="606" type="line"/>
      <point x="11" y="513" type="line"/>
      <point x="147" y="468" type="line"/>
    </contour>
  </outline>
</glyph>
<glyph name="comma" format="2">
  <advance width="300"/>
  <unicode hex="002C"/>
  <outline>
    <contour>
      <point x="76" y="158" type="line"/>
      <point x="76" y="0" type="line"/>
      <point x="153" y="0" type="line"/>
      <point x="153" y="-13" type="line" smooth="yes"/>
      <point x="153" y="-64"/>
      <point x="123" y="-99"/>
      <point x="54" y="-99" type="curve"/>
      <point x="54" y="-160" type="line"/>
      <point x="185" y="-160"/>
      <point x="224" y="-66"/>
      <point x="224" y="-12" type="curve" smooth="yes"/>
      <point x="224" y="158" type="line"/>
    </contour>
  </outline>
</glyph>
<glyph name="period" format="2">
  <advance width="300"/>
  <unicode hex="002E"/>
  <outline>
    <contour>
      <point x="76" y="158" type="line"/>
      <point x="76" y="0" type="line"/>
      <point x="224" y="0" type="line"/>
      <point x="224" y="158" type="line"/>
    </contour>
  </outline>
</glyph>
<glyph name="slash" format="2">
  <advance width="600"/>
  <unicode hex="002F"/>
  <outline>
    <contour>
      <point x="438" y="745" type="line"/>
      <point x="10" y="-113" type="line"/>
      <point x="160" y="-113" type="line"/>
      <point x="588" y="745" type="line"/>
    </contour>
  </outline>
</glyph>
<glyph name="question" format="2">
  <advance width="500"/>
  <unicode hex="003F"/>
  <outline>
    <contour>
      <point x="171" y="217" type="line"/>
      <point x="304" y="217" type="line"/>
      <point x="304" y="235" type="line" smooth="yes"/>
      <point x="304" y="282"/>
      <point x="320" y="308"/>
      <point x="366" y="343" type="curve" smooth="yes"/>
      <point x="424" y="387"/>
      <point x="478" y="432"/>
      <point x="478" y="523" type="curve" smooth="yes"/>
      <point x="478" y="635"/>
      <point x="396" y="712"/>
      <point x="254" y="712" type="curve" smooth="yes"/>
      <point x="116" y="712"/>
      <point x="31" y="635"/>
      <point x="12" y="517" type="curve"/>
      <point x="149" y="488" type="line"/>
      <point x="156" y="550"/>
      <point x="184" y="591"/>
      <point x="250" y="591" type="curve" smooth="yes"/>
      <point x="306" y="591"/>
      <point x="335" y="558"/>
      <point x="335" y="519" type="curve" smooth="yes"/>
      <point x="335" y="482"/>
      <point x="311" y="459"/>
      <point x="255" y="414" type="curve" smooth="yes"/>
      <point x="186" y="359"/>
      <point x="171" y="324"/>
      <point x="171" y="243" type="curve" smooth="yes"/>
    </contour>
    <contour>
      <point x="164" y="149" type="line"/>
      <point x="164" y="0" type="line"/>
      <point x="311" y="0" type="line"/>
      <point x="311" y="149" type="line"/>
    </contour>
  </outline>
</glyph>
<glyph name="at" format="2">
  <advance width="760"/>
  <unicode hex="0040"/>
  <outline>
    <contour>
      <point x="40" y="221" type="curve" smooth="yes"/>
      <point x="40" y="4"/>
      <point x="164" y="-140"/>
      <point x="384" y="-140" type="curve" smooth="yes"/>
      <point x="464" y="-140"/>
      <point x="548" y="-118"/>
      <point x="613" y="-78" type="curve"/>
      <point x="579" y="2" type="line"/>
      <point x="523" y="-31"/>
      <point x="458" y="-50"/>
      <point x="384" y="-50" type="curve" smooth="yes"/>
      <point x="219" y="-50"/>
      <point x="134" y="58"/>
      <point x="134" y="221" type="curve" smooth="yes"/>
      <point x="134" y="420"/>
      <point x="252" y="558"/>
      <point x="417" y="558" type="curve" smooth="yes"/>
      <point x="525" y="558"/>
      <point x="635" y="502"/>
      <point x="635" y="306" type="curve" smooth="yes"/>
      <point x="635" y="202"/>
      <point x="595" y="146"/>
      <point x="555" y="146" type="curve" smooth="yes"/>
      <point x="535" y="146"/>
      <point x="520" y="158"/>
      <point x="523" y="191" type="curve" smooth="yes"/>
      <point x="551" y="451" type="line"/>
      <point x="449" y="451" type="line"/>
      <point x="445" y="411" type="line"/>
      <point x="429" y="440"/>
      <point x="401" y="457"/>
      <point x="365" y="457" type="curve" smooth="yes"/>
      <point x="277" y="457"/>
      <point x="206" y="363"/>
      <point x="206" y="223" type="curve" smooth="yes"/>
      <point x="206" y="113"/>
      <point x="260" y="52"/>
      <point x="334" y="52" type="curve" smooth="yes"/>
      <point x="373" y="52"/>
      <point x="408" y="71"/>
      <point x="431" y="109" type="curve"/>
      <point x="447" y="71"/>
      <point x="486" y="52"/>
      <point x="533" y="52" type="curve" smooth="yes"/>
      <point x="634" y="52"/>
      <point x="729" y="140"/>
      <point x="729" y="306" type="curve" smooth="yes"/>
      <point x="729" y="537"/>
      <point x="591" y="646"/>
      <point x="417" y="646" type="curve" smooth="yes"/>
      <point x="204" y="646"/>
      <point x="40" y="476"/>
    </contour>
    <contour>
      <point x="431" y="248" type="curve" smooth="yes"/>
      <point x="424" y="184"/>
      <point x="399" y="142"/>
      <point x="361" y="142" type="curve" smooth="yes"/>
      <point x="313" y="142"/>
      <point x="306" y="193"/>
      <point x="311" y="254" type="curve" smooth="yes"/>
      <point x="318" y="328"/>
      <point x="343" y="367"/>
      <point x="382" y="367" type="curve" smooth="yes"/>
      <point x="433" y="367"/>
      <point x="436" y="307"/>
    </contour>
  </outline>
</glyph>
<glyph name="C" format="2">
  <advance width="760"/>
  <unicode hex="0043"/>
  <outline>
    <contour>
      <point x="67" y="350" type="curve" smooth="yes"/>
      <point x="67" y="132"/>
      <point x="210" y="-12"/>
      <point x="406" y="-12" type="curve" smooth="yes"/>
      <point x="563" y="-12"/>
      <point x="671" y="82"/>
      <point x="709" y="215" type="curve"/>
      <point x="576" y="255" type="line"/>
      <point x="547" y="162"/>
      <point x="485" y="116"/>
      <point x="407" y="116" type="curve" smooth="yes"/>
      <point x="300" y="116"/>
      <point x="222" y="197"/>
      <point x="222" y="350" type="curve" smooth="yes"/>
      <point x="222" y="503"/>
      <point x="300" y="584"/>
      <point x="407" y="584" type="curve" smooth="yes"/>
      <point x="485" y="584"/>
      <point x="548" y="539"/>
      <point x="575" y="448" type="curve"/>
      <point x="708" y="487" type="line"/>
      <point x="671" y="619"/>
      <point x="563" y="712"/>
      <point x="406" y="712" type="curve" smooth="yes"/>
      <point x="209" y="712"/>
      <point x="67" y="568"/>
    </contour>
  </outline>
</glyph>
<glyph name="F" format="2">
  <advance width="600"/>
  <unicode hex="0046"/>
  <outline>
    <contour>
      <point x="90" y="700" type="line"/>
      <point x="90" y="0" type="line"/>
      <point x="241" y="0" type="line"/>
      <point x="241" y="700" type="line"/>
    </contour>
    <contour>
      <point x="151" y="576" type="line"/>
      <point x="558" y="576" type="line"/>
      <point x="558" y="700" type="line"/>
      <point x="151" y="700" type="line"/>
    </contour>
    <contour>
      <point x="161" y="285" type="line"/>
      <point x="484" y="285" type="line"/>
      <point x="484" y="409" type="line"/>
      <point x="161" y="409" type="line"/>
    </contour>
  </outline>
</glyph>
<glyph name="H" format="2">
  <advance width="760"/>
  <unicode hex="0048"/>
  <outline>
    <contour>
      <point x="142" y="299" type="line"/>
      <point x="619" y="299" type="line"/>
      <point x="619" y="423" type="line"/>
      <point x="142" y="423" type="line"/>
    </contour>
    <contour>
      <point x="530" y="700" type="line"/>
      <point x="530" y="0" type="line"/>
      <point x="681" y="0" type="line"/>
      <point x="681" y="700" type="line"/>
    </contour>
    <contour>
      <point x="79" y="700" type="line"/>
      <point x="79" y="0" type="line"/>
      <point x="230" y="0" type="line"/>
      <point x="230" y="700" type="line"/>
    </contour>
  </outline>
</glyph>
<glyph name="I" format="2">
  <advance width="300"/>
  <unicode hex="0049"/>
  <outline>
    <contour>
      <point x="75" y="124" type="line"/>
      <point x="75" y="0" type="line"/>
      <point x="226" y="0" type="line"/>
      <point x="226" y="124" type="line"/>
    </contour>
    <contour>
      <point x="75" y="700" type="line"/>
      <point x="75" y="576" type="line"/>
      <point x="226" y="576" type="line"/>
      <point x="226" y="700" type="line"/>
    </contour>
    <contour>
      <point x="75" y="700" type="line"/>
      <point x="75" y="0" type="line"/>
      <point x="226" y="0" type="line"/>
      <point x="226" y="700" type="line"/>
    </contour>
  </outline>
</glyph>
<glyph name="J" format="2">
  <advance width="600"/>
  <unicode hex="004A"/>
  <guideline x="475" y="700" angle="90" name="center" identifier="lTM0hJLPSm"/>
  <outline>
    <contour>
      <point x="297" y="109" type="curve" smooth="yes"/>
      <point x="225" y="109"/>
      <point x="188" y="159"/>
      <point x="186" y="246" type="curve"/>
      <point x="36" y="263" type="line"/>
      <point x="37" y="81"/>
      <point x="139" y="-12"/>
      <point x="299" y="-12" type="curve" smooth="yes"/>
      <point x="454" y="-12"/>
      <point x="548" y="79"/>
      <point x="548" y="216" type="curve" smooth="yes"/>
      <point x="548" y="700" type="line"/>
      <point x="398" y="700" type="line"/>
      <point x="398" y="220" type="line" smooth="yes"/>
      <point x="398" y="161"/>
      <point x="371" y="109"/>
    </contour>
  </outline>
</glyph>
<glyph name="K" format="2">
  <advance width="680"/>
  <unicode hex="004B"/>
  <guideline x="338" y="698" angle="90" name="center" identifier="PIrQib4s1F"/>
  <outline>
    <contour>
      <point x="120" y="315" type="line"/>
      <point x="128" y="129" type="line"/>
      <point x="299" y="330" type="line"/>
      <point x="335" y="360" type="line"/>
      <point x="628" y="700" type="line"/>
      <point x="447" y="700" type="line"/>
    </contour>
    <contour>
      <point x="58" y="700" type="line"/>
      <point x="58" y="0" type="line"/>
      <point x="209" y="0" type="line"/>
      <point x="209" y="700" type="line"/>
    </contour>
    <contour>
      <point x="233" y="334" type="line"/>
      <point x="491" y="0" type="line"/>
      <point x="669" y="0" type="line"/>
      <point x="332" y="436" type="line"/>
    </contour>
  </outline>
</glyph>
<glyph name="M" format="2">
  <advance width="880"/>
  <unicode hex="004D"/>
  <outline>
    <contour>
      <point x="178" y="613" type="line"/>
      <point x="408" y="0" type="line"/>
      <point x="471" y="0" type="line"/>
      <point x="700" y="612" type="line"/>
      <point x="663" y="612" type="line"/>
      <point x="663" y="0" type="line"/>
      <point x="808" y="0" type="line"/>
      <point x="808" y="700" type="line"/>
      <point x="601" y="700" type="line"/>
      <point x="400" y="156" type="line"/>
      <point x="481" y="156" type="line"/>
      <point x="277" y="700" type="line"/>
      <point x="72" y="700" type="line"/>
      <point x="72" y="0" type="line"/>
      <point x="216" y="0" type="line"/>
      <point x="216" y="613" type="line"/>
    </contour>
  </outline>
</glyph>
<glyph name="N" format="2">
  <advance width="760"/>
  <unicode hex="004E"/>
  <outline>
    <contour>
      <point x="609" y="118" type="line"/>
      <point x="273" y="700" type="line"/>
      <point x="75" y="700" type="line"/>
      <point x="75" y="0" type="line"/>
      <point x="221" y="0" type="line"/>
      <point x="219" y="580" type="line"/>
      <point x="184" y="580" type="line"/>
      <point x="519" y="0" type="line"/>
      <point x="685" y="0" type="line"/>
      <point x="685" y="700" type="line"/>
      <point x="540" y="700" type="line"/>
      <point x="540" y="118" type="line"/>
    </contour>
  </outline>
</glyph>
<glyph name="P" format="2">
  <advance width="680"/>
  <unicode hex="0050"/>
  <guideline x="334" y="700" angle="90" name="center" identifier="mHHRtYCNes"/>
  <outline>
    <contour>
      <point x="67" y="700" type="line"/>
      <point x="67" y="0" type="line"/>
      <point x="217" y="0" type="line"/>
      <point x="217" y="700" type="line"/>
    </contour>
    <contour>
      <point x="391" y="577" type="line" smooth="yes"/>
      <point x="457" y="577"/>
      <point x="492" y="546"/>
      <point x="492" y="492" type="curve" smooth="yes"/>
      <point x="492" y="438"/>
      <point x="457" y="407"/>
      <point x="391" y="407" type="curve" smooth="yes"/>
      <point x="140" y="407" type="line"/>
      <point x="140" y="284" type="line"/>
      <point x="406" y="284" type="line" smooth="yes"/>
      <point x="578" y="284"/>
      <point x="644" y="372"/>
      <point x="644" y="492" type="curve" smooth="yes"/>
      <point x="644" y="612"/>
      <point x="578" y="700"/>
      <point x="406" y="700" type="curve" smooth="yes"/>
      <point x="140" y="700" type="line"/>
      <point x="140" y="577" type="line"/>
    </contour>
  </outline>
</glyph>
<glyph name="Q" format="2">
  <advance width="760"/>
  <unicode hex="0051"/>
  <outline>
    <contour>
      <point x="312" y="-23" type="line" smooth="yes"/>
      <point x="312" y="-126"/>
      <point x="381" y="-186"/>
      <point x="508" y="-186" type="curve" smooth="yes"/>
      <point x="539" y="-186"/>
      <point x="589" y="-183"/>
      <point x="623" y="-177" type="curve"/>
      <point x="623" y="-66" type="line"/>
      <point x="599" y="-69"/>
      <point x="574" y="-71"/>
      <point x="553" y="-71" type="curve" smooth="yes"/>
      <point x="480" y="-71"/>
      <point x="465" y="-46"/>
      <point x="465" y="-17" type="curve" smooth="yes"/>
      <point x="465" y="22" type="line"/>
      <point x="312" y="22" type="line"/>
    </contour>
    <contour>
      <point x="564" y="350" type="curve" smooth="yes"/>
      <point x="564" y="200"/>
      <point x="488" y="116"/>
      <point x="380" y="116" type="curve" smooth="yes"/>
      <point x="272" y="116"/>
      <point x="196" y="200"/>
      <point x="196" y="350" type="curve" smooth="yes"/>
      <point x="196" y="500"/>
      <point x="272" y="584"/>
      <point x="380" y="584" type="curve" smooth="yes"/>
      <point x="488" y="584"/>
      <point x="564" y="500"/>
    </contour>
    <contour>
      <point x="41" y="350" type="curve" smooth="yes"/>
      <point x="41" y="134"/>
      <point x="182" y="-12"/>
      <point x="380" y="-12" type="curve" smooth="yes"/>
      <point x="578" y="-12"/>
      <point x="719" y="134"/>
      <point x="719" y="350" type="curve" smooth="yes"/>
      <point x="719" y="566"/>
      <point x="578" y="712"/>
      <point x="380" y="712" type="curve" smooth="yes"/>
      <point x="182" y="712"/>
      <point x="41" y="566"/>
    </contour>
  </outline>
</glyph>
<glyph name="R" format="2">
  <advance width="680"/>
  <unicode hex="0052"/>
  <outline>
    <contour>
      <point x="67" y="700" type="line"/>
      <point x="67" y="0" type="line"/>
      <point x="217" y="0" type="line"/>
      <point x="217" y="700" type="line"/>
    </contour>
    <contour>
      <point x="385" y="399" type="curve" smooth="yes"/>
      <point x="140" y="399" type="line"/>
      <point x="140" y="277" type="line"/>
      <point x="402" y="277" type="line" smooth="yes"/>
      <point x="557" y="277"/>
      <point x="639" y="356"/>
      <point x="639" y="488" type="curve" smooth="yes"/>
      <point x="639" y="620"/>
      <point x="557" y="700"/>
      <point x="402" y="700" type="curve" smooth="yes"/>
      <point x="145" y="700" type="line"/>
      <point x="145" y="577" type="line"/>
      <point x="385" y="577" type="line" smooth="yes"/>
      <point x="449" y="577"/>
      <point x="485" y="545"/>
      <point x="485" y="488" type="curve" smooth="yes"/>
      <point x="485" y="431"/>
      <point x="449" y="399"/>
    </contour>
    <contour>
      <point x="277" y="308" type="line"/>
      <point x="334" y="214"/>
      <point x="440" y="79"/>
      <point x="511" y="0" type="curve"/>
      <point x="672" y="0" type="line"/>
      <point x="672" y="7" type="line"/>
      <point x="604" y="82"/>
      <point x="498" y="215"/>
      <point x="440" y="308" type="curve"/>
    </contour>
  </outline>
</glyph>
<glyph name="S" format="2">
  <advance width="600"/>
  <unicode hex="0053"/>
  <outline>
    <contour>
      <point x="17" y="231" type="line"/>
      <point x="25" y="81"/>
      <point x="139" y="-12"/>
      <point x="313" y="-12" type="curve" smooth="yes"/>
      <point x="474" y="-12"/>
      <point x="575" y="83"/>
      <point x="575" y="222" type="curve" smooth="yes"/>
      <point x="575" y="330"/>
      <point x="504" y="387"/>
      <point x="401" y="405" type="curve" smooth="yes"/>
      <point x="276" y="426" type="line" smooth="yes"/>
      <point x="209" y="437"/>
      <point x="184" y="470"/>
      <point x="184" y="511" type="curve" smooth="yes"/>
      <point x="184" y="555"/>
      <point x="220" y="592"/>
      <point x="287" y="592" type="curve" smooth="yes"/>
      <point x="359" y="592"/>
      <point x="392" y="557"/>
      <point x="398" y="502" type="curve"/>
      <point x="557" y="494" type="line"/>
      <point x="545" y="621"/>
      <point x="462" y="712"/>
      <point x="292" y="712" type="curve" smooth="yes"/>
      <point x="131" y="712"/>
      <point x="33" y="621"/>
      <point x="33" y="491" type="curve" smooth="yes"/>
      <point x="33" y="373"/>
      <point x="112" y="314"/>
      <point x="229" y="296" type="curve" smooth="yes"/>
      <point x="337" y="279" type="line" smooth="yes"/>
      <point x="395" y="270"/>
      <point x="423" y="244"/>
      <point x="423" y="198" type="curve" smooth="yes"/>
      <point x="423" y="145"/>
      <point x="382" y="108"/>
      <point x="313" y="108" type="curve" smooth="yes"/>
      <point x="231" y="108"/>
      <point x="190" y="147"/>
      <point x="179" y="218" type="curve"/>
    </contour>
  </outline>
</glyph>
<glyph name="T" format="2">
  <advance width="680"/>
  <unicode hex="0054"/>
  <outline>
    <contour>
      <point x="21" y="700" type="line"/>
      <point x="21" y="576" type="line"/>
      <point x="660" y="576" type="line"/>
      <point x="660" y="700" type="line"/>
    </contour>
    <contour>
      <point x="265" y="651" type="line"/>
      <point x="265" y="0" type="line"/>
      <point x="416" y="0" type="line"/>
      <point x="416" y="651" type="line"/>
    </contour>
  </outline>
</glyph>
<glyph name="W" format="2">
  <advance width="880"/>
  <unicode hex="0057"/>
  <outline>
    <contour>
      <point x="698" y="0" type="line"/>
      <point x="864" y="700" type="line"/>
      <point x="713" y="700" type="line"/>
      <point x="594" y="148" type="line"/>
      <point x="642" y="148" type="line"/>
      <point x="511" y="700" type="line"/>
      <point x="370" y="700" type="line"/>
      <point x="244" y="159" type="line"/>
      <point x="288" y="159" type="line"/>
      <point x="168" y="700" type="line"/>
      <point x="16" y="700" type="line"/>
      <point x="183" y="0" type="line"/>
      <point x="331" y="0" type="line"/>
      <point x="482" y="647" type="line"/>
      <point x="396" y="647" type="line"/>
      <point x="552" y="0" type="line"/>
    </contour>
  </outline>
</glyph>
<glyph name="X" format="2">
  <advance width="680"/>
  <unicode hex="0058"/>
  <outline>
    <contour>
      <point x="39" y="700" type="line"/>
      <point x="266" y="344" type="line"/>
      <point x="278" y="337" type="line"/>
      <point x="490" y="0" type="line"/>
      <point x="659" y="0" type="line"/>
      <point x="405" y="394" type="line"/>
      <point x="393" y="399" type="line"/>
      <point x="209" y="700" type="line"/>
    </contour>
    <contour>
      <point x="641" y="700" type="line"/>
      <point x="476" y="700" type="line"/>
      <point x="287" y="395" type="line"/>
      <point x="267" y="387" type="line"/>
      <point x="21" y="0" type="line"/>
      <point x="189" y="0" type="line"/>
      <point x="398" y="341" type="line"/>
      <point x="416" y="343" type="line"/>
    </contour>
  </outline>
</glyph>
<glyph name="Y" format="2">
  <advance width="680"/>
  <unicode hex="0059"/>
  <outline>
    <contour>
      <point x="398" y="352" type="line"/>
      <point x="167" y="700" type="line"/>
      <point x="2" y="700" type="line"/>
      <point x="264" y="307" type="line"/>
      <point x="264" y="0" type="line"/>
      <point x="415" y="0" type="line"/>
      <point x="415" y="307" type="line"/>
      <point x="678" y="700" type="line"/>
      <point x="515" y="700" type="line"/>
      <point x="283" y="352" type="line"/>
    </contour>
  </outline>
</glyph>
<glyph name="backslash" format="2">
  <advance width="600"/>
  <unicode hex="005C"/>
  <outline>
    <contour>
      <point x="162" y="745" type="line"/>
      <point x="590" y="-113" type="line"/>
      <point x="440" y="-113" type="line"/>
      <point x="12" y="745" type="line"/>
    </contour>
  </outline>
</glyph>
<glyph name="bracketright" format="2">
  <advance width="600"/>
  <unicode hex="005D"/>
  <outline>
    <contour>
      <point x="392" y="-113" type="line"/>
      <point x="117" y="-113" type="line"/>
      <point x="117" y="-6" type="line"/>
      <point x="247" y="-6" type="line"/>
      <point x="247" y="638" type="line"/>
      <point x="117" y="638" type="line"/>
      <point x="117" y="745" type="line"/>
      <point x="392" y="745" type="line"/>
    </contour>
  </outline>
</glyph>
<glyph name="asciicircum" format="2">
  <advance width="600"/>
  <unicode hex="005E"/>
  <outline>
    <contour>
      <point x="369" y="700" type="line"/>
      <point x="231" y="700" type="line"/>
      <point x="25" y="361" type="line"/>
      <point x="172" y="361" type="line"/>
      <point x="349" y="649" type="line"/>
      <point x="251" y="649" type="line"/>
      <point x="428" y="361" type="line"/>
      <point x="575" y="361" type="line"/>
    </contour>
  </outline>
</glyph>
<glyph name="underscore" format="2">
  <advance width="450"/>
  <unicode hex="005F"/>
  <outline>
    <contour>
      <point x="8" y="-161" type="line"/>
      <point x="442" y="-161" type="line"/>
      <point x="442" y="-49" type="line"/>
      <point x="8" y="-49" type="line"/>
    </contour>
  </outline>
</glyph>
<glyph name="c" format="2">
  <advance width="550"/>
  <unicode hex="0063"/>
  <outline>
    <contour>
      <point x="518" y="351" type="line"/>
      <point x="493" y="448"/>
      <point x="403" y="512"/>
      <point x="293" y="512" type="curve" smooth="yes"/>
      <point x="148" y="512"/>
      <point x="48" y="409"/>
      <point x="48" y="250" type="curve" smooth="yes"/>
      <point x="48" y="91"/>
      <point x="148" y="-12"/>
      <point x="293" y="-12" type="curve" smooth="yes"/>
      <point x="403" y="-12"/>
      <point x="493" y="47"/>
      <point x="518" y="147" type="curve"/>
      <point x="384" y="182" type="line"/>
      <point x="370" y="121"/>
      <point x="335" y="102"/>
      <point x="293" y="102" type="curve" smooth="yes"/>
      <point x="230" y="102"/>
      <point x="189" y="149"/>
      <point x="189" y="250" type="curve" smooth="yes"/>
      <point x="189" y="351"/>
      <point x="230" y="398"/>
      <point x="293" y="398" type="curve" smooth="yes"/>
      <point x="335" y="398"/>
      <point x="373" y="379"/>
      <point x="384" y="316" type="curve"/>
    </contour>
  </outline>
</glyph>
<glyph name="e" format="2">
  <advance width="550"/>
  <unicode hex="0065"/>
  <guideline x="269" y="488" angle="90" name="center"/>
  <outline>
    <contour>
      <point x="287" y="-12" type="curve" smooth="yes"/>
      <point x="400" y="-12"/>
      <point x="485" y="50"/>
      <point x="510" y="138" type="curve"/>
      <point x="384" y="172" type="line"/>
      <point x="367" y="124"/>
      <point x="336" y="98"/>
      <point x="287" y="98" type="curve" smooth="yes"/>
      <point x="216" y="98"/>
      <point x="176" y="145"/>
      <point x="176" y="250" type="curve" smooth="yes"/>
      <point x="176" y="351"/>
      <point x="219" y="400"/>
      <point x="286" y="400" type="curve" smooth="yes"/>
      <point x="348" y="400"/>
      <point x="379" y="350"/>
      <point x="379" y="252" type="curve"/>
      <point x="436" y="308" type="line"/>
      <point x="104" y="308" type="line"/>
      <point x="104" y="204" type="line"/>
      <point x="517" y="204" type="line"/>
      <point x="517" y="245" type="line" smooth="yes"/>
      <point x="517" y="404"/>
      <point x="427" y="512"/>
      <point x="286" y="512" type="curve" smooth="yes"/>
      <point x="141" y="512"/>
      <point x="36" y="409"/>
      <point x="36" y="250" type="curve" smooth="yes"/>
      <point x="36" y="91"/>
      <point x="140" y="-12"/>
    </contour>
  </outline>
</glyph>
<glyph name="f" format="2">
  <advance width="450"/>
  <unicode hex="0066"/>
  <outline>
    <contour>
      <point x="36" y="393" type="line"/>
      <point x="420" y="393" type="line"/>
      <point x="420" y="500" type="line"/>
      <point x="36" y="500" type="line"/>
    </contour>
    <contour>
      <point x="351" y="705" type="curve" smooth="yes"/>
      <point x="219" y="705"/>
      <point x="147" y="640"/>
      <point x="147" y="528" type="curve" smooth="yes"/>
      <point x="147" y="0" type="line"/>
      <point x="287" y="0" type="line"/>
      <point x="287" y="527" type="line" smooth="yes"/>
      <point x="287" y="572"/>
      <point x="319" y="594"/>
      <point x="371" y="594" type="curve" smooth="yes"/>
      <point x="387" y="594"/>
      <point x="403" y="593"/>
      <point x="420" y="590" type="curve"/>
      <point x="420" y="699" type="line"/>
      <point x="404" y="703"/>
      <point x="378" y="705"/>
    </contour>
  </outline>
</glyph>
<glyph name="k" format="2">
  <advance width="550"/>
  <unicode hex="006B"/>
  <outline>
    <contour>
      <point x="61" y="0" type="line"/>
      <point x="201" y="0" type="line"/>
      <point x="201" y="700" type="line"/>
      <point x="61" y="700" type="line"/>
    </contour>
    <contour>
      <point x="138" y="254" type="line"/>
      <point x="138" y="98" type="line"/>
      <point x="289" y="253" type="line"/>
      <point x="326" y="275" type="line"/>
      <point x="545" y="500" type="line"/>
      <point x="376" y="500" type="line"/>
    </contour>
    <contour>
      <point x="211" y="264" type="line"/>
      <point x="394" y="0" type="line"/>
      <point x="553" y="0" type="line"/>
      <point x="312" y="348" type="line"/>
    </contour>
  </outline>
</glyph>
<glyph name="l" format="2">
  <advance width="300"/>
  <unicode hex="006C"/>
  <outline>
    <contour>
      <point x="80" y="107" type="line"/>
      <point x="80" y="0" type="line"/>
      <point x="220" y="0" type="line"/>
      <point x="220" y="107" type="line"/>
    </contour>
    <contour>
      <point x="80" y="700" type="line"/>
      <point x="80" y="593" type="line"/>
      <point x="220" y="593" type="line"/>
      <point x="220" y="700" type="line"/>
    </contour>
    <contour>
      <point x="80" y="700" type="line"/>
      <point x="80" y="0" type="line"/>
      <point x="220" y="0" type="line"/>
      <point x="220" y="700" type="line"/>
    </contour>
  </outline>
</glyph>
<glyph name="m" format="2">
  <advance width="880"/>
  <unicode hex="006D"/>
  <outline>
    <contour>
      <point x="463" y="294" type="line"/>
      <point x="513" y="294" type="line"/>
      <point x="513" y="354"/>
      <point x="546" y="391"/>
      <point x="597" y="391" type="curve" smooth="yes"/>
      <point x="649" y="391"/>
      <point x="668" y="354"/>
      <point x="668" y="303" type="curve" smooth="yes"/>
      <point x="668" y="0" type="line"/>
      <point x="808" y="0" type="line"/>
      <point x="808" y="335" type="line" smooth="yes"/>
      <point x="808" y="443"/>
      <point x="752" y="512"/>
      <point x="655" y="512" type="curve" smooth="yes"/>
      <point x="571" y="512"/>
      <point x="508" y="461"/>
      <point x="474" y="402" type="curve"/>
      <point x="463" y="402" type="line"/>
    </contour>
    <contour>
      <point x="78" y="500" type="line"/>
      <point x="78" y="0" type="line"/>
      <point x="218" y="0" type="line"/>
      <point x="218" y="294" type="line" smooth="yes"/>
      <point x="218" y="354"/>
      <point x="251" y="391"/>
      <point x="302" y="391" type="curve" smooth="yes"/>
      <point x="354" y="391"/>
      <point x="373" y="354"/>
      <point x="373" y="303" type="curve" smooth="yes"/>
      <point x="373" y="0" type="line"/>
      <point x="513" y="0" type="line"/>
      <point x="513" y="335" type="line" smooth="yes"/>
      <point x="513" y="443"/>
      <point x="457" y="512"/>
      <point x="361" y="512" type="curve" smooth="yes"/>
      <point x="276" y="512"/>
      <point x="223" y="460"/>
      <point x="195" y="402" type="curve"/>
      <point x="218" y="402" type="line"/>
      <point x="218" y="500" type="line"/>
    </contour>
  </outline>
</glyph>
<glyph name="n" format="2">
  <advance width="550"/>
  <unicode hex="006E"/>
  <guideline x="260" y="490" angle="90" name="center" identifier="tVsjf5nDdS"/>
  <outline>
    <contour>
      <point x="52" y="500" type="line"/>
      <point x="52" y="0" type="line"/>
      <point x="192" y="0" type="line"/>
      <point x="192" y="290" type="line" smooth="yes"/>
      <point x="192" y="350"/>
      <point x="227" y="391"/>
      <point x="283" y="391" type="curve" smooth="yes"/>
      <point x="339" y="391"/>
      <point x="361" y="350"/>
      <point x="361" y="299" type="curve" smooth="yes"/>
      <point x="361" y="0" type="line"/>
      <point x="501" y="0" type="line"/>
      <point x="501" y="335" type="line" smooth="yes"/>
      <point x="501" y="443"/>
      <point x="439" y="512"/>
      <point x="338" y="512" type="curve" smooth="yes"/>
      <point x="252" y="512"/>
      <point x="197" y="459"/>
      <point x="169" y="402" type="curve"/>
      <point x="192" y="402" type="line"/>
      <point x="192" y="500" type="line"/>
    </contour>
  </outline>
</glyph>
<glyph name="p" format="2">
  <advance width="600"/>
  <unicode hex="0070"/>
  <guideline x="310" y="490" angle="90" name="center" identifier="eZath174r8"/>
  <outline>
    <contour>
      <point x="353" y="512" type="curve" smooth="yes"/>
      <point x="265" y="512"/>
      <point x="197" y="460"/>
      <point x="166" y="379" type="curve"/>
      <point x="199" y="379" type="line"/>
      <point x="199" y="500" type="line"/>
      <point x="59" y="500" type="line"/>
      <point x="59" y="-180" type="line"/>
      <point x="199" y="-180" type="line"/>
      <point x="199" y="119" type="line"/>
      <point x="166" y="119" type="line"/>
      <point x="197" y="38"/>
      <point x="265" y="-12"/>
      <point x="353" y="-12" type="curve" smooth="yes"/>
      <point x="464" y="-12"/>
      <point x="564" y="76"/>
      <point x="564" y="249" type="curve" smooth="yes"/>
      <point x="564" y="421"/>
      <point x="464" y="512"/>
    </contour>
    <contour>
      <point x="308" y="104" type="curve" smooth="yes"/>
      <point x="239" y="104"/>
      <point x="193" y="154"/>
      <point x="193" y="250" type="curve" smooth="yes"/>
      <point x="193" y="346"/>
      <point x="239" y="396"/>
      <point x="308" y="396" type="curve" smooth="yes"/>
      <point x="377" y="396"/>
      <point x="423" y="346"/>
      <point x="423" y="250" type="curve" smooth="yes"/>
      <point x="423" y="154"/>
      <point x="377" y="104"/>
    </contour>
  </outline>
</glyph>
<glyph name="r" format="2">
  <advance width="450"/>
  <unicode hex="0072"/>
  <outline>
    <contour>
      <point x="68" y="500" type="line"/>
      <point x="68" y="0" type="line"/>
      <point x="208" y="0" type="line"/>
      <point x="208" y="203" type="line" smooth="yes"/>
      <point x="208" y="309"/>
      <point x="265" y="376"/>
      <point x="362" y="376" type="curve" smooth="yes"/>
      <point x="384" y="376"/>
      <point x="400" y="374"/>
      <point x="415" y="370" type="curve"/>
      <point x="415" y="505" type="line"/>
      <point x="403" y="509"/>
      <point x="389" y="510"/>
      <point x="370" y="510" type="curve" smooth="yes"/>
      <point x="285" y="510"/>
      <point x="212" y="447"/>
      <point x="185" y="345" type="curve"/>
      <point x="208" y="347" type="line"/>
      <point x="208" y="500" type="line"/>
    </contour>
  </outline>
</glyph>
<glyph name="s" format="2">
  <advance width="500"/>
  <unicode hex="0073"/>
  <outline>
    <contour>
      <point x="23" y="173" type="line"/>
      <point x="27" y="62"/>
      <point x="104" y="-12"/>
      <point x="261" y="-12" type="curve" smooth="yes"/>
      <point x="405" y="-12"/>
      <point x="480" y="59"/>
      <point x="480" y="158" type="curve" smooth="yes"/>
      <point x="480" y="239"/>
      <point x="431" y="284"/>
      <point x="322" y="301" type="curve" smooth="yes"/>
      <point x="244" y="313" type="line" smooth="yes"/>
      <point x="188" y="322"/>
      <point x="174" y="339"/>
      <point x="174" y="361" type="curve" smooth="yes"/>
      <point x="174" y="389"/>
      <point x="198" y="413"/>
      <point x="247" y="413" type="curve" smooth="yes"/>
      <point x="298" y="413"/>
      <point x="322" y="383"/>
      <point x="325" y="348" type="curve"/>
      <point x="469" y="337" type="line"/>
      <point x="468" y="438"/>
      <point x="388" y="512"/>
      <point x="251" y="512" type="curve" smooth="yes"/>
      <point x="119" y="512"/>
      <point x="34" y="447"/>
      <point x="34" y="341" type="curve" smooth="yes"/>
      <point x="34" y="260"/>
      <point x="81" y="218"/>
      <point x="195" y="200" type="curve" smooth="yes"/>
      <point x="271" y="188" type="line" smooth="yes"/>
      <point x="326" y="179"/>
      <point x="339" y="161"/>
      <point x="339" y="140" type="curve" smooth="yes"/>
      <point x="339" y="113"/>
      <point x="316" y="88"/>
      <point x="262" y="88" type="curve" smooth="yes"/>
      <point x="200" y="88"/>
      <point x="175" y="120"/>
      <point x="171" y="158" type="curve"/>
    </contour>
  </outline>
</glyph>
<glyph name="t" format="2">
  <advance width="450"/>
  <unicode hex="0074"/>
  <guideline x="165" y="692" angle="90" name="center"/>
  <outline>
    <contour>
      <point x="17" y="393" type="line"/>
      <point x="410" y="393" type="line"/>
      <point x="410" y="500" type="line"/>
      <point x="17" y="500" type="line"/>
    </contour>
    <contour>
      <point x="313" y="-12" type="curve" smooth="yes"/>
      <point x="351" y="-12"/>
      <point x="387" y="-8"/>
      <point x="412" y="-2" type="curve"/>
      <point x="412" y="105" type="line"/>
      <point x="395" y="102"/>
      <point x="374" y="101"/>
      <point x="355" y="101" type="curve" smooth="yes"/>
      <point x="294" y="101"/>
      <point x="269" y="124"/>
      <point x="269" y="170" type="curve" smooth="yes"/>
      <point x="269" y="643" type="line"/>
      <point x="129" y="643" type="line"/>
      <point x="129" y="150" type="line" smooth="yes"/>
      <point x="129" y="40"/>
      <point x="194" y="-12"/>
    </contour>
  </outline>
</glyph>
<glyph name="u" format="2">
  <advance width="550"/>
  <unicode hex="0075"/>
  <outline>
    <contour>
      <point x="498" y="0" type="line"/>
      <point x="498" y="500" type="line"/>
      <point x="358" y="500" type="line"/>
      <point x="358" y="210" type="line" smooth="yes"/>
      <point x="358" y="150"/>
      <point x="323" y="109"/>
      <point x="267" y="109" type="curve" smooth="yes"/>
      <point x="211" y="109"/>
      <point x="189" y="150"/>
      <point x="189" y="201" type="curve" smooth="yes"/>
      <point x="189" y="500" type="line"/>
      <point x="49" y="500" type="line"/>
      <point x="49" y="165" type="line" smooth="yes"/>
      <point x="49" y="57"/>
      <point x="111" y="-12"/>
      <point x="212" y="-12" type="curve" smooth="yes"/>
      <point x="298" y="-12"/>
      <point x="353" y="41"/>
      <point x="381" y="98" type="curve"/>
      <point x="358" y="98" type="line"/>
      <point x="358" y="0" type="line"/>
    </contour>
  </outline>
</glyph>
<glyph name="v" format="2">
  <advance width="550"/>
  <unicode hex="0076"/>
  <outline>
    <contour>
      <point x="198" y="0" type="line"/>
      <point x="353" y="0" type="line"/>
      <point x="545" y="500" type="line"/>
      <point x="398" y="500" type="line"/>
      <point x="232" y="39" type="line"/>
      <point x="320" y="39" type="line"/>
      <point x="152" y="500" type="line"/>
      <point x="5" y="500" type="line"/>
    </contour>
  </outline>
</glyph>
<glyph name="w" format="2">
  <advance width="760"/>
  <unicode hex="0077"/>
  <outline>
    <contour>
      <point x="169" y="0" type="line"/>
      <point x="295" y="0" type="line"/>
      <point x="422" y="435" type="line"/>
      <point x="335" y="435" type="line"/>
      <point x="467" y="0" type="line"/>
      <point x="593" y="0" type="line"/>
      <point x="752" y="500" type="line"/>
      <point x="611" y="500" type="line"/>
      <point x="485" y="50" type="line"/>
      <point x="573" y="50" type="line"/>
      <point x="434" y="500" type="line"/>
      <point x="324" y="500" type="line"/>
      <point x="197" y="50" type="line"/>
      <point x="280" y="50" type="line"/>
      <point x="154" y="500" type="line"/>
      <point x="9" y="500" type="line"/>
    </contour>
  </outline>
</glyph>
<glyph name="x" format="2">
  <advance width="500"/>
  <unicode hex="0078"/>
  <outline>
    <contour>
      <point x="2" y="500" type="line"/>
      <point x="187" y="228" type="line"/>
      <point x="206" y="228" type="line"/>
      <point x="360" y="0" type="line"/>
      <point x="513" y="0" type="line"/>
      <point x="320" y="276" type="line"/>
      <point x="299" y="281" type="line"/>
      <point x="155" y="500" type="line"/>
    </contour>
    <contour>
      <point x="497" y="500" type="line"/>
      <point x="348" y="500" type="line"/>
      <point x="209" y="281" type="line"/>
      <point x="179" y="278" type="line"/>
      <point x="-12" y="0" type="line"/>
      <point x="139" y="0" type="line"/>
      <point x="292" y="229" type="line"/>
      <point x="314" y="226" type="line"/>
    </contour>
  </outline>
</glyph>
<glyph name="y" format="2">
  <advance width="550"/>
  <unicode hex="0079"/>
  <outline>
    <contour>
      <point x="271" y="-180" type="line"/>
      <point x="543" y="500" type="line"/>
      <point x="392" y="500" type="line"/>
      <point x="226" y="58" type="line"/>
      <point x="210" y="32" type="line"/>
      <point x="118" y="-180" type="line"/>
    </contour>
    <contour>
      <point x="8" y="500" type="line"/>
      <point x="235" y="-61" type="line"/>
      <point x="312" y="116" type="line"/>
      <point x="161" y="500" type="line"/>
    </contour>
  </outline>
</glyph>
<glyph name="z" format="2">
  <advance width="500"/>
  <unicode hex="007A"/>
  <outline>
    <contour>
      <point x="37" y="96" type="line"/>
      <point x="37" y="0" type="line"/>
      <point x="465" y="0" type="line"/>
      <point x="465" y="108" type="line"/>
      <point x="90" y="108" type="line"/>
      <point x="173" y="66" type="line"/>
      <point x="462" y="410" type="line"/>
      <point x="462" y="500" type="line"/>
      <point x="36" y="500" type="line"/>
      <point x="36" y="390" type="line"/>
      <point x="414" y="390" type="line"/>
      <point x="326" y="441" type="line"/>
    </contour>
  </outline>
</glyph>
<glyph name="asciitilde" format="2">
  <advance width="550"/>
  <unicode hex="007E"/>
  <outline>
    <contour>
      <point x="367" y="232" type="curve" smooth="yes"/>
      <point x="440" y="232"/>
      <point x="504" y="297" name="inserted"/>
      <point x="513" y="408" type="curve"/>
      <point x="409" y="408" type="line"/>
      <point x="403" y="371"/>
      <point x="382" y="352" name="inserted"/>
      <point x="355" y="352" type="curve" smooth="yes"/>
      <point x="313" y="352"/>
      <point x="248" y="400" name="inserted"/>
      <point x="184" y="400" type="curve" smooth="yes"/>
      <point x="111" y="400"/>
      <point x="47" y="336" name="inserted"/>
      <point x="38" y="225" type="curve"/>
      <point x="142" y="225" type="line"/>
      <point x="148" y="262"/>
      <point x="169" y="280" name="inserted"/>
      <point x="196" y="280" type="curve" smooth="yes"/>
      <point x="238" y="280"/>
      <point x="303" y="232" name="inserted"/>
    </contour>
  </outline>
</glyph>
<glyph name="cent" format="2">
  <advance width="550"/>
  <unicode hex="00A2"/>
  <outline>
    <contour>
      <point x="524" y="351" type="line"/>
      <point x="499" y="448"/>
      <point x="407" y="512"/>
      <point x="295" y="512" type="curve" smooth="yes"/>
      <point x="146" y="512"/>
      <point x="43" y="409"/>
      <point x="43" y="250" type="curve" smooth="yes"/>
      <point x="43" y="91"/>
      <point x="146" y="-12"/>
      <point x="295" y="-12" type="curve" smooth="yes"/>
      <point x="407" y="-12"/>
      <point x="499" y="47"/>
      <point x="524" y="147" type="curve"/>
      <point x="391" y="182" type="line"/>
      <point x="377" y="120"/>
      <point x="339" y="101"/>
      <point x="295" y="101" type="curve" smooth="yes"/>
      <point x="228" y="101"/>
      <point x="183" y="148"/>
      <point x="183" y="250" type="curve" smooth="yes"/>
      <point x="183" y="352"/>
      <point x="228" y="399"/>
      <point x="295" y="399" type="curve" smooth="yes"/>
      <point x="339" y="399"/>
      <point x="380" y="380"/>
      <point x="391" y="316" type="curve"/>
    </contour>
    <contour>
      <point x="239" y="-112" type="line"/>
      <point x="333" y="-112" type="line"/>
      <point x="333" y="597" type="line"/>
      <point x="239" y="597" type="line"/>
    </contour>
  </outline>
</glyph>
<glyph name="brokenbar" format="2">
  <advance width="300"/>
  <unicode hex="00A6"/>
  <outline>
    <contour>
      <point x="79" y="745" type="line"/>
      <point x="79" y="367" type="line"/>
      <point x="222" y="367" type="line"/>
      <point x="222" y="745" type="line"/>
    </contour>
    <contour>
      <point x="79" y="265" type="line"/>
      <point x="79" y="-113" type="line"/>
      <point x="222" y="-113" type="line"/>
      <point x="222" y="265" type="line"/>
    </contour>
  </outline>
</glyph>
<glyph name="section" format="2">
  <advance width="550"/>
  <unicode hex="00A7"/>
  <outline>
    <contour>
      <point x="323" y="171" type="line"/>
      <point x="370" y="217"/>
      <point x="380" y="243"/>
      <point x="380" y="267" type="curve" smooth="yes"/>
      <point x="380" y="299"/>
      <point x="361" y="324"/>
      <point x="309" y="341" type="curve" smooth="yes"/>
      <point x="208" y="373" type="line" smooth="yes"/>
      <point x="98" y="408"/>
      <point x="49" y="454"/>
      <point x="49" y="532" type="curve" smooth="yes"/>
      <point x="49" y="643"/>
      <point x="139" y="712"/>
      <point x="273" y="712" type="curve" smooth="yes"/>
      <point x="410" y="712"/>
      <point x="496" y="638"/>
      <point x="497" y="529" type="curve"/>
      <point x="353" y="540" type="line"/>
      <point x="350" y="583"/>
      <point x="320" y="613"/>
      <point x="269" y="613" type="curve" smooth="yes"/>
      <point x="219" y="613"/>
      <point x="189" y="586"/>
      <point x="189" y="552" type="curve" smooth="yes"/>
      <point x="189" y="525"/>
      <point x="206" y="507"/>
      <point x="261" y="490" type="curve" smooth="yes"/>
      <point x="362" y="458" type="line" smooth="yes"/>
      <point x="474" y="422"/>
      <point x="517" y="370"/>
      <point x="517" y="290" type="curve" smooth="yes"/>
      <point x="517" y="215"/>
      <point x="480" y="168"/>
      <point x="419" y="110" type="curve"/>
    </contour>
    <contour>
      <point x="34" y="75" type="curve"/>
      <point x="182" y="60" type="line"/>
      <point x="186" y="6"/>
      <point x="216" y="-26"/>
      <point x="279" y="-26" type="curve" smooth="yes"/>
      <point x="336" y="-26"/>
      <point x="361" y="1"/>
      <point x="361" y="36" type="curve" smooth="yes"/>
      <point x="361" y="65"/>
      <point x="341" y="87"/>
      <point x="289" y="104" type="curve" smooth="yes"/>
      <point x="188" y="136" type="line" smooth="yes"/>
      <point x="82" y="170"/>
      <point x="38" y="224"/>
      <point x="38" y="305" type="curve" smooth="yes"/>
      <point x="38" y="382"/>
      <point x="87" y="438"/>
      <point x="157" y="482" type="curve"/>
      <point x="237" y="423" type="line"/>
      <point x="192" y="388"/>
      <point x="169" y="359"/>
      <point x="169" y="324" type="curve" smooth="yes"/>
      <point x="169" y="292"/>
      <point x="188" y="270"/>
      <point x="241" y="253" type="curve" smooth="yes"/>
      <point x="342" y="221" type="line" smooth="yes"/>
      <point x="448" y="187"/>
      <point x="502" y="135"/>
      <point x="502" y="51" type="curve" smooth="yes"/>
      <point x="502" y="-52"/>
      <point x="424" y="-126"/>
      <point x="278" y="-126" type="curve" smooth="yes"/>
      <point x="121" y="-126"/>
      <point x="38" y="-52"/>
    </contour>
  </outline>
</glyph>
<glyph name="copyright" format="2">
  <advance width="760"/>
  <unicode hex="00A9"/>
  <outline>
    <contour>
      <point x="548" y="446" type="line"/>
      <point x="530" y="516"/>
      <point x="466" y="563"/>
      <point x="385" y="563" type="curve" smooth="yes"/>
      <point x="280" y="563"/>
      <point x="206" y="486"/>
      <point x="206" y="379" type="curve" smooth="yes"/>
      <point x="206" y="273"/>
      <point x="280" y="196"/>
      <point x="385" y="196" type="curve" smooth="yes"/>
      <point x="466" y="196"/>
      <point x="530" y="243"/>
      <point x="548" y="312" type="curve"/>
      <point x="461" y="339" type="line"/>
      <point x="449" y="303"/>
      <point x="426" y="279"/>
      <point x="385" y="279" type="curve" smooth="yes"/>
      <point x="337" y="279"/>
      <point x="302" y="317"/>
      <point x="302" y="379" type="curve" smooth="yes"/>
      <point x="302" y="442"/>
      <point x="337" y="479"/>
      <point x="385" y="479" type="curve" smooth="yes"/>
      <point x="426" y="479"/>
      <point x="449" y="457"/>
      <point x="460" y="421" type="curve"/>
    </contour>
    <contour>
      <point x="51" y="379" type="curve" smooth="yes"/>
      <point x="51" y="195"/>
      <point x="193" y="48"/>
      <point x="380" y="48" type="curve" smooth="yes"/>
      <point x="567" y="48"/>
      <point x="709" y="195"/>
      <point x="709" y="379" type="curve" smooth="yes"/>
      <point x="709" y="563"/>
      <point x="567" y="710"/>
      <point x="380" y="710" type="curve" smooth="yes"/>
      <point x="193" y="710"/>
      <point x="51" y="563"/>
    </contour>
    <contour>
      <point x="624" y="379" type="curve" smooth="yes"/>
      <point x="624" y="234"/>
      <point x="524" y="127"/>
      <point x="380" y="127" type="curve" smooth="yes"/>
      <point x="236" y="127"/>
      <point x="136" y="234"/>
      <point x="136" y="379" type="curve" smooth="yes"/>
      <point x="136" y="525"/>
      <point x="236" y="631"/>
      <point x="380" y="631" type="curve" smooth="yes"/>
      <point x="524" y="631"/>
      <point x="624" y="525"/>
    </contour>
  </outline>
</glyph>
<glyph name="ordfeminine" format="2">
  <advance width="450"/>
  <unicode hex="00AA"/>
  <outline>
    <contour>
      <point x="33" y="423" type="curve" smooth="yes"/>
      <point x="33" y="346"/>
      <point x="89" y="298"/>
      <point x="175" y="298" type="curve" smooth="yes"/>
      <point x="229" y="298"/>
      <point x="267" y="318"/>
      <point x="294" y="353" type="curve"/>
      <point x="310" y="313"/>
      <point x="349" y="302"/>
      <point x="391" y="302" type="curve" smooth="yes"/>
      <point x="403" y="302"/>
      <point x="410" y="303"/>
      <point x="420" y="304" type="curve"/>
      <point x="420" y="388" type="line"/>
      <point x="414" y="388" type="line" smooth="yes"/>
      <point x="400" y="388"/>
      <point x="391" y="395"/>
      <point x="391" y="414" type="curve" smooth="yes"/>
      <point x="391" y="580" type="line" smooth="yes"/>
      <point x="391" y="664"/>
      <point x="334" y="712"/>
      <point x="221" y="712" type="curve" smooth="yes"/>
      <point x="103" y="712"/>
      <point x="53" y="644"/>
      <point x="49" y="583" type="curve"/>
      <point x="167" y="564" type="line"/>
      <point x="167" y="600"/>
      <point x="178" y="624"/>
      <point x="221" y="624" type="curve" smooth="yes"/>
      <point x="263" y="624"/>
      <point x="276" y="606"/>
      <point x="276" y="572" type="curve" smooth="yes"/>
      <point x="276" y="555" type="line"/>
      <point x="168" y="543" type="line" smooth="yes"/>
      <point x="86" y="534"/>
      <point x="33" y="495"/>
    </contour>
    <contour>
      <point x="276" y="454" type="line" smooth="yes"/>
      <point x="276" y="410"/>
      <point x="243" y="382"/>
      <point x="199" y="382" type="curve" smooth="yes"/>
      <point x="167" y="382"/>
      <point x="150" y="398"/>
      <point x="150" y="424" type="curve" smooth="yes"/>
      <point x="150" y="453"/>
      <point x="167" y="465"/>
      <point x="214" y="471" type="curve" smooth="yes"/>
      <point x="276" y="479" type="line"/>
    </contour>
  </outline>
</glyph>
<glyph name="registered" format="2">
  <advance width="550"/>
  <unicode hex="00AE"/>
  <outline>
    <contour>
      <point x="497" y="482" type="curve" smooth="yes"/>
      <point x="497" y="606"/>
      <point x="403" y="705"/>
      <point x="275" y="705" type="curve" smooth="yes"/>
      <point x="147" y="705"/>
      <point x="53" y="606"/>
      <point x="53" y="482" type="curve" smooth="yes"/>
      <point x="53" y="358"/>
      <point x="147" y="259"/>
      <point x="275" y="259" type="curve" smooth="yes"/>
      <point x="403" y="259"/>
      <point x="497" y="358"/>
    </contour>
    <contour>
      <point x="115" y="482" type="curve" smooth="yes"/>
      <point x="115" y="576"/>
      <point x="177" y="646"/>
      <point x="275" y="646" type="curve" smooth="yes"/>
      <point x="373" y="646"/>
      <point x="435" y="576"/>
      <point x="435" y="482" type="curve" smooth="yes"/>
      <point x="435" y="388"/>
      <point x="373" y="318"/>
      <point x="275" y="318" type="curve" smooth="yes"/>
      <point x="177" y="318"/>
      <point x="115" y="388"/>
    </contour>
    <contour>
      <point x="182" y="589" type="line"/>
      <point x="182" y="375" type="line"/>
      <point x="245" y="375" type="line"/>
      <point x="245" y="589" type="line"/>
    </contour>
    <contour>
      <point x="289" y="494" type="curve" smooth="yes"/>
      <point x="201" y="494" type="line"/>
      <point x="201" y="443" type="line"/>
      <point x="289" y="443" type="line" smooth="yes"/>
      <point x="349" y="443"/>
      <point x="377" y="470"/>
      <point x="377" y="517" type="curve" smooth="yes"/>
      <point x="377" y="564"/>
      <point x="347" y="589"/>
      <point x="289" y="589" type="curve" smooth="yes"/>
      <point x="202" y="589" type="line"/>
      <point x="202" y="536" type="line"/>
      <point x="289" y="536" type="line" smooth="yes"/>
      <point x="305" y="536"/>
      <point x="313" y="528"/>
      <point x="313" y="515" type="curve" smooth="yes"/>
      <point x="313" y="502"/>
      <point x="305" y="494"/>
    </contour>
    <contour>
      <point x="252" y="452" type="line"/>
      <point x="272" y="424"/>
      <point x="296" y="399"/>
      <point x="317" y="375" type="curve"/>
      <point x="387" y="375" type="line"/>
      <point x="387" y="377" type="line"/>
      <point x="366" y="400"/>
      <point x="342" y="425"/>
      <point x="321" y="452" type="curve"/>
    </contour>
  </outline>
</glyph>
<glyph name="degree" format="2">
  <advance width="450"/>
  <unicode hex="00B0"/>
  <outline>
    <contour>
      <point x="67" y="550" type="curve" smooth="yes"/>
      <point x="67" y="461"/>
      <point x="137" y="392"/>
      <point x="225" y="392" type="curve" smooth="yes"/>
      <point x="313" y="392"/>
      <point x="383" y="461"/>
      <point x="383" y="550" type="curve" smooth="yes"/>
      <point x="383" y="639"/>
      <point x="313" y="708"/>
      <point x="225" y="708" type="curve" smooth="yes"/>
      <point x="137" y="708"/>
      <point x="67" y="639"/>
    </contour>
    <contour>
      <point x="285" y="550" type="curve" smooth="yes"/>
      <point x="285" y="512"/>
      <point x="259" y="486"/>
      <point x="225" y="486" type="curve" smooth="yes"/>
      <point x="191" y="486"/>
      <point x="165" y="512"/>
      <point x="165" y="550" type="curve" smooth="yes"/>
      <point x="165" y="588"/>
      <point x="191" y="614"/>
      <point x="225" y="614" type="curve" smooth="yes"/>
      <point x="259" y="614"/>
      <point x="285" y="588"/>
    </contour>
  </outline>
</glyph>
<glyph name="ordmasculine" format="2">
  <advance width="450"/>
  <unicode hex="00BA"/>
  <outline>
    <contour>
      <point x="225" y="298" type="curve" smooth="yes"/>
      <point x="341" y="298"/>
      <point x="424" y="379"/>
      <point x="424" y="505" type="curve" smooth="yes"/>
      <point x="424" y="631"/>
      <point x="341" y="712"/>
      <point x="225" y="712" type="curve" smooth="yes"/>
      <point x="109" y="712"/>
      <point x="26" y="631"/>
      <point x="26" y="505" type="curve" smooth="yes"/>
      <point x="26" y="379"/>
      <point x="109" y="298"/>
    </contour>
    <contour>
      <point x="225" y="617" type="curve" smooth="yes"/>
      <point x="276" y="617"/>
      <point x="305" y="577"/>
      <point x="305" y="505" type="curve" smooth="yes"/>
      <point x="305" y="433"/>
      <point x="276" y="393"/>
      <point x="225" y="393" type="curve" smooth="yes"/>
      <point x="174" y="393"/>
      <point x="145" y="433"/>
      <point x="145" y="505" type="curve" smooth="yes"/>
      <point x="145" y="577"/>
      <point x="174" y="617"/>
    </contour>
  </outline>
</glyph>
<glyph name="germandbls" format="2">
  <advance width="550"/>
  <unicode hex="00DF"/>
  <outline>
    <contour>
      <point x="47" y="506" type="curve" smooth="yes"/>
      <point x="47" y="0" type="line"/>
      <point x="187" y="0" type="line"/>
      <point x="187" y="506" type="line" smooth="yes"/>
      <point x="187" y="561"/>
      <point x="218" y="603"/>
      <point x="275" y="603" type="curve" smooth="yes"/>
      <point x="323" y="603"/>
      <point x="359" y="573"/>
      <point x="359" y="515" type="curve" smooth="yes"/>
      <point x="359" y="457"/>
      <point x="326" y="423"/>
      <point x="260" y="423" type="curve" smooth="yes"/>
      <point x="241" y="423" type="line"/>
      <point x="241" y="316" type="line"/>
      <point x="264" y="316" type="line" smooth="yes"/>
      <point x="343" y="316"/>
      <point x="393" y="283"/>
      <point x="393" y="205" type="curve" smooth="yes"/>
      <point x="393" y="139"/>
      <point x="357" y="101"/>
      <point x="294" y="101" type="curve" smooth="yes"/>
      <point x="271" y="101"/>
      <point x="251" y="107"/>
      <point x="236" y="114" type="curve"/>
      <point x="236" y="1" type="line"/>
      <point x="250" y="-4"/>
      <point x="284" y="-12"/>
      <point x="323" y="-12" type="curve" smooth="yes"/>
      <point x="464" y="-12"/>
      <point x="534" y="89"/>
      <point x="534" y="197" type="curve" smooth="yes"/>
      <point x="534" y="309"/>
      <point x="463" y="360"/>
      <point x="403" y="377" type="curve"/>
      <point x="403" y="371" type="line"/>
      <point x="437" y="387"/>
      <point x="499" y="434"/>
      <point x="499" y="521" type="curve" smooth="yes"/>
      <point x="499" y="634"/>
      <point x="411" y="712"/>
      <point x="276" y="712" type="curve" smooth="yes"/>
      <point x="133" y="712"/>
      <point x="47" y="625"/>
    </contour>
  </outline>
</glyph>
<glyph name="ae" format="2">
  <advance width="760"/>
  <unicode hex="00E6"/>
  <outline>
    <contour>
      <point x="41" y="145" type="curve" smooth="yes"/>
      <point x="41" y="49"/>
      <point x="104" y="-12"/>
      <point x="209" y="-12" type="curve" smooth="yes"/>
      <point x="372" y="-12"/>
      <point x="411" y="127"/>
      <point x="411" y="226" type="curve" smooth="yes"/>
      <point x="419" y="355" type="line" smooth="yes"/>
      <point x="419" y="440"/>
      <point x="358" y="512"/>
      <point x="245" y="512" type="curve" smooth="yes"/>
      <point x="123" y="512"/>
      <point x="64" y="445"/>
      <point x="55" y="350" type="curve"/>
      <point x="182" y="327" type="line"/>
      <point x="186" y="380"/>
      <point x="202" y="407"/>
      <point x="249" y="407" type="curve" smooth="yes"/>
      <point x="286" y="407"/>
      <point x="308" y="388"/>
      <point x="308" y="345" type="curve" smooth="yes"/>
      <point x="308" y="166" type="line" smooth="yes"/>
      <point x="308" y="117"/>
      <point x="272" y="89"/>
      <point x="228" y="89" type="curve" smooth="yes"/>
      <point x="190" y="89"/>
      <point x="167" y="110"/>
      <point x="167" y="145" type="curve" smooth="yes"/>
      <point x="167" y="179"/>
      <point x="192" y="203"/>
      <point x="245" y="205" type="curve" smooth="yes"/>
      <point x="373" y="212" type="line"/>
      <point x="373" y="312" type="line"/>
      <point x="213" y="304" type="line" smooth="yes"/>
      <point x="110" y="299"/>
      <point x="41" y="239"/>
    </contour>
    <contour>
      <point x="329" y="243" type="curve" smooth="yes"/>
      <point x="329" y="84"/>
      <point x="394" y="-12"/>
      <point x="526" y="-12" type="curve" smooth="yes"/>
      <point x="611" y="-12"/>
      <point x="687" y="38"/>
      <point x="714" y="137" type="curve"/>
      <point x="595" y="168" type="line"/>
      <point x="581" y="117"/>
      <point x="557" y="96"/>
      <point x="522" y="96" type="curve" smooth="yes"/>
      <point x="472" y="96"/>
      <point x="437" y="128"/>
      <point x="437" y="250" type="curve" smooth="yes"/>
      <point x="437" y="367"/>
      <point x="472" y="402"/>
      <point x="520" y="402" type="curve" smooth="yes"/>
      <point x="564" y="402"/>
      <point x="595" y="369"/>
      <point x="594" y="252" type="curve"/>
      <point x="655" y="308" type="line"/>
      <point x="371" y="308" type="line"/>
      <point x="371" y="205" type="line"/>
      <point x="719" y="205" type="line"/>
      <point x="719" y="245" type="line" smooth="yes"/>
      <point x="719" y="416"/>
      <point x="645" y="512"/>
      <point x="523" y="512" type="curve" smooth="yes"/>
      <point x="399" y="512"/>
      <point x="329" y="402"/>
    </contour>
  </outline>
</glyph>
<glyph name="icircumflex" format="2">
  <advance width="300"/>
  <unicode hex="00EE"/>
  <outline>
    <contour>
      <point x="83" y="700" type="line"/>
      <point x="-27" y="564" type="line"/>
      <point x="87" y="564" type="line"/>
      <point x="203" y="662" type="line"/>
      <point x="97" y="662" type="line"/>
      <point x="213" y="564" type="line"/>
      <point x="327" y="564" type="line"/>
      <point x="217" y="700" type="line"/>
    </contour>
    <component base="dotlessi" identifier="CF6DB957"/>
  </outline>
</glyph>
<glyph name="idieresis" format="2">
  <advance width="300"/>
  <unicode hex="00EF"/>
  <outline>
    <contour>
      <point x="-16" y="700" type="line"/>
      <point x="-16" y="564" type="line"/>
      <point x="124" y="564" type="line"/>
      <point x="124" y="700" type="line"/>
    </contour>
    <contour>
      <point x="176" y="700" type="line"/>
      <point x="176" y="564" type="line"/>
      <point x="316" y="564" type="line"/>
      <point x="316" y="700" type="line"/>
    </contour>
    <component base="dotlessi" identifier="8560C33F"/>
  </outline>
</glyph>
<glyph name="eth" format="2">
  <advance width="550"/>
  <unicode hex="00F0"/>
  <outline>
    <contour>
      <point x="275" y="376" type="curve" smooth="yes"/>
      <point x="341" y="376"/>
      <point x="380" y="324"/>
      <point x="380" y="240" type="curve" smooth="yes"/>
      <point x="380" y="156"/>
      <point x="341" y="104"/>
      <point x="275" y="104" type="curve" smooth="yes"/>
      <point x="209" y="104"/>
      <point x="170" y="156"/>
      <point x="170" y="240" type="curve" smooth="yes"/>
      <point x="170" y="324"/>
      <point x="209" y="376"/>
    </contour>
    <contour>
      <point x="275" y="-12" type="curve" smooth="yes"/>
      <point x="417" y="-12"/>
      <point x="521" y="83"/>
      <point x="521" y="266" type="curve" smooth="yes"/>
      <point x="521" y="505"/>
      <point x="380" y="641"/>
      <point x="226" y="711" type="curve"/>
      <point x="90" y="689" type="line"/>
      <point x="223" y="602"/>
      <point x="316" y="542"/>
      <point x="370" y="412" type="curve"/>
      <point x="375" y="412" type="line"/>
      <point x="342" y="463"/>
      <point x="290" y="492"/>
      <point x="234" y="492" type="curve" smooth="yes"/>
      <point x="129" y="492"/>
      <point x="29" y="386"/>
      <point x="29" y="240" type="curve" smooth="yes"/>
      <point x="29" y="96"/>
      <point x="133" y="-12"/>
    </contour>
    <contour>
      <point x="140" y="497" type="line"/>
      <point x="459" y="632" type="line"/>
      <point x="432" y="700" type="line"/>
      <point x="113" y="565" type="line"/>
    </contour>
  </outline>
</glyph>
<glyph name="divide" format="2">
  <advance width="600"/>
  <unicode hex="00F7"/>
  <outline>
    <contour>
      <point x="544" y="280" type="line"/>
      <point x="544" y="400" type="line"/>
      <point x="56" y="400" type="line"/>
      <point x="56" y="280" type="line"/>
    </contour>
    <contour>
      <point x="227" y="203" type="line"/>
      <point x="227" y="62" type="line"/>
      <point x="372" y="62" type="line"/>
      <point x="372" y="203" type="line"/>
    </contour>
    <contour>
      <point x="227" y="617" type="line"/>
      <point x="227" y="476" type="line"/>
      <point x="372" y="476" type="line"/>
      <point x="372" y="617" type="line"/>
    </contour>
  </outline>
</glyph>
<glyph name="oslash" format="2">
  <advance width="550"/>
  <unicode hex="00F8"/>
  <outline>
    <contour>
      <point x="18" y="24" type="line"/>
      <point x="85" y="-32" type="line"/>
      <point x="532" y="466" type="line"/>
      <point x="465" y="522" type="line"/>
    </contour>
    <contour>
      <point x="275" y="-12" type="curve" smooth="yes"/>
      <point x="416" y="-12"/>
      <point x="520" y="91"/>
      <point x="520" y="250" type="curve" smooth="yes"/>
      <point x="520" y="409"/>
      <point x="416" y="512"/>
      <point x="275" y="512" type="curve" smooth="yes"/>
      <point x="134" y="512"/>
      <point x="30" y="409"/>
      <point x="30" y="250" type="curve" smooth="yes"/>
      <point x="30" y="91"/>
      <point x="134" y="-12"/>
    </contour>
    <contour>
      <point x="275" y="396" type="curve" smooth="yes"/>
      <point x="341" y="396"/>
      <point x="379" y="344"/>
      <point x="379" y="250" type="curve" smooth="yes"/>
      <point x="379" y="156"/>
      <point x="341" y="104"/>
      <point x="275" y="104" type="curve" smooth="yes"/>
      <point x="209" y="104"/>
      <point x="171" y="156"/>
      <point x="171" y="250" type="curve" smooth="yes"/>
      <point x="171" y="344"/>
      <point x="209" y="396"/>
    </contour>
  </outline>
</glyph>
<glyph name="aogonek" format="2">
  <advance width="550"/>
  <unicode hex="0105"/>
  <outline>
    <contour>
      <point x="361" y="100" type="line"/>
      <point x="367" y="14"/>
      <point x="421" y="-7"/>
      <point x="487" y="-7" type="curve" smooth="yes"/>
      <point x="502" y="-7"/>
      <point x="512" y="-6"/>
      <point x="524" y="-4" type="curve"/>
      <point x="524" y="100" type="line"/>
      <point x="521" y="100"/>
      <point x="520" y="100"/>
      <point x="516" y="100" type="curve" smooth="yes"/>
      <point x="499" y="100"/>
      <point x="487" y="108"/>
      <point x="487" y="133" type="curve" smooth="yes"/>
      <point x="487" y="345" type="line" smooth="yes"/>
      <point x="487" y="451"/>
      <point x="417" y="512"/>
      <point x="274" y="512" type="curve" smooth="yes"/>
      <point x="124" y="512"/>
      <point x="62" y="426"/>
      <point x="57" y="349" type="curve"/>
      <point x="195" y="325" type="line"/>
      <point x="196" y="372"/>
      <point x="215" y="405"/>
      <point x="275" y="405" type="curve" smooth="yes"/>
      <point x="331" y="405"/>
      <point x="350" y="379"/>
      <point x="350" y="335" type="curve" smooth="yes"/>
      <point x="350" y="185" type="line" smooth="yes"/>
      <point x="350" y="130"/>
      <point x="302" y="91"/>
      <point x="246" y="91" type="curve" smooth="yes"/>
      <point x="201" y="91"/>
      <point x="176" y="115"/>
      <point x="176" y="148" type="curve" smooth="yes"/>
      <point x="176" y="184"/>
      <point x="203" y="203"/>
      <point x="266" y="210" type="curve" smooth="yes"/>
      <point x="420" y="228" type="line"/>
      <point x="420" y="322" type="line"/>
      <point x="208" y="298" type="line" smooth="yes"/>
      <point x="104" y="286"/>
      <point x="37" y="237"/>
      <point x="37" y="146" type="curve" smooth="yes"/>
      <point x="37" y="49"/>
      <point x="108" y="-12"/>
      <point x="216" y="-12" type="curve" smooth="yes"/>
      <point x="304" y="-12"/>
      <point x="361" y="30"/>
      <point x="396" y="100" type="curve"/>
    </contour>
    <contour>
      <point x="454" y="-207" type="curve" smooth="yes"/>
      <point x="477" y="-207"/>
      <point x="512" y="-204"/>
      <point x="537" y="-197" type="curve"/>
      <point x="537" y="-110" type="line"/>
      <point x="517" y="-115"/>
      <point x="501" y="-118"/>
      <point x="483" y="-118" type="curve" smooth="yes"/>
      <point x="453" y="-118"/>
      <point x="438" y="-108"/>
      <point x="438" y="-89" type="curve" smooth="yes"/>
      <point x="438" y="-60"/>
      <point x="472" y="-34"/>
      <point x="524" y="-4" type="curve"/>
      <point x="432" y="13" type="line"/>
      <point x="399" y="-4"/>
      <point x="325" y="-49"/>
      <point x="325" y="-120" type="curve" smooth="yes"/>
      <point x="325" y="-174"/>
      <point x="369" y="-207"/>
    </contour>
  </outline>
</glyph>
<glyph name="eogonek" format="2">
  <advance width="550"/>
  <unicode hex="0119"/>
  <outline>
    <contour>
      <point x="300" y="-203" type="curve" smooth="yes"/>
      <point x="323" y="-203"/>
      <point x="358" y="-200"/>
      <point x="383" y="-193" type="curve"/>
      <point x="383" y="-106" type="line"/>
      <point x="363" y="-111"/>
      <point x="347" y="-114"/>
      <point x="329" y="-114" type="curve" smooth="yes"/>
      <point x="299" y="-114"/>
      <point x="284" y="-104"/>
      <point x="284" y="-85" type="curve" smooth="yes"/>
      <point x="284" y="-56"/>
      <point x="317" y="-21"/>
      <point x="372" y="-1" type="curve" smooth="yes"/>
      <point x="440" y="24"/>
      <point x="492" y="73"/>
      <point x="510" y="138" type="curve"/>
      <point x="384" y="172" type="line"/>
      <point x="367" y="124"/>
      <point x="336" y="98"/>
      <point x="287" y="98" type="curve" smooth="yes"/>
      <point x="227" y="98"/>
      <point x="190" y="131"/>
      <point x="179" y="204" type="curve"/>
      <point x="517" y="204" type="line"/>
      <point x="517" y="245" type="line" smooth="yes"/>
      <point x="517" y="404"/>
      <point x="427" y="512"/>
      <point x="286" y="512" type="curve" smooth="yes"/>
      <point x="141" y="512"/>
      <point x="36" y="409"/>
      <point x="36" y="250" type="curve" smooth="yes"/>
      <point x="36" y="96"/>
      <point x="133" y="-5"/>
      <point x="273" y="-12" type="curve" smooth="yes"/>
      <point x="277" y="-12"/>
      <point x="282" y="-12"/>
      <point x="286" y="-12" type="curve"/>
      <point x="270" y="11" type="line"/>
      <point x="232" y="-7"/>
      <point x="171" y="-52"/>
      <point x="171" y="-116" type="curve" smooth="yes"/>
      <point x="171" y="-170"/>
      <point x="215" y="-203"/>
    </contour>
    <contour>
      <point x="286" y="400" type="curve" smooth="yes"/>
      <point x="335" y="400"/>
      <point x="364" y="369"/>
      <point x="375" y="308" type="curve"/>
      <point x="182" y="308" type="line"/>
      <point x="196" y="370"/>
      <point x="233" y="400"/>
    </contour>
  </outline>
</glyph>
<glyph name="Hbar" format="2">
  <advance width="760"/>
  <unicode hex="0126"/>
  <outline>
    <contour>
      <point x="17" y="500" type="line"/>
      <point x="743" y="500" type="line"/>
      <point x="743" y="608" type="line"/>
      <point x="17" y="608" type="line"/>
    </contour>
    <contour>
      <point x="142" y="279" type="line"/>
      <point x="619" y="279" type="line"/>
      <point x="619" y="403" type="line"/>
      <point x="142" y="403" type="line"/>
    </contour>
    <contour>
      <point x="530" y="700" type="line"/>
      <point x="530" y="0" type="line"/>
      <point x="681" y="0" type="line"/>
      <point x="681" y="700" type="line"/>
    </contour>
    <contour>
      <point x="79" y="700" type="line"/>
      <point x="79" y="0" type="line"/>
      <point x="230" y="0" type="line"/>
      <point x="230" y="700" type="line"/>
    </contour>
  </outline>
</glyph>
<glyph name="itilde" format="2">
  <advance width="300"/>
  <unicode hex="0129"/>
  <outline>
    <contour>
      <point x="87" y="694" type="curve" smooth="yes"/>
      <point x="30" y="694"/>
      <point x="-7" y="646"/>
      <point x="-10" y="564" type="curve"/>
      <point x="80" y="564" type="line"/>
      <point x="82" y="584"/>
      <point x="87" y="598"/>
      <point x="102" y="598" type="curve" smooth="yes"/>
      <point x="124" y="598"/>
      <point x="173" y="569"/>
      <point x="213" y="569" type="curve" smooth="yes"/>
      <point x="270" y="569"/>
      <point x="307" y="617"/>
      <point x="310" y="699" type="curve"/>
      <point x="219" y="699" type="line"/>
      <point x="217" y="679"/>
      <point x="213" y="665"/>
      <point x="198" y="665" type="curve" smooth="yes"/>
      <point x="176" y="665"/>
      <point x="127" y="694"/>
    </contour>
    <component base="dotlessi" identifier="0ECB3A36"/>
  </outline>
</glyph>
<glyph name="imacron" format="2">
  <advance width="300"/>
  <unicode hex="012B"/>
  <outline>
    <contour>
      <point x="-5" y="587" type="line"/>
      <point x="305" y="587" type="line"/>
      <point x="305" y="688" type="line"/>
      <point x="-5" y="688" type="line"/>
    </contour>
    <component base="dotlessi" identifier="296372B3"/>
  </outline>
</glyph>
<glyph name="ibreve" format="2">
  <advance width="300"/>
  <unicode hex="012D"/>
  <outline>
    <contour>
      <point x="-8" y="700" type="line"/>
      <point x="-8" y="629"/>
      <point x="44" y="559"/>
      <point x="150" y="559" type="curve" smooth="yes"/>
      <point x="256" y="559"/>
      <point x="308" y="629"/>
      <point x="308" y="700" type="curve"/>
      <point x="201" y="700" type="line"/>
      <point x="201" y="670"/>
      <point x="183" y="648"/>
      <point x="150" y="648" type="curve" smooth="yes"/>
      <point x="117" y="648"/>
      <point x="99" y="670"/>
      <point x="99" y="700" type="curve"/>
    </contour>
    <component base="dotlessi" identifier="83BD28D0"/>
  </outline>
</glyph>
<glyph name="dotlessi" format="2">
  <advance width="300"/>
  <unicode hex="0131"/>
  <outline>
    <contour>
      <point x="80" y="500" type="line"/>
      <point x="80" y="393" type="line"/>
      <point x="220" y="393" type="line"/>
      <point x="220" y="500" type="line"/>
    </contour>
    <contour>
      <point x="80" y="107" type="line"/>
      <point x="80" y="0" type="line"/>
      <point x="220" y="0" type="line"/>
      <point x="220" y="107" type="line"/>
    </contour>
    <contour>
      <point x="80" y="500" type="line"/>
      <point x="80" y="0" type="line"/>
      <point x="220" y="0" type="line"/>
      <point x="220" y="500" type="line"/>
    </contour>
  </outline>
</glyph>
<glyph name="ij" format="2">
  <advance width="500"/>
  <unicode hex="0133"/>
  <outline>
    <contour>
      <point x="53" y="700" type="line"/>
      <point x="53" y="564" type="line"/>
      <point x="197" y="564" type="line"/>
      <point x="197" y="700" type="line"/>
    </contour>
    <contour>
      <point x="55" y="500" type="line"/>
      <point x="55" y="0" type="line"/>
      <point x="195" y="0" type="line"/>
      <point x="195" y="500" type="line"/>
    </contour>
    <contour>
      <point x="55" y="0" type="line"/>
      <point x="195" y="0" type="line"/>
      <point x="195" y="107" type="line"/>
      <point x="55" y="107" type="line"/>
    </contour>
    <contour>
      <point x="55" y="393" type="line"/>
      <point x="195" y="393" type="line"/>
      <point x="195" y="500" type="line"/>
      <point x="55" y="500" type="line"/>
    </contour>
    <contour>
      <point x="215" y="-182" type="line"/>
      <point x="232" y="-187"/>
      <point x="265" y="-190"/>
      <point x="292" y="-190" type="curve" smooth="yes"/>
      <point x="364" y="-190"/>
      <point x="445" y="-162"/>
      <point x="445" y="-63" type="curve" smooth="yes"/>
      <point x="445" y="500" type="line"/>
      <point x="305" y="500" type="line"/>
      <point x="305" y="-35" type="line" smooth="yes"/>
      <point x="305" y="-68"/>
      <point x="291" y="-81"/>
      <point x="255" y="-81" type="curve" smooth="yes"/>
      <point x="244" y="-81"/>
      <point x="233" y="-80"/>
      <point x="215" y="-78" type="curve"/>
    </contour>
    <contour>
      <point x="305" y="393" type="line"/>
      <point x="445" y="393" type="line"/>
      <point x="445" y="500" type="line"/>
      <point x="305" y="500" type="line"/>
    </contour>
    <contour>
      <point x="303" y="700" type="line"/>
      <point x="303" y="564" type="line"/>
      <point x="447" y="564" type="line"/>
      <point x="447" y="700" type="line"/>
    </contour>
  </outline>
</glyph>
<glyph name="Ldot" format="2">
  <advance width="600"/>
  <unicode hex="013F"/>
  <outline>
    <contour>
      <point x="390" y="485" type="line"/>
      <point x="390" y="336" type="line"/>
      <point x="537" y="336" type="line"/>
      <point x="537" y="485" type="line"/>
    </contour>
    <component base="L" identifier="C8353AEC"/>
  </outline>
</glyph>
<glyph name="ldot" format="2">
  <advance width="300"/>
  <unicode hex="0140"/>
  <outline>
    <contour>
      <point x="228" y="446" type="line"/>
      <point x="228" y="303" type="line"/>
      <point x="348" y="303" type="line"/>
      <point x="348" y="446" type="line"/>
    </contour>
    <component base="l" xOffset="-25" identifier="A1273491"/>
  </outline>
</glyph>
<glyph name="eng" format="2">
  <advance width="550"/>
  <unicode hex="014B"/>
  <outline>
    <contour>
      <point x="52" y="500" type="line"/>
      <point x="52" y="0" type="line"/>
      <point x="192" y="0" type="line"/>
      <point x="192" y="290" type="line" smooth="yes"/>
      <point x="192" y="350"/>
      <point x="227" y="391"/>
      <point x="283" y="391" type="curve" smooth="yes"/>
      <point x="339" y="391"/>
      <point x="361" y="350"/>
      <point x="361" y="299" type="curve" smooth="yes"/>
      <point x="361" y="0" type="line"/>
      <point x="501" y="0" type="line"/>
      <point x="501" y="335" type="line" smooth="yes"/>
      <point x="501" y="443"/>
      <point x="439" y="512"/>
      <point x="338" y="512" type="curve" smooth="yes"/>
      <point x="252" y="512"/>
      <point x="197" y="459"/>
      <point x="169" y="402" type="curve"/>
      <point x="192" y="402" type="line"/>
      <point x="192" y="500" type="line"/>
    </contour>
    <contour>
      <point x="293" y="-183" type="line"/>
      <point x="306" y="-187"/>
      <point x="335" y="-190"/>
      <point x="358" y="-190" type="curve" smooth="yes"/>
      <point x="425" y="-190"/>
      <point x="501" y="-164"/>
      <point x="501" y="-71" type="curve" smooth="yes"/>
      <point x="501" y="100" type="line"/>
      <point x="361" y="100" type="line"/>
      <point x="361" y="-35" type="line" smooth="yes"/>
      <point x="361" y="-68"/>
      <point x="350" y="-81"/>
      <point x="321" y="-81" type="curve" smooth="yes"/>
      <point x="313" y="-81"/>
      <point x="305" y="-80"/>
      <point x="293" y="-79" type="curve"/>
    </contour>
  </outline>
</glyph>
<glyph name="OE" format="2">
  <advance width="760"/>
  <unicode hex="0152"/>
  <outline>
    <contour>
      <point x="395" y="700" type="line"/>
      <point x="395" y="0" type="line"/>
      <point x="512" y="0" type="line"/>
      <point x="512" y="700" type="line"/>
    </contour>
    <contour>
      <point x="435" y="576" type="line"/>
      <point x="714" y="576" type="line"/>
      <point x="714" y="700" type="line"/>
      <point x="435" y="700" type="line"/>
    </contour>
    <contour>
      <point x="435" y="294" type="line"/>
      <point x="644" y="294" type="line"/>
      <point x="644" y="417" type="line"/>
      <point x="435" y="417" type="line"/>
    </contour>
    <contour>
      <point x="435" y="0" type="line"/>
      <point x="728" y="0" type="line"/>
      <point x="728" y="124" type="line"/>
      <point x="435" y="124" type="line"/>
    </contour>
    <contour>
      <point x="257" y="712" type="curve" smooth="yes"/>
      <point x="141" y="712"/>
      <point x="39" y="610"/>
      <point x="39" y="350" type="curve" smooth="yes"/>
      <point x="39" y="90"/>
      <point x="141" y="-12"/>
      <point x="257" y="-12" type="curve" smooth="yes"/>
      <point x="396" y="-12"/>
      <point x="444" y="135"/>
      <point x="444" y="350" type="curve" smooth="yes"/>
      <point x="444" y="565"/>
      <point x="396" y="712"/>
    </contour>
    <contour>
      <point x="279" y="112" type="curve" smooth="yes"/>
      <point x="221" y="112"/>
      <point x="173" y="167"/>
      <point x="173" y="350" type="curve" smooth="yes"/>
      <point x="173" y="533"/>
      <point x="221" y="588"/>
      <point x="279" y="588" type="curve" smooth="yes"/>
      <point x="337" y="588"/>
      <point x="386" y="533"/>
      <point x="386" y="350" type="curve" smooth="yes"/>
      <point x="386" y="167"/>
      <point x="337" y="112"/>
    </contour>
  </outline>
</glyph>
<glyph name="oe" format="2">
  <advance width="760"/>
  <unicode hex="0153"/>
  <outline>
    <contour>
      <point x="536" y="-12" type="curve" smooth="yes"/>
      <point x="617" y="-12"/>
      <point x="693" y="38"/>
      <point x="720" y="137" type="curve"/>
      <point x="598" y="168" type="line"/>
      <point x="586" y="117"/>
      <point x="561" y="98"/>
      <point x="525" y="98" type="curve" smooth="yes"/>
      <point x="479" y="98"/>
      <point x="448" y="129"/>
      <point x="448" y="250" type="curve" smooth="yes"/>
      <point x="448" y="365"/>
      <point x="481" y="400"/>
      <point x="526" y="400" type="curve" smooth="yes"/>
      <point x="571" y="400"/>
      <point x="602" y="367"/>
      <point x="600" y="252" type="curve"/>
      <point x="660" y="308" type="line"/>
      <point x="372" y="308" type="line"/>
      <point x="372" y="205" type="line"/>
      <point x="725" y="205" type="line"/>
      <point x="725" y="251" type="line" smooth="yes"/>
      <point x="725" y="422"/>
      <point x="648" y="512"/>
      <point x="533" y="512" type="curve" smooth="yes"/>
      <point x="409" y="512"/>
      <point x="340" y="411"/>
      <point x="340" y="252" type="curve" smooth="yes"/>
      <point x="340" y="81"/>
      <point x="409" y="-12"/>
    </contour>
    <contour>
      <point x="237" y="-12" type="curve" smooth="yes"/>
      <point x="353" y="-12"/>
      <point x="430" y="79"/>
      <point x="430" y="250" type="curve" smooth="yes"/>
      <point x="430" y="421"/>
      <point x="353" y="512"/>
      <point x="237" y="512" type="curve" smooth="yes"/>
      <point x="124" y="512"/>
      <point x="32" y="434"/>
      <point x="32" y="250" type="curve" smooth="yes"/>
      <point x="32" y="66"/>
      <point x="124" y="-12"/>
    </contour>
    <contour>
      <point x="238" y="398" type="curve" smooth="yes"/>
      <point x="286" y="398"/>
      <point x="316" y="357"/>
      <point x="316" y="250" type="curve" smooth="yes"/>
      <point x="316" y="143"/>
      <point x="286" y="100"/>
      <point x="238" y="100" type="curve" smooth="yes"/>
      <point x="190" y="100"/>
      <point x="160" y="143"/>
      <point x="160" y="250" type="curve" smooth="yes"/>
      <point x="160" y="357"/>
      <point x="190" y="398"/>
    </contour>
  </outline>
</glyph>
<glyph name="tbar" format="2">
  <advance width="450"/>
  <unicode hex="0167"/>
  <outline>
    <contour>
      <point x="17" y="223" type="line"/>
      <point x="410" y="223" type="line"/>
      <point x="410" y="330" type="line"/>
      <point x="17" y="330" type="line"/>
    </contour>
    <component base="t" identifier="FD8F71AE"/>
  </outline>
</glyph>
<glyph name="uogonek" format="2">
  <advance width="550"/>
  <unicode hex="0173"/>
  <outline>
    <contour>
      <point x="49" y="165" type="line" smooth="yes"/>
      <point x="49" y="57"/>
      <point x="111" y="-12"/>
      <point x="212" y="-12" type="curve" smooth="yes"/>
      <point x="298" y="-12"/>
      <point x="353" y="41"/>
      <point x="381" y="98" type="curve"/>
      <point x="358" y="98" type="line"/>
      <point x="358" y="-30" type="line"/>
      <point x="498" y="0" type="line"/>
      <point x="498" y="500" type="line"/>
      <point x="358" y="500" type="line"/>
      <point x="358" y="210" type="line" smooth="yes"/>
      <point x="358" y="150"/>
      <point x="323" y="109"/>
      <point x="267" y="109" type="curve" smooth="yes"/>
      <point x="211" y="109"/>
      <point x="189" y="150"/>
      <point x="189" y="201" type="curve" smooth="yes"/>
      <point x="189" y="500" type="line"/>
      <point x="49" y="500" type="line"/>
    </contour>
    <contour>
      <point x="299" y="-116" type="curve" smooth="yes"/>
      <point x="299" y="-170"/>
      <point x="343" y="-203"/>
      <point x="428" y="-203" type="curve" smooth="yes"/>
      <point x="451" y="-203"/>
      <point x="486" y="-200"/>
      <point x="511" y="-193" type="curve"/>
      <point x="511" y="-106" type="line"/>
      <point x="491" y="-111"/>
      <point x="475" y="-114"/>
      <point x="457" y="-114" type="curve" smooth="yes"/>
      <point x="427" y="-114"/>
      <point x="412" y="-104"/>
      <point x="412" y="-85" type="curve" smooth="yes"/>
      <point x="412" y="-56"/>
      <point x="446" y="-30"/>
      <point x="498" y="0" type="curve"/>
      <point x="377" y="0" type="line"/>
      <point x="342" y="-23"/>
      <point x="299" y="-62"/>
    </contour>
  </outline>
</glyph>
<glyph name="fhook" format="2">
  <advance width="500"/>
  <unicode hex="0192"/>
  <outline>
    <contour>
      <point x="102" y="366" type="line"/>
      <point x="444" y="366" type="line"/>
      <point x="444" y="470" type="line"/>
      <point x="102" y="470" type="line"/>
    </contour>
    <contour>
      <point x="274" y="149" type="curve" smooth="yes"/>
      <point x="367" y="542" type="line" smooth="yes"/>
      <point x="377" y="583"/>
      <point x="399" y="600"/>
      <point x="440" y="600" type="curve" smooth="yes"/>
      <point x="450" y="600"/>
      <point x="466" y="599"/>
      <point x="482" y="597" type="curve"/>
      <point x="482" y="708" type="line"/>
      <point x="461" y="711"/>
      <point x="438" y="712"/>
      <point x="423" y="712" type="curve" smooth="yes"/>
      <point x="317" y="712"/>
      <point x="254" y="663"/>
      <point x="228" y="554" type="curve" smooth="yes"/>
      <point x="135" y="158" type="line" smooth="yes"/>
      <point x="126" y="118"/>
      <point x="108" y="100"/>
      <point x="61" y="100" type="curve" smooth="yes"/>
      <point x="49" y="100"/>
      <point x="38" y="101"/>
      <point x="19" y="104" type="curve"/>
      <point x="19" y="-7" type="line"/>
      <point x="36" y="-10"/>
      <point x="58" y="-12"/>
      <point x="79" y="-12" type="curve" smooth="yes"/>
      <point x="177" y="-12"/>
      <point x="247" y="36"/>
    </contour>
  </outline>
</glyph>
<glyph name="Khook" format="2">
  <advance width="680"/>
  <unicode hex="0198"/>
  <outline>
    <contour>
      <point x="58" y="700" type="line"/>
      <point x="58" y="0" type="line"/>
      <point x="206" y="0" type="line"/>
      <point x="206" y="700" type="line"/>
    </contour>
    <contour>
      <point x="237" y="340" type="line"/>
      <point x="472" y="0" type="line"/>
      <point x="644" y="0" type="line"/>
      <point x="338" y="443" type="line"/>
    </contour>
    <contour>
      <point x="571" y="581" type="curve" smooth="yes"/>
      <point x="593" y="581"/>
      <point x="609" y="575"/>
      <point x="628" y="566" type="curve"/>
      <point x="632" y="694" type="line"/>
      <point x="607" y="706"/>
      <point x="581" y="712"/>
      <point x="550" y="712" type="curve" smooth="yes"/>
      <point x="491" y="712"/>
      <point x="443" y="688"/>
      <point x="391" y="625" type="curve" smooth="yes"/>
      <point x="128" y="310" type="line"/>
      <point x="138" y="134" type="line"/>
      <point x="306" y="331" type="line"/>
      <point x="341" y="359" type="line"/>
      <point x="495" y="541" type="line" smooth="yes"/>
      <point x="521" y="571"/>
      <point x="545" y="581"/>
    </contour>
  </outline>
</glyph>
<glyph name="khook" format="2">
  <advance width="550"/>
  <unicode hex="0199"/>
  <outline>
    <contour>
      <point x="138" y="254" type="line"/>
      <point x="138" y="98" type="line"/>
      <point x="289" y="253" type="line"/>
      <point x="326" y="275" type="line"/>
      <point x="545" y="500" type="line"/>
      <point x="376" y="500" type="line"/>
    </contour>
    <contour>
      <point x="211" y="264" type="line"/>
      <point x="394" y="0" type="line"/>
      <point x="553" y="0" type="line"/>
      <point x="312" y="348" type="line"/>
    </contour>
    <contour>
      <point x="202" y="537" type="line" smooth="yes"/>
      <point x="202" y="577"/>
      <point x="225" y="596"/>
      <point x="254" y="596" type="curve" smooth="yes"/>
      <point x="272" y="596"/>
      <point x="287" y="592"/>
      <point x="307" y="584" type="curve"/>
      <point x="310" y="689" type="line"/>
      <point x="286" y="699"/>
      <point x="248" y="707"/>
      <point x="211" y="707" type="curve" smooth="yes"/>
      <point x="127" y="707"/>
      <point x="61" y="654"/>
      <point x="61" y="544" type="curve" smooth="yes"/>
      <point x="61" y="0" type="line"/>
      <point x="202" y="0" type="line"/>
    </contour>
  </outline>
</glyph>
<glyph name="Nhookleft" format="2">
  <advance width="760"/>
  <unicode hex="019D"/>
  <outline>
    <contour>
      <point x="608" y="118" type="line"/>
      <point x="273" y="700" type="line"/>
      <point x="75" y="700" type="line"/>
      <point x="75" y="0" type="line"/>
      <point x="221" y="0" type="line"/>
      <point x="221" y="580" type="line"/>
      <point x="184" y="580" type="line"/>
      <point x="519" y="0" type="line"/>
      <point x="685" y="0" type="line"/>
      <point x="685" y="700" type="line"/>
      <point x="540" y="700" type="line"/>
      <point x="540" y="118" type="line"/>
    </contour>
    <contour>
      <point x="-1" y="-77" type="curve" smooth="yes"/>
      <point x="-11" y="-77"/>
      <point x="-28" y="-76"/>
      <point x="-45" y="-71" type="curve"/>
      <point x="-45" y="-183" type="line"/>
      <point x="-21" y="-188"/>
      <point x="5" y="-192"/>
      <point x="37" y="-192" type="curve" smooth="yes"/>
      <point x="153" y="-192"/>
      <point x="221" y="-136"/>
      <point x="221" y="-25" type="curve" smooth="yes"/>
      <point x="221" y="80" type="line"/>
      <point x="75" y="80" type="line"/>
      <point x="75" y="-13" type="line" smooth="yes"/>
      <point x="75" y="-59"/>
      <point x="39" y="-77"/>
    </contour>
  </outline>
</glyph>
<glyph name="Uhorn" format="2">
  <advance width="760"/>
  <unicode hex="01AF"/>
  <outline>
    <contour>
      <point x="76" y="269" type="line" smooth="yes"/>
      <point x="76" y="100"/>
      <point x="187" y="-12"/>
      <point x="381" y="-12" type="curve" smooth="yes"/>
      <point x="575" y="-12"/>
      <point x="684" y="100"/>
      <point x="684" y="269" type="curve" smooth="yes"/>
      <point x="684" y="700" type="line"/>
      <point x="539" y="700" type="line"/>
      <point x="539" y="277" type="line" smooth="yes"/>
      <point x="539" y="181"/>
      <point x="480" y="117"/>
      <point x="381" y="117" type="curve" smooth="yes"/>
      <point x="282" y="117"/>
      <point x="222" y="181"/>
      <point x="222" y="277" type="curve" smooth="yes"/>
      <point x="222" y="700" type="line"/>
      <point x="76" y="700" type="line"/>
    </contour>
    <component base="horncmb.uc" xOffset="406" identifier="CCAFD0C9"/>
  </outline>
</glyph>
<glyph name="yhook" format="2">
  <advance width="550"/>
  <unicode hex="01B4"/>
  <outline>
    <contour>
      <point x="8" y="500" type="line"/>
      <point x="235" y="-61" type="line"/>
      <point x="312" y="116" type="line"/>
      <point x="161" y="500" type="line"/>
    </contour>
    <contour>
      <point x="480" y="338" type="line" smooth="yes"/>
      <point x="496" y="377"/>
      <point x="515" y="396"/>
      <point x="541" y="396" type="curve" smooth="yes"/>
      <point x="549" y="396"/>
      <point x="561" y="394"/>
      <point x="570" y="390" type="curve"/>
      <point x="573" y="498" type="line"/>
      <point x="548" y="508"/>
      <point x="522" y="512"/>
      <point x="501" y="512" type="curve" smooth="yes"/>
      <point x="428" y="512"/>
      <point x="382" y="466"/>
      <point x="353" y="391" type="curve" smooth="yes"/>
      <point x="226" y="58" type="line"/>
      <point x="210" y="32" type="line"/>
      <point x="118" y="-180" type="line"/>
      <point x="271" y="-180" type="line"/>
    </contour>
  </outline>
</glyph>
<glyph name="Icaron" format="2">
  <advance width="300"/>
  <unicode hex="01CF"/>
  <outline>
    <contour>
      <point x="-40" y="892" type="line"/>
      <point x="80" y="760" type="line"/>
      <point x="220" y="760" type="line"/>
      <point x="340" y="892" type="line"/>
      <point x="218" y="892" type="line"/>
      <point x="97" y="804" type="line"/>
      <point x="203" y="804" type="line"/>
      <point x="82" y="892" type="line"/>
    </contour>
    <component base="I" identifier="9118010E"/>
  </outline>
</glyph>
<glyph name="icaron" format="2">
  <advance width="300"/>
  <unicode hex="01D0"/>
  <outline>
    <contour>
      <point x="83" y="564" type="line"/>
      <point x="217" y="564" type="line"/>
      <point x="327" y="700" type="line"/>
      <point x="213" y="700" type="line"/>
      <point x="97" y="602" type="line"/>
      <point x="203" y="602" type="line"/>
      <point x="87" y="700" type="line"/>
      <point x="-27" y="700" type="line"/>
    </contour>
    <component base="dotlessi" identifier="CDF23782"/>
  </outline>
</glyph>
<glyph name="eturned" format="2">
  <advance width="550"/>
  <unicode hex="01DD"/>
  <outline>
    <contour>
      <point x="271" y="512" type="curve" smooth="yes"/>
      <point x="161" y="512"/>
      <point x="70" y="450"/>
      <point x="42" y="362" type="curve"/>
      <point x="172" y="328" type="line"/>
      <point x="190" y="376"/>
      <point x="225" y="400"/>
      <point x="271" y="400" type="curve" smooth="yes"/>
      <point x="340" y="400"/>
      <point x="381" y="355"/>
      <point x="381" y="250" type="curve" smooth="yes"/>
      <point x="381" y="149"/>
      <point x="339" y="102"/>
      <point x="272" y="102" type="curve" smooth="yes"/>
      <point x="210" y="102"/>
      <point x="176" y="150"/>
      <point x="176" y="248" type="curve"/>
      <point x="120" y="192" type="line"/>
      <point x="453" y="192" type="line"/>
      <point x="453" y="296" type="line"/>
      <point x="35" y="296" type="line"/>
      <point x="35" y="255" type="line" smooth="yes"/>
      <point x="35" y="96"/>
      <point x="130" y="-12"/>
      <point x="272" y="-12" type="curve" smooth="yes"/>
      <point x="418" y="-12"/>
      <point x="521" y="91"/>
      <point x="521" y="250" type="curve" smooth="yes"/>
      <point x="521" y="409"/>
      <point x="418" y="512"/>
    </contour>
  </outline>
</glyph>
<glyph name="Oogonek" format="2">
  <advance width="760"/>
  <unicode hex="01EA"/>
  <outline>
    <contour>
      <point x="403" y="-203" type="curve" smooth="yes"/>
      <point x="426" y="-203"/>
      <point x="461" y="-200"/>
      <point x="486" y="-193" type="curve"/>
      <point x="486" y="-106" type="line"/>
      <point x="466" y="-111"/>
      <point x="450" y="-114"/>
      <point x="432" y="-114" type="curve" smooth="yes"/>
      <point x="402" y="-114"/>
      <point x="387" y="-104"/>
      <point x="387" y="-85" type="curve" smooth="yes"/>
      <point x="387" y="-56"/>
      <point x="423" y="-19"/>
      <point x="479" y="0" type="curve" smooth="yes"/>
      <point x="624" y="49"/>
      <point x="719" y="169"/>
      <point x="719" y="350" type="curve" smooth="yes"/>
      <point x="719" y="566"/>
      <point x="578" y="712"/>
      <point x="380" y="712" type="curve" smooth="yes"/>
      <point x="182" y="712"/>
      <point x="41" y="566"/>
      <point x="41" y="350" type="curve" smooth="yes"/>
      <point x="41" y="134"/>
      <point x="181" y="-12"/>
      <point x="380" y="-12" type="curve" smooth="yes"/>
      <point x="382" y="-12"/>
      <point x="384" y="-12"/>
      <point x="386" y="-12" type="curve"/>
      <point x="369" y="9" type="line"/>
      <point x="334" y="-9"/>
      <point x="274" y="-52"/>
      <point x="274" y="-116" type="curve" smooth="yes"/>
      <point x="274" y="-170"/>
      <point x="318" y="-203"/>
    </contour>
    <contour>
      <point x="380" y="116" type="curve" smooth="yes"/>
      <point x="272" y="116"/>
      <point x="196" y="200"/>
      <point x="196" y="350" type="curve" smooth="yes"/>
      <point x="196" y="500"/>
      <point x="272" y="584"/>
      <point x="380" y="584" type="curve" smooth="yes"/>
      <point x="488" y="584"/>
      <point x="564" y="500"/>
      <point x="564" y="350" type="curve" smooth="yes"/>
      <point x="564" y="200"/>
      <point x="488" y="116"/>
    </contour>
  </outline>
</glyph>
<glyph name="oogonek" format="2">
  <advance width="550"/>
  <unicode hex="01EB"/>
  <outline>
    <contour>
      <point x="284" y="-203" type="curve" smooth="yes"/>
      <point x="307" y="-203"/>
      <point x="342" y="-200"/>
      <point x="367" y="-193" type="curve"/>
      <point x="367" y="-106" type="line"/>
      <point x="347" y="-111"/>
      <point x="331" y="-114"/>
      <point x="313" y="-114" type="curve" smooth="yes"/>
      <point x="283" y="-114"/>
      <point x="268" y="-104"/>
      <point x="268" y="-85" type="curve" smooth="yes"/>
      <point x="268" y="-56"/>
      <point x="301" y="-25"/>
      <point x="356" y="-3" type="curve" smooth="yes"/>
      <point x="453" y="36"/>
      <point x="520" y="122"/>
      <point x="520" y="250" type="curve" smooth="yes"/>
      <point x="520" y="409"/>
      <point x="416" y="512"/>
      <point x="275" y="512" type="curve" smooth="yes"/>
      <point x="134" y="512"/>
      <point x="30" y="409"/>
      <point x="30" y="250" type="curve" smooth="yes"/>
      <point x="30" y="97"/>
      <point x="126" y="-4"/>
      <point x="258" y="-12" type="curve" smooth="yes"/>
      <point x="262" y="-12"/>
      <point x="265" y="-12"/>
      <point x="269" y="-12" type="curve"/>
      <point x="254" y="13" type="line"/>
      <point x="218" y="-8"/>
      <point x="155" y="-50"/>
      <point x="155" y="-116" type="curve" smooth="yes"/>
      <point x="155" y="-170"/>
      <point x="199" y="-203"/>
    </contour>
    <contour>
      <point x="275" y="396" type="curve" smooth="yes"/>
      <point x="341" y="396"/>
      <point x="379" y="344"/>
      <point x="379" y="250" type="curve" smooth="yes"/>
      <point x="379" y="156"/>
      <point x="341" y="104"/>
      <point x="275" y="104" type="curve" smooth="yes"/>
      <point x="209" y="104"/>
      <point x="171" y="156"/>
      <point x="171" y="250" type="curve" smooth="yes"/>
      <point x="171" y="344"/>
      <point x="209" y="396"/>
    </contour>
  </outline>
</glyph>
<glyph name="dotlessj" format="2">
  <advance width="300"/>
  <unicode hex="0237"/>
  <outline>
    <contour>
      <point x="12" y="-183" type="line"/>
      <point x="25" y="-187"/>
      <point x="54" y="-190"/>
      <point x="77" y="-190" type="curve" smooth="yes"/>
      <point x="144" y="-190"/>
      <point x="220" y="-164"/>
      <point x="220" y="-71" type="curve" smooth="yes"/>
      <point x="220" y="500" type="line"/>
      <point x="80" y="500" type="line"/>
      <point x="80" y="-35" type="line" smooth="yes"/>
      <point x="80" y="-68"/>
      <point x="69" y="-81"/>
      <point x="40" y="-81" type="curve" smooth="yes"/>
      <point x="32" y="-81"/>
      <point x="24" y="-80"/>
      <point x="12" y="-79" type="curve"/>
    </contour>
    <contour>
      <point x="80" y="393" type="line"/>
      <point x="220" y="393" type="line"/>
      <point x="220" y="500" type="line"/>
      <point x="80" y="500" type="line"/>
    </contour>
  </outline>
</glyph>
<glyph name="bhook" format="2">
  <advance width="600"/>
  <unicode hex="0253"/>
  <outline>
    <contour>
      <point x="308" y="104" type="curve" smooth="yes"/>
      <point x="239" y="104"/>
      <point x="193" y="154"/>
      <point x="193" y="250" type="curve" smooth="yes"/>
      <point x="193" y="346"/>
      <point x="239" y="396"/>
      <point x="308" y="396" type="curve" smooth="yes"/>
      <point x="377" y="396"/>
      <point x="423" y="346"/>
      <point x="423" y="250" type="curve" smooth="yes"/>
      <point x="423" y="154"/>
      <point x="377" y="104"/>
    </contour>
    <contour>
      <point x="59" y="544" type="curve" smooth="yes"/>
      <point x="59" y="0" type="line"/>
      <point x="199" y="0" type="line"/>
      <point x="199" y="119" type="line"/>
      <point x="166" y="119" type="line"/>
      <point x="197" y="38"/>
      <point x="265" y="-12"/>
      <point x="353" y="-12" type="curve" smooth="yes"/>
      <point x="464" y="-12"/>
      <point x="564" y="76"/>
      <point x="564" y="249" type="curve" smooth="yes"/>
      <point x="564" y="421"/>
      <point x="464" y="512"/>
      <point x="353" y="512" type="curve" smooth="yes"/>
      <point x="265" y="512"/>
      <point x="197" y="460"/>
      <point x="166" y="379" type="curve"/>
      <point x="199" y="379" type="line"/>
      <point x="199" y="537" type="line" smooth="yes"/>
      <point x="199" y="577"/>
      <point x="223" y="596"/>
      <point x="252" y="596" type="curve" smooth="yes"/>
      <point x="270" y="596"/>
      <point x="285" y="592"/>
      <point x="305" y="584" type="curve"/>
      <point x="308" y="689" type="line"/>
      <point x="284" y="699"/>
      <point x="246" y="707"/>
      <point x="209" y="707" type="curve" smooth="yes"/>
      <point x="125" y="707"/>
      <point x="59" y="654"/>
    </contour>
  </outline>
</glyph>
<glyph name="oopen" format="2">
  <advance width="550"/>
  <unicode hex="0254"/>
  <outline>
    <contour>
      <point x="37" y="147" type="line"/>
      <point x="61" y="47"/>
      <point x="151" y="-12"/>
      <point x="263" y="-12" type="curve" smooth="yes"/>
      <point x="413" y="-12"/>
      <point x="515" y="91"/>
      <point x="515" y="250" type="curve" smooth="yes"/>
      <point x="515" y="409"/>
      <point x="413" y="512"/>
      <point x="263" y="512" type="curve" smooth="yes"/>
      <point x="151" y="512"/>
      <point x="61" y="448"/>
      <point x="37" y="351" type="curve"/>
      <point x="171" y="316" type="line"/>
      <point x="182" y="379"/>
      <point x="224" y="398"/>
      <point x="263" y="398" type="curve" smooth="yes"/>
      <point x="331" y="398"/>
      <point x="374" y="351"/>
      <point x="374" y="250" type="curve" smooth="yes"/>
      <point x="374" y="149"/>
      <point x="331" y="102"/>
      <point x="263" y="102" type="curve" smooth="yes"/>
      <point x="224" y="102"/>
      <point x="184" y="121"/>
      <point x="171" y="182" type="curve"/>
    </contour>
  </outline>
</glyph>
<glyph name="eopen" format="2">
  <advance width="500"/>
  <unicode hex="025B"/>
  <outline>
    <contour>
      <point x="486" y="161" type="curve"/>
      <point x="347" y="155" type="line"/>
      <point x="344" y="116"/>
      <point x="326" y="88"/>
      <point x="256" y="88" type="curve" smooth="yes"/>
      <point x="189" y="88"/>
      <point x="165" y="119"/>
      <point x="165" y="150" type="curve" smooth="yes"/>
      <point x="165" y="186"/>
      <point x="199" y="208"/>
      <point x="262" y="208" type="curve" smooth="yes"/>
      <point x="299" y="208" type="line"/>
      <point x="299" y="308" type="line"/>
      <point x="263" y="308" type="line" smooth="yes"/>
      <point x="212" y="308"/>
      <point x="177" y="318"/>
      <point x="177" y="355" type="curve" smooth="yes"/>
      <point x="177" y="385"/>
      <point x="201" y="412"/>
      <point x="256" y="412" type="curve" smooth="yes"/>
      <point x="321" y="412"/>
      <point x="342" y="385"/>
      <point x="342" y="345" type="curve"/>
      <point x="481" y="338" type="line"/>
      <point x="486" y="450"/>
      <point x="399" y="512"/>
      <point x="255" y="512" type="curve" smooth="yes"/>
      <point x="116" y="512"/>
      <point x="36" y="445"/>
      <point x="36" y="363" type="curve" smooth="yes"/>
      <point x="36" y="298"/>
      <point x="91" y="270"/>
      <point x="127" y="258" type="curve"/>
      <point x="127" y="263" type="line"/>
      <point x="73" y="251"/>
      <point x="22" y="212"/>
      <point x="22" y="146" type="curve" smooth="yes"/>
      <point x="22" y="53"/>
      <point x="116" y="-12"/>
      <point x="257" y="-12" type="curve" smooth="yes"/>
      <point x="404" y="-12"/>
      <point x="487" y="43"/>
    </contour>
  </outline>
</glyph>
<glyph name="istroke" format="2">
  <advance width="300"/>
  <unicode hex="0268"/>
  <outline>
    <contour>
      <point x="285" y="251" type="line"/>
      <point x="285" y="345" type="line"/>
      <point x="15" y="345" type="line"/>
      <point x="15" y="251" type="line"/>
    </contour>
    <component base="i" identifier="897B3CF3"/>
  </outline>
</glyph>
<glyph name="nhookleft" format="2">
  <advance width="550"/>
  <unicode hex="0272"/>
  <outline>
    <contour>
      <point x="52" y="500" type="line"/>
      <point x="52" y="0" type="line"/>
      <point x="192" y="0" type="line"/>
      <point x="192" y="290" type="line" smooth="yes"/>
      <point x="192" y="350"/>
      <point x="227" y="391"/>
      <point x="283" y="391" type="curve" smooth="yes"/>
      <point x="339" y="391"/>
      <point x="361" y="350"/>
      <point x="361" y="299" type="curve" smooth="yes"/>
      <point x="361" y="0" type="line"/>
      <point x="501" y="0" type="line"/>
      <point x="501" y="335" type="line" smooth="yes"/>
      <point x="501" y="443"/>
      <point x="439" y="512"/>
      <point x="338" y="512" type="curve" smooth="yes"/>
      <point x="252" y="512"/>
      <point x="197" y="459"/>
      <point x="169" y="402" type="curve"/>
      <point x="192" y="402" type="line"/>
      <point x="192" y="500" type="line"/>
    </contour>
    <contour>
      <point x="-13" y="-183" type="line"/>
      <point x="1" y="-187"/>
      <point x="26" y="-190"/>
      <point x="49" y="-190" type="curve" smooth="yes"/>
      <point x="116" y="-190"/>
      <point x="192" y="-164"/>
      <point x="192" y="-71" type="curve" smooth="yes"/>
      <point x="192" y="100" type="line"/>
      <point x="52" y="100" type="line"/>
      <point x="52" y="-35" type="line" smooth="yes"/>
      <point x="52" y="-68"/>
      <point x="41" y="-81"/>
      <point x="12" y="-81" type="curve" smooth="yes"/>
      <point x="4" y="-81"/>
      <point x="-4" y="-80"/>
      <point x="-13" y="-79" type="curve"/>
    </contour>
  </outline>
</glyph>
<glyph name="nretroflex" format="2">
  <advance width="550"/>
  <unicode hex="0273"/>
  <outline>
    <contour>
      <point x="52" y="500" type="line"/>
      <point x="52" y="0" type="line"/>
      <point x="192" y="0" type="line"/>
      <point x="192" y="290" type="line" smooth="yes"/>
      <point x="192" y="350"/>
      <point x="227" y="391"/>
      <point x="283" y="391" type="curve" smooth="yes"/>
      <point x="339" y="391"/>
      <point x="361" y="350"/>
      <point x="361" y="299" type="curve" smooth="yes"/>
      <point x="361" y="0" type="line"/>
      <point x="501" y="0" type="line"/>
      <point x="501" y="335" type="line" smooth="yes"/>
      <point x="501" y="443"/>
      <point x="439" y="512"/>
      <point x="338" y="512" type="curve" smooth="yes"/>
      <point x="252" y="512"/>
      <point x="197" y="459"/>
      <point x="169" y="402" type="curve"/>
      <point x="192" y="402" type="line"/>
      <point x="192" y="500" type="line"/>
    </contour>
    <contour>
      <point x="566" y="-183" type="curve"/>
      <point x="566" y="-79" type="line"/>
      <point x="557" y="-80"/>
      <point x="549" y="-81"/>
      <point x="541" y="-81" type="curve" smooth="yes"/>
      <point x="512" y="-81"/>
      <point x="501" y="-68"/>
      <point x="501" y="-35" type="curve" smooth="yes"/>
      <point x="501" y="100" type="line"/>
      <point x="361" y="100" type="line"/>
      <point x="361" y="-71" type="line" smooth="yes"/>
      <point x="361" y="-164"/>
      <point x="437" y="-190"/>
      <point x="504" y="-190" type="curve" smooth="yes"/>
      <point x="527" y="-190"/>
      <point x="552" y="-187"/>
    </contour>
  </outline>
</glyph>
<glyph name="vturned" format="2">
  <advance width="550"/>
  <unicode hex="028C"/>
  <outline>
    <contour>
      <point x="352" y="500" type="line"/>
      <point x="197" y="500" type="line"/>
      <point x="7" y="0" type="line"/>
      <point x="154" y="0" type="line"/>
      <point x="318" y="461" type="line"/>
      <point x="230" y="461" type="line"/>
      <point x="396" y="0" type="line"/>
      <point x="543" y="0" type="line"/>
    </contour>
  </outline>
</glyph>
<glyph name="ringhalfrightmod" format="2">
  <advance width="300"/>
  <unicode hex="02BE"/>
  <outline>
    <contour>
      <point x="68" y="469" type="line" smooth="yes"/>
      <point x="110" y="469"/>
      <point x="139" y="495"/>
      <point x="139" y="535" type="curve" smooth="yes"/>
      <point x="139" y="575"/>
      <point x="110" y="601"/>
      <point x="68" y="601" type="curve" smooth="yes"/>
      <point x="50" y="601" type="line"/>
      <point x="50" y="700" type="line"/>
      <point x="68" y="700" type="line" smooth="yes"/>
      <point x="187" y="700"/>
      <point x="250" y="630"/>
      <point x="250" y="535" type="curve" smooth="yes"/>
      <point x="250" y="440"/>
      <point x="187" y="370"/>
      <point x="68" y="370" type="curve" smooth="yes"/>
      <point x="50" y="370" type="line"/>
      <point x="50" y="469" type="line"/>
    </contour>
  </outline>
</glyph>
<glyph name="ringhalfleftmod" format="2">
  <advance width="300"/>
  <unicode hex="02BF"/>
  <outline>
    <contour>
      <point x="232" y="469" type="line" smooth="yes"/>
      <point x="190" y="469"/>
      <point x="161" y="495"/>
      <point x="161" y="535" type="curve" smooth="yes"/>
      <point x="161" y="575"/>
      <point x="190" y="601"/>
      <point x="232" y="601" type="curve" smooth="yes"/>
      <point x="250" y="601" type="line"/>
      <point x="250" y="700" type="line"/>
      <point x="232" y="700" type="line" smooth="yes"/>
      <point x="113" y="700"/>
      <point x="50" y="630"/>
      <point x="50" y="535" type="curve" smooth="yes"/>
      <point x="50" y="440"/>
      <point x="113" y="370"/>
      <point x="232" y="370" type="curve" smooth="yes"/>
      <point x="250" y="370" type="line"/>
      <point x="250" y="469" type="line"/>
    </contour>
  </outline>
</glyph>
<glyph name="horncmb" format="2">
  <advance width="600"/>
  <unicode hex="031B"/>
  <outline>
    <contour>
      <point x="323" y="586" type="line"/>
      <point x="328" y="569"/>
      <point x="330" y="552"/>
      <point x="330" y="538" type="curve" smooth="yes"/>
      <point x="330" y="506"/>
      <point x="315" y="500"/>
      <point x="283" y="500" type="curve" smooth="yes"/>
      <point x="204" y="500" type="line"/>
      <point x="204" y="402" type="line"/>
      <point x="295" y="402" type="line" smooth="yes"/>
      <point x="405" y="402"/>
      <point x="432" y="441"/>
      <point x="432" y="528" type="curve" smooth="yes"/>
      <point x="432" y="548"/>
      <point x="429" y="568"/>
      <point x="423" y="586" type="curve"/>
    </contour>
  </outline>
</glyph>
<glyph name="dotbelowcmb" format="2">
  <advance width="600"/>
  <unicode hex="0323"/>
  <outline>
    <contour>
      <point x="228" y="-64" type="line"/>
      <point x="228" y="-200" type="line"/>
      <point x="372" y="-200" type="line"/>
      <point x="372" y="-64" type="line"/>
    </contour>
  </outline>
</glyph>
<glyph name="commaaccentbelowcmb" format="2">
  <advance width="600"/>
  <unicode hex="0326"/>
  <outline>
    <contour>
      <point x="228" y="-64" type="line"/>
      <point x="228" y="-200" type="line"/>
      <point x="294" y="-200" type="line"/>
      <point x="294" y="-202" type="line" smooth="yes"/>
      <point x="294" y="-241"/>
      <point x="273" y="-271"/>
      <point x="216" y="-271" type="curve"/>
      <point x="216" y="-334" type="line"/>
      <point x="325" y="-334"/>
      <point x="372" y="-273"/>
      <point x="372" y="-202" type="curve" smooth="yes"/>
      <point x="372" y="-64" type="line"/>
    </contour>
  </outline>
</glyph>
<glyph name="cedillacmb" format="2">
  <advance width="600"/>
  <unicode hex="0327"/>
  <outline>
    <contour>
      <point x="164" y="-217" type="line"/>
      <point x="202" y="-230"/>
      <point x="236" y="-236"/>
      <point x="282" y="-236" type="curve" smooth="yes"/>
      <point x="377" y="-236"/>
      <point x="437" y="-188"/>
      <point x="437" y="-125" type="curve" smooth="yes"/>
      <point x="437" y="-64"/>
      <point x="382" y="-38"/>
      <point x="323" y="-38" type="curve" smooth="yes"/>
      <point x="303" y="-38"/>
      <point x="284" y="-41"/>
      <point x="258" y="-52" type="curve"/>
      <point x="292" y="-65" type="line"/>
      <point x="344" y="11" type="line"/>
      <point x="262" y="11" type="line"/>
      <point x="205" y="-74" type="line"/>
      <point x="230" y="-114" type="line"/>
      <point x="255" y="-109"/>
      <point x="269" y="-107"/>
      <point x="284" y="-107" type="curve" smooth="yes"/>
      <point x="310" y="-107"/>
      <point x="330" y="-112"/>
      <point x="330" y="-127" type="curve" smooth="yes"/>
      <point x="330" y="-144"/>
      <point x="310" y="-155"/>
      <point x="274" y="-155" type="curve" smooth="yes"/>
      <point x="241" y="-155"/>
      <point x="211" y="-149"/>
      <point x="164" y="-137" type="curve"/>
    </contour>
  </outline>
</glyph>
<glyph name="ogonekcmb" format="2">
  <advance width="600"/>
  <unicode hex="0328"/>
  <outline>
    <contour>
      <point x="319" y="-203" type="curve" smooth="yes"/>
      <point x="342" y="-203"/>
      <point x="377" y="-200"/>
      <point x="402" y="-193" type="curve"/>
      <point x="402" y="-106" type="line"/>
      <point x="382" y="-111"/>
      <point x="366" y="-114"/>
      <point x="348" y="-114" type="curve" smooth="yes"/>
      <point x="318" y="-114"/>
      <point x="303" y="-104"/>
      <point x="303" y="-85" type="curve" smooth="yes"/>
      <point x="303" y="-56"/>
      <point x="337" y="-30"/>
      <point x="389" y="0" type="curve"/>
      <point x="268" y="0" type="line"/>
      <point x="233" y="-23"/>
      <point x="190" y="-62"/>
      <point x="190" y="-116" type="curve" smooth="yes"/>
      <point x="190" y="-170"/>
      <point x="234" y="-203"/>
    </contour>
  </outline>
</glyph>
<glyph name="overlaystrokeshortcmb" format="2">
  <advance width="600"/>
  <unicode hex="0335"/>
  <outline>
    <contour>
      <point x="24" y="296" type="line"/>
      <point x="327" y="296" type="line"/>
      <point x="327" y="420" type="line"/>
      <point x="24" y="420" type="line"/>
    </contour>
  </outline>
</glyph>
<glyph name="lmacrondot" format="2">
  <advance width="300"/>
  <unicode hex="1E39"/>
  <outline>
    <contour>
      <point x="-7" y="760" type="line"/>
      <point x="307" y="760" type="line"/>
      <point x="307" y="860" type="line"/>
      <point x="-7" y="860" type="line"/>
    </contour>
    <component base="l" identifier="85779710"/>
    <component base="dotbelowcmb" xOffset="-150" identifier="7486262F"/>
  </outline>
</glyph>
<glyph name="rlinebelow" format="2">
  <advance width="450"/>
  <unicode hex="1E5F"/>
  <outline>
    <contour>
      <point x="15" y="-77" type="line"/>
      <point x="261" y="-77" type="line"/>
      <point x="261" y="-178" type="line"/>
      <point x="15" y="-178" type="line"/>
    </contour>
    <component base="r" identifier="9C5AFA5E"/>
  </outline>
</glyph>
<glyph name="endash" format="2">
  <advance width="680"/>
  <unicode hex="2013"/>
  <outline>
    <contour>
      <point x="115" y="238" type="line"/>
      <point x="565" y="238" type="line"/>
      <point x="565" y="354" type="line"/>
      <point x="115" y="354" type="line"/>
    </contour>
  </outline>
</glyph>
<glyph name="emdash" format="2">
  <advance width="880"/>
  <unicode hex="2014"/>
  <outline>
    <contour>
      <point x="54" y="238" type="line"/>
      <point x="826" y="238" type="line"/>
      <point x="826" y="354" type="line"/>
      <point x="54" y="354" type="line"/>
    </contour>
  </outline>
</glyph>
<glyph name="quotedblright" format="2">
  <advance width="500"/>
  <unicode hex="201D"/>
  <outline>
    <contour>
      <point x="87" y="700" type="line"/>
      <point x="87" y="542" type="line"/>
      <point x="164" y="542" type="line"/>
      <point x="164" y="529" type="line" smooth="yes"/>
      <point x="164" y="478"/>
      <point x="134" y="443"/>
      <point x="65" y="443" type="curve"/>
      <point x="65" y="382" type="line"/>
      <point x="196" y="382"/>
      <point x="235" y="476"/>
      <point x="235" y="530" type="curve" smooth="yes"/>
      <point x="235" y="700" type="line"/>
    </contour>
    <contour>
      <point x="284" y="700" type="line"/>
      <point x="284" y="542" type="line"/>
      <point x="361" y="542" type="line"/>
      <point x="361" y="529" type="line" smooth="yes"/>
      <point x="361" y="478"/>
      <point x="331" y="443"/>
      <point x="262" y="443" type="curve"/>
      <point x="262" y="382" type="line"/>
      <point x="393" y="382"/>
      <point x="432" y="476"/>
      <point x="432" y="530" type="curve" smooth="yes"/>
      <point x="432" y="700" type="line"/>
    </contour>
  </outline>
</glyph>
<glyph name="dagger" format="2">
  <advance width="300"/>
  <unicode hex="2020"/>
  <outline>
    <contour>
      <point x="101" y="341" type="line"/>
      <point x="199" y="341" type="line"/>
      <point x="199" y="700" type="line"/>
      <point x="101" y="700" type="line"/>
    </contour>
    <contour>
      <point x="17" y="614" type="line"/>
      <point x="17" y="526" type="line"/>
      <point x="283" y="526" type="line"/>
      <point x="283" y="614" type="line"/>
    </contour>
  </outline>
</glyph>
<glyph name="daggerdbl" format="2">
  <advance width="300"/>
  <unicode hex="2021"/>
  <outline>
    <contour>
      <point x="101" y="341" type="line"/>
      <point x="199" y="341" type="line"/>
      <point x="199" y="700" type="line"/>
      <point x="101" y="700" type="line"/>
    </contour>
    <contour>
      <point x="17" y="637" type="line"/>
      <point x="17" y="549" type="line"/>
      <point x="283" y="549" type="line"/>
      <point x="283" y="637" type="line"/>
    </contour>
    <contour>
      <point x="17" y="493" type="line"/>
      <point x="17" y="405" type="line"/>
      <point x="283" y="405" type="line"/>
      <point x="283" y="493" type="line"/>
    </contour>
  </outline>
</glyph>
<glyph name="bullet" format="2">
  <advance width="500"/>
  <unicode hex="2022"/>
  <outline>
    <contour>
      <point x="250" y="502" type="curve" smooth="yes"/>
      <point x="144" y="502"/>
      <point x="58" y="415"/>
      <point x="58" y="309" type="curve" smooth="yes"/>
      <point x="58" y="203"/>
      <point x="144" y="116"/>
      <point x="250" y="116" type="curve" smooth="yes"/>
      <point x="356" y="116"/>
      <point x="442" y="203"/>
      <point x="442" y="309" type="curve" smooth="yes"/>
      <point x="442" y="415"/>
      <point x="356" y="502"/>
    </contour>
  </outline>
</glyph>
<glyph name="minute" format="2">
  <advance width="300"/>
  <unicode hex="2032"/>
  <outline>
    <contour>
      <point x="98" y="700" type="line"/>
      <point x="42" y="363" type="line"/>
      <point x="150" y="363" type="line"/>
      <point x="258" y="700" type="line"/>
    </contour>
  </outline>
</glyph>
<glyph name="second" format="2">
  <advance width="450"/>
  <unicode hex="2033"/>
  <outline>
    <contour>
      <point x="76" y="700" type="line"/>
      <point x="20" y="363" type="line"/>
      <point x="128" y="363" type="line"/>
      <point x="236" y="700" type="line"/>
    </contour>
    <contour>
      <point x="279" y="700" type="line"/>
      <point x="223" y="363" type="line"/>
      <point x="331" y="363" type="line"/>
      <point x="439" y="700" type="line"/>
    </contour>
  </outline>
</glyph>
<glyph name="guilsinglleft" format="2">
  <advance width="300"/>
  <unicode hex="2039"/>
  <outline>
    <contour>
      <point x="289" y="450" type="line"/>
      <point x="151" y="450" type="line"/>
      <point x="11" y="276" type="line"/>
      <point x="11" y="234" type="line"/>
      <point x="151" y="60" type="line"/>
      <point x="289" y="60" type="line"/>
      <point x="112" y="280" type="line"/>
      <point x="112" y="230" type="line"/>
    </contour>
  </outline>
</glyph>
<glyph name="guilsinglright" format="2">
  <advance width="300"/>
  <unicode hex="203A"/>
  <outline>
    <contour>
      <point x="11" y="60" type="line"/>
      <point x="149" y="60" type="line"/>
      <point x="289" y="234" type="line"/>
      <point x="289" y="276" type="line"/>
      <point x="149" y="450" type="line"/>
      <point x="11" y="450" type="line"/>
      <point x="188" y="230" type="line"/>
      <point x="188" y="280" type="line"/>
    </contour>
  </outline>
</glyph>
<glyph name="interrobang" format="2">
  <advance width="500"/>
  <unicode hex="203D"/>
  <outline>
    <contour>
      <point x="203" y="217" type="line"/>
      <point x="309" y="217" type="line"/>
      <point x="309" y="235" type="line" smooth="yes"/>
      <point x="309" y="282"/>
      <point x="327" y="308"/>
      <point x="374" y="343" type="curve" smooth="yes"/>
      <point x="434" y="388"/>
      <point x="479" y="432"/>
      <point x="479" y="523" type="curve" smooth="yes"/>
      <point x="479" y="635"/>
      <point x="389" y="712"/>
      <point x="252" y="712" type="curve" smooth="yes"/>
      <point x="116" y="712"/>
      <point x="24" y="635"/>
      <point x="5" y="517" type="curve"/>
      <point x="127" y="488" type="line"/>
      <point x="134" y="550"/>
      <point x="168" y="603"/>
      <point x="243" y="603" type="curve" smooth="yes"/>
      <point x="309" y="603"/>
      <point x="345" y="565"/>
      <point x="345" y="518" type="curve" smooth="yes"/>
      <point x="345" y="483"/>
      <point x="334" y="460"/>
      <point x="280" y="411" type="curve" smooth="yes"/>
      <point x="221" y="358"/>
      <point x="203" y="324"/>
      <point x="203" y="243" type="curve" smooth="yes"/>
    </contour>
    <contour>
      <point x="303" y="680" type="line"/>
      <point x="175" y="680" type="line"/>
      <point x="190" y="217" type="line"/>
      <point x="278" y="217" type="line"/>
    </contour>
    <contour>
      <point x="173" y="149" type="line"/>
      <point x="173" y="0" type="line"/>
      <point x="320" y="0" type="line"/>
      <point x="320" y="149" type="line"/>
    </contour>
  </outline>
</glyph>
<glyph name="fraction" format="2">
  <advance width="300"/>
  <unicode hex="2044"/>
  <outline>
    <contour>
      <point x="77" y="0" type="line"/>
      <point x="183" y="0" type="line"/>
      <point x="683" y="700" type="line"/>
      <point x="577" y="700" type="line"/>
    </contour>
  </outline>
</glyph>
<glyph name="naira" format="2">
  <advance width="680"/>
  <unicode hex="20A6"/>
  <outline>
    <contour>
      <point x="507" y="118" type="line"/>
      <point x="286" y="700" type="line"/>
      <point x="104" y="700" type="line"/>
      <point x="104" y="0" type="line"/>
      <point x="237" y="0" type="line"/>
      <point x="237" y="580" type="line"/>
      <point x="204" y="580" type="line"/>
      <point x="423" y="0" type="line"/>
      <point x="574" y="0" type="line"/>
      <point x="574" y="700" type="line"/>
      <point x="442" y="700" type="line"/>
      <point x="442" y="118" type="line"/>
    </contour>
    <contour>
      <point x="37" y="229" type="line"/>
      <point x="399" y="229" type="line"/>
      <point x="360" y="329" type="line"/>
      <point x="37" y="329" type="line"/>
    </contour>
    <contour>
      <point x="515" y="229" type="line"/>
      <point x="644" y="229" type="line"/>
      <point x="644" y="329" type="line"/>
      <point x="515" y="329" type="line"/>
    </contour>
    <contour>
      <point x="327" y="392" type="line"/>
      <point x="644" y="392" type="line"/>
      <point x="644" y="492" type="line"/>
      <point x="290" y="492" type="line"/>
    </contour>
    <contour>
      <point x="37" y="392" type="line"/>
      <point x="164" y="392" type="line"/>
      <point x="164" y="492" type="line"/>
      <point x="37" y="492" type="line"/>
    </contour>
  </outline>
</glyph>
<glyph name="newsheqel" format="2">
  <advance width="760"/>
  <unicode hex="20AA"/>
  <outline>
    <contour>
      <point x="333" y="700" type="line" smooth="yes"/>
      <point x="461" y="700"/>
      <point x="513" y="641"/>
      <point x="513" y="519" type="curve" smooth="yes"/>
      <point x="513" y="158" type="line"/>
      <point x="401" y="158" type="line"/>
      <point x="401" y="518" type="line" smooth="yes"/>
      <point x="401" y="559"/>
      <point x="379" y="591"/>
      <point x="331" y="591" type="curve" smooth="yes"/>
      <point x="207" y="591" type="line"/>
      <point x="207" y="0" type="line"/>
      <point x="93" y="0" type="line"/>
      <point x="93" y="700" type="line"/>
    </contour>
    <contour>
      <point x="428" y="0" type="line" smooth="yes"/>
      <point x="300" y="0"/>
      <point x="248" y="59"/>
      <point x="248" y="181" type="curve" smooth="yes"/>
      <point x="248" y="542" type="line"/>
      <point x="360" y="542" type="line"/>
      <point x="360" y="182" type="line" smooth="yes"/>
      <point x="360" y="141"/>
      <point x="382" y="109"/>
      <point x="430" y="109" type="curve" smooth="yes"/>
      <point x="554" y="109" type="line"/>
      <point x="554" y="700" type="line"/>
      <point x="668" y="700" type="line"/>
      <point x="668" y="0" type="line"/>
    </contour>
  </outline>
</glyph>
<glyph name="Euro" format="2">
  <advance width="600"/>
  <unicode hex="20AC"/>
  <outline>
    <contour>
      <point x="576" y="490" type="line"/>
      <point x="553" y="620"/>
      <point x="472" y="712"/>
      <point x="347" y="712" type="curve" smooth="yes"/>
      <point x="171" y="712"/>
      <point x="84" y="569"/>
      <point x="84" y="350" type="curve" smooth="yes"/>
      <point x="84" y="131"/>
      <point x="171" y="-12"/>
      <point x="347" y="-12" type="curve" smooth="yes"/>
      <point x="472" y="-12"/>
      <point x="556" y="81"/>
      <point x="577" y="212" type="curve"/>
      <point x="451" y="237" type="line"/>
      <point x="435" y="146"/>
      <point x="402" y="107"/>
      <point x="347" y="107" type="curve" smooth="yes"/>
      <point x="267" y="107"/>
      <point x="222" y="174"/>
      <point x="222" y="350" type="curve" smooth="yes"/>
      <point x="222" y="526"/>
      <point x="267" y="593"/>
      <point x="347" y="593" type="curve" smooth="yes"/>
      <point x="402" y="593"/>
      <point x="434" y="556"/>
      <point x="450" y="465" type="curve"/>
    </contour>
    <contour>
      <point x="27" y="233" type="line"/>
      <point x="338" y="233" type="line"/>
      <point x="359" y="327" type="line"/>
      <point x="27" y="327" type="line"/>
    </contour>
    <contour>
      <point x="27" y="379" type="line"/>
      <point x="370" y="379" type="line"/>
      <point x="390" y="473" type="line"/>
      <point x="27" y="473" type="line"/>
    </contour>
  </outline>
</glyph>
<glyph name="notequal" format="2">
  <advance width="600"/>
  <unicode hex="2260"/>
  <outline>
    <contour>
      <point x="80" y="70" type="line"/>
      <point x="204" y="70" type="line"/>
      <point x="520" y="610" type="line"/>
      <point x="396" y="610" type="line"/>
    </contour>
    <component base="equal" identifier="CA08EB0E"/>
  </outline>
</glyph>
<glyph name="greaterequal" format="2">
  <advance width="600"/>
  <unicode hex="2265"/>
  <outline>
    <contour>
      <point x="56" y="0" type="line"/>
      <point x="56" y="120" type="line"/>
      <point x="544" y="120" type="line"/>
      <point x="544" y="0" type="line"/>
    </contour>
    <contour>
      <point x="544" y="483" type="line"/>
      <point x="544" y="358" type="line"/>
      <point x="56" y="158" type="line"/>
      <point x="56" y="285" type="line"/>
      <point x="476" y="455" type="line"/>
      <point x="476" y="386" type="line"/>
      <point x="56" y="556" type="line"/>
      <point x="56" y="683" type="line"/>
    </contour>
  </outline>
</glyph>
<glyph name="onesanscircled" format="2">
  <advance width="760"/>
  <unicode hex="2780"/>
  <outline>
    <contour>
      <point x="345" y="546" type="line"/>
      <point x="345" y="478"/>
      <point x="326" y="457"/>
      <point x="240" y="457" type="curve"/>
      <point x="240" y="373" type="line"/>
      <point x="336" y="373" type="line"/>
      <point x="336" y="154" type="line"/>
      <point x="446" y="154" type="line"/>
      <point x="446" y="546" type="line"/>
    </contour>
    <component base="circlewhite" identifier="ADF4EA06"/>
  </outline>
</glyph>
<glyph name="foursanscircled" format="2">
  <advance width="760"/>
  <unicode hex="2783"/>
  <outline>
    <contour>
      <point x="479" y="546" type="line"/>
      <point x="353" y="546" type="line"/>
      <point x="190" y="326" type="line"/>
      <point x="190" y="235" type="line"/>
      <point x="370" y="235" type="line"/>
      <point x="370" y="154" type="line"/>
      <point x="479" y="154" type="line"/>
      <point x="479" y="235" type="line"/>
      <point x="541" y="235" type="line"/>
      <point x="541" y="322" type="line"/>
      <point x="479" y="322" type="line"/>
    </contour>
    <contour>
      <point x="292" y="322" type="line"/>
      <point x="370" y="427" type="line"/>
      <point x="370" y="322" type="line"/>
    </contour>
    <component base="circlewhite" identifier="5AF59EF1"/>
  </outline>
</glyph>
<glyph name="fivesanscircled" format="2">
  <advance width="760"/>
  <unicode hex="2784"/>
  <outline>
    <contour>
      <point x="215" y="293" type="line"/>
      <point x="218" y="196"/>
      <point x="279" y="148"/>
      <point x="377" y="148" type="curve" smooth="yes"/>
      <point x="477" y="148"/>
      <point x="528" y="202"/>
      <point x="528" y="288" type="curve" smooth="yes"/>
      <point x="528" y="362"/>
      <point x="488" y="421"/>
      <point x="407" y="421" type="curve" smooth="yes"/>
      <point x="376" y="421"/>
      <point x="352" y="412"/>
      <point x="334" y="398" type="curve"/>
      <point x="338" y="454" type="line"/>
      <point x="516" y="454" type="line"/>
      <point x="516" y="546" type="line"/>
      <point x="247" y="546" type="line"/>
      <point x="229" y="322" type="line"/>
      <point x="334" y="315" type="line"/>
      <point x="341" y="327"/>
      <point x="356" y="339"/>
      <point x="375" y="339" type="curve" smooth="yes"/>
      <point x="403" y="339"/>
      <point x="417" y="313"/>
      <point x="417" y="288" type="curve" smooth="yes"/>
      <point x="417" y="258"/>
      <point x="402" y="233"/>
      <point x="372" y="233" type="curve" smooth="yes"/>
      <point x="346" y="233"/>
      <point x="331" y="252"/>
      <point x="330" y="279" type="curve"/>
    </contour>
    <component base="circlewhite" identifier="C74C529C"/>
  </outline>
</glyph>
<glyph name="sevensanscircled" format="2">
  <advance width="760"/>
  <unicode hex="2786"/>
  <outline>
    <contour>
      <point x="229" y="546" type="line"/>
      <point x="229" y="385" type="line"/>
      <point x="330" y="385" type="line"/>
      <point x="330" y="456" type="line"/>
      <point x="426" y="456" type="line"/>
      <point x="347" y="361"/>
      <point x="291" y="270"/>
      <point x="286" y="154" type="curve"/>
      <point x="404" y="154" type="line"/>
      <point x="414" y="285"/>
      <point x="469" y="375"/>
      <point x="555" y="480" type="curve"/>
      <point x="555" y="546" type="line"/>
    </contour>
    <component base="circlewhite" identifier="8DAAAE9D"/>
  </outline>
</glyph>
<glyph name="eightsanscircled" format="2">
  <advance width="760"/>
  <unicode hex="2787"/>
  <outline>
    <contour>
      <point x="219" y="269" type="curve" smooth="yes"/>
      <point x="219" y="200"/>
      <point x="278" y="148"/>
      <point x="380" y="148" type="curve" smooth="yes"/>
      <point x="482" y="148"/>
      <point x="541" y="200"/>
      <point x="541" y="269" type="curve" smooth="yes"/>
      <point x="541" y="319"/>
      <point x="510" y="349"/>
      <point x="468" y="363" type="curve"/>
      <point x="502" y="375"/>
      <point x="528" y="401"/>
      <point x="528" y="443" type="curve" smooth="yes"/>
      <point x="528" y="504"/>
      <point x="478" y="552"/>
      <point x="380" y="552" type="curve" smooth="yes"/>
      <point x="282" y="552"/>
      <point x="232" y="504"/>
      <point x="232" y="443" type="curve" smooth="yes"/>
      <point x="232" y="401"/>
      <point x="258" y="375"/>
      <point x="292" y="363" type="curve"/>
      <point x="250" y="349"/>
      <point x="219" y="319"/>
    </contour>
    <contour>
      <point x="380" y="324" type="curve" smooth="yes"/>
      <point x="412" y="324"/>
      <point x="433" y="305"/>
      <point x="433" y="276" type="curve" smooth="yes"/>
      <point x="433" y="247"/>
      <point x="412" y="226"/>
      <point x="380" y="226" type="curve" smooth="yes"/>
      <point x="348" y="226"/>
      <point x="327" y="247"/>
      <point x="327" y="276" type="curve" smooth="yes"/>
      <point x="327" y="305"/>
      <point x="348" y="324"/>
    </contour>
    <contour>
      <point x="380" y="400" type="curve" smooth="yes"/>
      <point x="353" y="400"/>
      <point x="337" y="416"/>
      <point x="337" y="437" type="curve" smooth="yes"/>
      <point x="337" y="458"/>
      <point x="353" y="474"/>
      <point x="380" y="474" type="curve" smooth="yes"/>
      <point x="407" y="474"/>
      <point x="423" y="458"/>
      <point x="423" y="437" type="curve" smooth="yes"/>
      <point x="423" y="416"/>
      <point x="407" y="400"/>
    </contour>
    <component base="circlewhite" identifier="794D3656"/>
  </outline>
</glyph>
<glyph name="onesansnegativecircled" format="2">
  <advance width="760"/>
  <unicode hex="278A"/>
  <outline>
    <contour>
      <point x="345" y="546" type="curve"/>
      <point x="446" y="546" type="line"/>
      <point x="446" y="154" type="line"/>
      <point x="336" y="154" type="line"/>
      <point x="336" y="373" type="line"/>
      <point x="240" y="373" type="line"/>
      <point x="240" y="457" type="line"/>
      <point x="326" y="457"/>
      <point x="345" y="478"/>
    </contour>
    <component base="circleblack" identifier="C378636D"/>
  </outline>
</glyph>
<glyph name="twosansnegativecircled" format="2">
  <advance width="760"/>
  <unicode hex="278B"/>
  <outline>
    <contour>
      <point x="534" y="154" type="line"/>
      <point x="231" y="154" type="line"/>
      <point x="231" y="242" type="line"/>
      <point x="372" y="349"/>
      <point x="420" y="380"/>
      <point x="420" y="423" type="curve" smooth="yes"/>
      <point x="420" y="448"/>
      <point x="404" y="465"/>
      <point x="379" y="465" type="curve" smooth="yes"/>
      <point x="353" y="465"/>
      <point x="336" y="447"/>
      <point x="336" y="423" type="curve" smooth="yes"/>
      <point x="336" y="413"/>
      <point x="339" y="401"/>
      <point x="346" y="388" type="curve"/>
      <point x="243" y="375" type="line"/>
      <point x="232" y="394"/>
      <point x="228" y="411"/>
      <point x="228" y="429" type="curve" smooth="yes"/>
      <point x="228" y="489"/>
      <point x="274" y="552"/>
      <point x="381" y="552" type="curve" smooth="yes"/>
      <point x="494" y="552"/>
      <point x="531" y="483"/>
      <point x="531" y="424" type="curve" smooth="yes"/>
      <point x="531" y="356"/>
      <point x="476" y="307"/>
      <point x="389" y="245" type="curve"/>
      <point x="534" y="245" type="line"/>
    </contour>
    <component base="circleblack" identifier="50D79A85"/>
  </outline>
</glyph>
<glyph name="threesansnegativecircled" format="2">
  <advance width="760"/>
  <unicode hex="278C"/>
  <outline>
    <contour>
      <point x="220" y="292" type="curve"/>
      <point x="331" y="285" type="line"/>
      <point x="326" y="254"/>
      <point x="346" y="233"/>
      <point x="381" y="233" type="curve" smooth="yes"/>
      <point x="411" y="233"/>
      <point x="428" y="249"/>
      <point x="428" y="277" type="curve" smooth="yes"/>
      <point x="428" y="304"/>
      <point x="410" y="317"/>
      <point x="381" y="317" type="curve" smooth="yes"/>
      <point x="347" y="317" type="line"/>
      <point x="347" y="395" type="line"/>
      <point x="381" y="395" type="line" smooth="yes"/>
      <point x="401" y="395"/>
      <point x="418" y="408"/>
      <point x="418" y="431" type="curve" smooth="yes"/>
      <point x="418" y="455"/>
      <point x="398" y="467"/>
      <point x="377" y="467" type="curve" smooth="yes"/>
      <point x="346" y="467"/>
      <point x="331" y="446"/>
      <point x="335" y="417" type="curve"/>
      <point x="224" y="410" type="line"/>
      <point x="217" y="501"/>
      <point x="285" y="552"/>
      <point x="380" y="552" type="curve" smooth="yes"/>
      <point x="487" y="552"/>
      <point x="529" y="497"/>
      <point x="529" y="439" type="curve" smooth="yes"/>
      <point x="529" y="392"/>
      <point x="498" y="369"/>
      <point x="466" y="359" type="curve"/>
      <point x="510" y="348"/>
      <point x="539" y="319"/>
      <point x="539" y="270" type="curve" smooth="yes"/>
      <point x="539" y="200"/>
      <point x="485" y="148"/>
      <point x="382" y="148" type="curve" smooth="yes"/>
      <point x="286" y="148"/>
      <point x="214" y="196"/>
    </contour>
    <component base="circleblack" identifier="3EC35CF0"/>
  </outline>
</glyph>
<glyph name="foursansnegativecircled" format="2">
  <advance width="760"/>
  <unicode hex="278D"/>
  <outline>
    <contour>
      <point x="479" y="546" type="line"/>
      <point x="479" y="322" type="line"/>
      <point x="541" y="322" type="line"/>
      <point x="541" y="235" type="line"/>
      <point x="479" y="235" type="line"/>
      <point x="479" y="154" type="line"/>
      <point x="370" y="154" type="line"/>
      <point x="370" y="235" type="line"/>
      <point x="190" y="235" type="line"/>
      <point x="190" y="326" type="line"/>
      <point x="353" y="546" type="line"/>
    </contour>
    <contour>
      <point x="292" y="322" type="line"/>
      <point x="370" y="322" type="line"/>
      <point x="370" y="427" type="line"/>
    </contour>
    <component base="circleblack" identifier="1636D048"/>
  </outline>
</glyph>
<glyph name="fivesansnegativecircled" format="2">
  <advance width="760"/>
  <unicode hex="278E"/>
  <outline>
    <contour>
      <point x="215" y="293" type="curve"/>
      <point x="330" y="279" type="line"/>
      <point x="331" y="252"/>
      <point x="346" y="233"/>
      <point x="372" y="233" type="curve" smooth="yes"/>
      <point x="402" y="233"/>
      <point x="417" y="258"/>
      <point x="417" y="288" type="curve" smooth="yes"/>
      <point x="417" y="313"/>
      <point x="403" y="339"/>
      <point x="375" y="339" type="curve" smooth="yes"/>
      <point x="356" y="339"/>
      <point x="341" y="327"/>
      <point x="334" y="315" type="curve"/>
      <point x="229" y="322" type="line"/>
      <point x="247" y="546" type="line"/>
      <point x="516" y="546" type="line"/>
      <point x="516" y="454" type="line"/>
      <point x="338" y="454" type="line"/>
      <point x="334" y="398" type="line"/>
      <point x="352" y="412"/>
      <point x="376" y="421"/>
      <point x="407" y="421" type="curve" smooth="yes"/>
      <point x="488" y="421"/>
      <point x="528" y="362"/>
      <point x="528" y="288" type="curve" smooth="yes"/>
      <point x="528" y="202"/>
      <point x="477" y="148"/>
      <point x="377" y="148" type="curve" smooth="yes"/>
      <point x="279" y="148"/>
      <point x="218" y="196"/>
    </contour>
    <component base="circleblack" identifier="5E6CD6D1"/>
  </outline>
</glyph>
<glyph name="sevensansnegativecircled" format="2">
  <advance width="760"/>
  <unicode hex="2790"/>
  <outline>
    <contour>
      <point x="229" y="546" type="line"/>
      <point x="555" y="546" type="line"/>
      <point x="555" y="480" type="line"/>
      <point x="469" y="375"/>
      <point x="414" y="285"/>
      <point x="404" y="154" type="curve"/>
      <point x="286" y="154" type="line"/>
      <point x="291" y="270"/>
      <point x="347" y="361"/>
      <point x="426" y="456" type="curve"/>
      <point x="330" y="456" type="line"/>
      <point x="330" y="385" type="line"/>
      <point x="229" y="385" type="line"/>
    </contour>
    <component base="circleblack" identifier="2BD3E32E"/>
  </outline>
</glyph>
<glyph name="eightsansnegativecircled" format="2">
  <advance width="760"/>
  <unicode hex="2791"/>
  <outline>
    <contour>
      <point x="219" y="269" type="curve" smooth="yes"/>
      <point x="219" y="319"/>
      <point x="250" y="349"/>
      <point x="292" y="363" type="curve"/>
      <point x="258" y="375"/>
      <point x="232" y="401"/>
      <point x="232" y="443" type="curve" smooth="yes"/>
      <point x="232" y="504"/>
      <point x="282" y="552"/>
      <point x="380" y="552" type="curve" smooth="yes"/>
      <point x="478" y="552"/>
      <point x="528" y="504"/>
      <point x="528" y="443" type="curve" smooth="yes"/>
      <point x="528" y="401"/>
      <point x="502" y="375"/>
      <point x="468" y="363" type="curve"/>
      <point x="510" y="349"/>
      <point x="541" y="319"/>
      <point x="541" y="269" type="curve" smooth="yes"/>
      <point x="541" y="200"/>
      <point x="482" y="148"/>
      <point x="380" y="148" type="curve" smooth="yes"/>
      <point x="278" y="148"/>
      <point x="219" y="200"/>
    </contour>
    <contour>
      <point x="380" y="400" type="curve" smooth="yes"/>
      <point x="407" y="400"/>
      <point x="423" y="416"/>
      <point x="423" y="437" type="curve" smooth="yes"/>
      <point x="423" y="458"/>
      <point x="407" y="474"/>
      <point x="380" y="474" type="curve" smooth="yes"/>
      <point x="353" y="474"/>
      <point x="337" y="458"/>
      <point x="337" y="437" type="curve" smooth="yes"/>
      <point x="337" y="416"/>
      <point x="353" y="400"/>
    </contour>
    <contour>
      <point x="380" y="324" type="curve" smooth="yes"/>
      <point x="348" y="324"/>
      <point x="327" y="305"/>
      <point x="327" y="276" type="curve" smooth="yes"/>
      <point x="327" y="247"/>
      <point x="348" y="226"/>
      <point x="380" y="226" type="curve" smooth="yes"/>
      <point x="412" y="226"/>
      <point x="433" y="247"/>
      <point x="433" y="276" type="curve" smooth="yes"/>
      <point x="433" y="305"/>
      <point x="412" y="324"/>
    </contour>
    <component base="circleblack" identifier="CFFD5C8F"/>
  </outline>
</glyph>
<glyph name="R.alt1" format="2">
  <advance width="680"/>
  <outline>
    <contour>
      <point x="67" y="700" type="line"/>
      <point x="67" y="0" type="line"/>
      <point x="217" y="0" type="line"/>
      <point x="217" y="700" type="line"/>
    </contour>
    <contour>
      <point x="385" y="399" type="curve" smooth="yes"/>
      <point x="140" y="399" type="line"/>
      <point x="140" y="277" type="line"/>
      <point x="416" y="277" type="line" smooth="yes"/>
      <point x="447" y="277"/>
      <point x="471" y="249"/>
      <point x="473" y="179" type="curve" smooth="yes"/>
      <point x="476" y="84"/>
      <point x="469" y="34"/>
      <point x="499" y="0" type="curve"/>
      <point x="650" y="0" type="line"/>
      <point x="650" y="17" type="line"/>
      <point x="620" y="35"/>
      <point x="626" y="130"/>
      <point x="620" y="210" type="curve" smooth="yes"/>
      <point x="615" y="278"/>
      <point x="574" y="319"/>
      <point x="502" y="333" type="curve"/>
      <point x="502" y="306" type="line"/>
      <point x="593" y="325"/>
      <point x="639" y="383"/>
      <point x="639" y="488" type="curve" smooth="yes"/>
      <point x="639" y="620"/>
      <point x="557" y="700"/>
      <point x="402" y="700" type="curve" smooth="yes"/>
      <point x="145" y="700" type="line"/>
      <point x="145" y="577" type="line"/>
      <point x="385" y="577" type="line" smooth="yes"/>
      <point x="449" y="577"/>
      <point x="485" y="545"/>
      <point x="485" y="488" type="curve" smooth="yes"/>
      <point x="485" y="431"/>
      <point x="449" y="399"/>
    </contour>
  </outline>
</glyph>
<glyph name="a.alt1" format="2">
  <advance width="550"/>
  <guideline x="241" y="502" angle="90" name="center"/>
  <outline>
    <contour>
      <point x="37" y="146" type="curve" smooth="yes"/>
      <point x="37" y="49"/>
      <point x="108" y="-12"/>
      <point x="216" y="-12" type="curve" smooth="yes"/>
      <point x="304" y="-12"/>
      <point x="361" y="30"/>
      <point x="396" y="100" type="curve"/>
      <point x="361" y="100" type="line"/>
      <point x="361" y="65"/>
      <point x="362" y="32"/>
      <point x="367" y="0" type="curve"/>
      <point x="495" y="0" type="line"/>
      <point x="489" y="36"/>
      <point x="487" y="67"/>
      <point x="487" y="114" type="curve" smooth="yes"/>
      <point x="487" y="345" type="line" smooth="yes"/>
      <point x="487" y="451"/>
      <point x="417" y="512"/>
      <point x="274" y="512" type="curve" smooth="yes"/>
      <point x="124" y="512"/>
      <point x="62" y="426"/>
      <point x="57" y="349" type="curve"/>
      <point x="195" y="325" type="line"/>
      <point x="196" y="372"/>
      <point x="215" y="405"/>
      <point x="275" y="405" type="curve" smooth="yes"/>
      <point x="331" y="405"/>
      <point x="350" y="379"/>
      <point x="350" y="335" type="curve" smooth="yes"/>
      <point x="350" y="185" type="line" smooth="yes"/>
      <point x="350" y="130"/>
      <point x="302" y="91"/>
      <point x="246" y="91" type="curve" smooth="yes"/>
      <point x="201" y="91"/>
      <point x="176" y="115"/>
      <point x="176" y="148" type="curve" smooth="yes"/>
      <point x="176" y="184"/>
      <point x="203" y="203"/>
      <point x="266" y="210" type="curve" smooth="yes"/>
      <point x="420" y="228" type="line"/>
      <point x="420" y="322" type="line"/>
      <point x="208" y="298" type="line" smooth="yes"/>
      <point x="104" y="286"/>
      <point x="37" y="237"/>
    </contour>
  </outline>
</glyph>
<glyph name="bitcoin.tab" format="2">
  <advance width="600"/>
  <outline>
    <contour>
      <point x="72" y="700" type="line"/>
      <point x="72" y="0" type="line"/>
      <point x="211" y="0" type="line"/>
      <point x="211" y="700" type="line"/>
    </contour>
    <contour>
      <point x="332" y="0" type="line" smooth="yes"/>
      <point x="480" y="0"/>
      <point x="563" y="96"/>
      <point x="563" y="208" type="curve" smooth="yes"/>
      <point x="563" y="303"/>
      <point x="503" y="350"/>
      <point x="444" y="374" type="curve"/>
      <point x="444" y="356" type="line"/>
      <point x="498" y="374"/>
      <point x="548" y="421"/>
      <point x="548" y="504" type="curve" smooth="yes"/>
      <point x="548" y="614"/>
      <point x="469" y="700"/>
      <point x="332" y="700" type="curve" smooth="yes"/>
      <point x="137" y="700" type="line"/>
      <point x="137" y="582" type="line"/>
      <point x="321" y="582" type="line" smooth="yes"/>
      <point x="374" y="582"/>
      <point x="414" y="553"/>
      <point x="414" y="502" type="curve" smooth="yes"/>
      <point x="414" y="450"/>
      <point x="378" y="418"/>
      <point x="325" y="418" type="curve" smooth="yes"/>
      <point x="136" y="418" type="line"/>
      <point x="136" y="300" type="line"/>
      <point x="322" y="300" type="line" smooth="yes"/>
      <point x="373" y="300"/>
      <point x="424" y="271"/>
      <point x="424" y="209" type="curve" smooth="yes"/>
      <point x="424" y="148"/>
      <point x="377" y="119"/>
      <point x="322" y="119" type="curve" smooth="yes"/>
      <point x="137" y="119" type="line"/>
      <point x="137" y="0" type="line"/>
    </contour>
    <contour>
      <point x="179" y="668" type="line"/>
      <point x="274" y="668" type="line"/>
      <point x="274" y="797" type="line"/>
      <point x="179" y="797" type="line"/>
    </contour>
    <contour>
      <point x="310" y="668" type="line"/>
      <point x="405" y="668" type="line"/>
      <point x="405" y="797" type="line"/>
      <point x="310" y="797" type="line"/>
    </contour>
    <contour>
      <point x="179" y="-112" type="line"/>
      <point x="274" y="-112" type="line"/>
      <point x="274" y="17" type="line"/>
      <point x="179" y="17" type="line"/>
    </contour>
    <contour>
      <point x="310" y="-112" type="line"/>
      <point x="405" y="-112" type="line"/>
      <point x="405" y="17" type="line"/>
      <point x="310" y="17" type="line"/>
    </contour>
  </outline>
</glyph>
<glyph name="brevecmb.uc" format="2">
  <advance width="600"/>
  <outline>
    <contour>
      <point x="138" y="895" type="line"/>
      <point x="138" y="824"/>
      <point x="192" y="754"/>
      <point x="300" y="754" type="curve" smooth="yes"/>
      <point x="408" y="754"/>
      <point x="462" y="824"/>
      <point x="462" y="895" type="curve"/>
      <point x="354" y="895" type="line"/>
      <point x="354" y="866"/>
      <point x="334" y="844"/>
      <point x="300" y="844" type="curve" smooth="yes"/>
      <point x="266" y="844"/>
      <point x="246" y="866"/>
      <point x="246" y="895" type="curve"/>
    </contour>
  </outline>
</glyph>
<glyph name="brokenbar.uc" format="2">
  <advance width="300"/>
  <outline>
    <contour>
      <point x="79" y="745" type="line"/>
      <point x="79" y="382" type="line"/>
      <point x="222" y="382" type="line"/>
      <point x="222" y="745" type="line"/>
    </contour>
    <contour>
      <point x="79" y="280" type="line"/>
      <point x="79" y="-83" type="line"/>
      <point x="222" y="-83" type="line"/>
      <point x="222" y="280" type="line"/>
    </contour>
  </outline>
</glyph>
<glyph name="bullet.medium" format="2">
  <advance width="550"/>
  <outline>
    <contour>
      <point x="275" y="538" type="curve" smooth="yes"/>
      <point x="150" y="538"/>
      <point x="46" y="434"/>
      <point x="46" y="309" type="curve" smooth="yes"/>
      <point x="46" y="184"/>
      <point x="150" y="80"/>
      <point x="275" y="80" type="curve" smooth="yes"/>
      <point x="400" y="80"/>
      <point x="504" y="184"/>
      <point x="504" y="309" type="curve" smooth="yes"/>
      <point x="504" y="434"/>
      <point x="400" y="538"/>
    </contour>
  </outline>
</glyph>
<glyph name="circumflexcmb.uc" format="2">
  <advance width="600"/>
  <outline>
    <contour>
      <point x="230" y="892" type="line"/>
      <point x="110" y="760" type="line"/>
      <point x="233" y="760" type="line"/>
      <point x="354" y="845" type="line"/>
      <point x="246" y="845" type="line"/>
      <point x="367" y="760" type="line"/>
      <point x="490" y="760" type="line"/>
      <point x="370" y="892" type="line"/>
    </contour>
  </outline>
</glyph>
<glyph name="currency.tab" format="2">
  <advance width="600"/>
  <outline>
    <contour>
      <point x="307" y="234" type="curve" smooth="yes"/>
      <point x="246" y="234"/>
      <point x="201" y="281"/>
      <point x="201" y="345" type="curve" smooth="yes"/>
      <point x="201" y="409"/>
      <point x="246" y="456"/>
      <point x="307" y="456" type="curve" smooth="yes"/>
      <point x="368" y="456"/>
      <point x="413" y="409"/>
      <point x="413" y="345" type="curve" smooth="yes"/>
      <point x="413" y="281"/>
      <point x="368" y="234"/>
    </contour>
    <contour>
      <point x="307" y="122" type="curve" smooth="yes"/>
      <point x="430" y="122"/>
      <point x="527" y="221"/>
      <point x="527" y="345" type="curve" smooth="yes"/>
      <point x="527" y="469"/>
      <point x="430" y="568"/>
      <point x="307" y="568" type="curve" smooth="yes"/>
      <point x="184" y="568"/>
      <point x="87" y="469"/>
      <point x="87" y="345" type="curve" smooth="yes"/>
      <point x="87" y="221"/>
      <point x="184" y="122"/>
    </contour>
    <contour>
      <point x="221" y="180" type="line"/>
      <point x="142" y="259" type="line"/>
      <point x="40" y="157" type="line"/>
      <point x="119" y="78" type="line"/>
    </contour>
    <contour>
      <point x="472" y="431" type="line"/>
      <point x="574" y="533" type="line"/>
      <point x="495" y="612" type="line"/>
      <point x="393" y="510" type="line"/>
    </contour>
    <contour>
      <point x="142" y="431" type="line"/>
      <point x="221" y="510" type="line"/>
      <point x="119" y="612" type="line"/>
      <point x="40" y="533" type="line"/>
    </contour>
    <contour>
      <point x="495" y="78" type="line"/>
      <point x="574" y="157" type="line"/>
      <point x="472" y="259" type="line"/>
      <point x="393" y="180" type="line"/>
    </contour>
  </outline>
</glyph>
<glyph name="dotaccentcmb.uc" format="2">
  <advance width="600"/>
  <outline>
    <contour>
      <point x="225" y="899" type="line"/>
      <point x="225" y="760" type="line"/>
      <point x="375" y="760" type="line"/>
      <point x="375" y="899" type="line"/>
    </contour>
  </outline>
</glyph>
<glyph name="eight.den" format="2">
  <advance width="300"/>
  <outline>
    <contour>
      <point x="151" y="208" type="curve" smooth="yes"/>
      <point x="128" y="208"/>
      <point x="114" y="221"/>
      <point x="114" y="239" type="curve" smooth="yes"/>
      <point x="114" y="257"/>
      <point x="128" y="271"/>
      <point x="151" y="271" type="curve" smooth="yes"/>
      <point x="174" y="271"/>
      <point x="187" y="257"/>
      <point x="187" y="239" type="curve" smooth="yes"/>
      <point x="187" y="221"/>
      <point x="174" y="208"/>
    </contour>
    <contour>
      <point x="92" y="172" type="curve"/>
      <point x="92" y="181" type="line"/>
      <point x="49" y="172"/>
      <point x="14" y="145"/>
      <point x="14" y="96" type="curve" smooth="yes"/>
      <point x="14" y="38"/>
      <point x="64" y="-6"/>
      <point x="151" y="-6" type="curve" smooth="yes"/>
      <point x="238" y="-6"/>
      <point x="288" y="38"/>
      <point x="288" y="96" type="curve" smooth="yes"/>
      <point x="288" y="145"/>
      <point x="253" y="172"/>
      <point x="210" y="181" type="curve"/>
      <point x="210" y="172" type="line"/>
      <point x="246" y="179"/>
      <point x="277" y="202"/>
      <point x="277" y="244" type="curve" smooth="yes"/>
      <point x="277" y="296"/>
      <point x="234" y="337"/>
      <point x="151" y="337" type="curve" smooth="yes"/>
      <point x="68" y="337"/>
      <point x="25" y="296"/>
      <point x="25" y="244" type="curve" smooth="yes"/>
      <point x="25" y="202"/>
      <point x="56" y="179"/>
    </contour>
    <contour>
      <point x="151" y="143" type="curve" smooth="yes"/>
      <point x="178" y="143"/>
      <point x="196" y="127"/>
      <point x="196" y="102" type="curve" smooth="yes"/>
      <point x="196" y="78"/>
      <point x="178" y="60"/>
      <point x="151" y="60" type="curve" smooth="yes"/>
      <point x="124" y="60"/>
      <point x="106" y="78"/>
      <point x="106" y="102" type="curve" smooth="yes"/>
      <point x="106" y="127"/>
      <point x="124" y="143"/>
    </contour>
  </outline>
</glyph>
<glyph name="eight.num" format="2">
  <advance width="300"/>
  <outline>
    <contour>
      <point x="151" y="577" type="curve" smooth="yes"/>
      <point x="128" y="577"/>
      <point x="114" y="590"/>
      <point x="114" y="608" type="curve" smooth="yes"/>
      <point x="114" y="626"/>
      <point x="128" y="640"/>
      <point x="151" y="640" type="curve" smooth="yes"/>
      <point x="174" y="640"/>
      <point x="187" y="626"/>
      <point x="187" y="608" type="curve" smooth="yes"/>
      <point x="187" y="590"/>
      <point x="174" y="577"/>
    </contour>
    <contour>
      <point x="92" y="541" type="curve"/>
      <point x="92" y="550" type="line"/>
      <point x="49" y="541"/>
      <point x="14" y="514"/>
      <point x="14" y="465" type="curve" smooth="yes"/>
      <point x="14" y="407"/>
      <point x="64" y="363"/>
      <point x="151" y="363" type="curve" smooth="yes"/>
      <point x="238" y="363"/>
      <point x="288" y="407"/>
      <point x="288" y="465" type="curve" smooth="yes"/>
      <point x="288" y="514"/>
      <point x="253" y="541"/>
      <point x="210" y="550" type="curve"/>
      <point x="210" y="541" type="line"/>
      <point x="246" y="548"/>
      <point x="277" y="571"/>
      <point x="277" y="613" type="curve" smooth="yes"/>
      <point x="277" y="665"/>
      <point x="234" y="706"/>
      <point x="151" y="706" type="curve" smooth="yes"/>
      <point x="68" y="706"/>
      <point x="25" y="665"/>
      <point x="25" y="613" type="curve" smooth="yes"/>
      <point x="25" y="571"/>
      <point x="56" y="548"/>
    </contour>
    <contour>
      <point x="151" y="512" type="curve" smooth="yes"/>
      <point x="178" y="512"/>
      <point x="196" y="496"/>
      <point x="196" y="471" type="curve" smooth="yes"/>
      <point x="196" y="447"/>
      <point x="178" y="429"/>
      <point x="151" y="429" type="curve" smooth="yes"/>
      <point x="124" y="429"/>
      <point x="106" y="447"/>
      <point x="106" y="471" type="curve" smooth="yes"/>
      <point x="106" y="496"/>
      <point x="124" y="512"/>
    </contour>
  </outline>
</glyph>
<glyph name="eight.sub" format="2">
  <advance width="300"/>
  <outline>
    <contour>
      <point x="151" y="167" type="curve" smooth="yes"/>
      <point x="128" y="167"/>
      <point x="114" y="180"/>
      <point x="114" y="198" type="curve" smooth="yes"/>
      <point x="114" y="216"/>
      <point x="128" y="230"/>
      <point x="151" y="230" type="curve" smooth="yes"/>
      <point x="174" y="230"/>
      <point x="187" y="216"/>
      <point x="187" y="198" type="curve" smooth="yes"/>
      <point x="187" y="180"/>
      <point x="174" y="167"/>
    </contour>
    <contour>
      <point x="92" y="131" type="curve"/>
      <point x="92" y="140" type="line"/>
      <point x="49" y="131"/>
      <point x="14" y="104"/>
      <point x="14" y="55" type="curve" smooth="yes"/>
      <point x="14" y="-3"/>
      <point x="64" y="-47"/>
      <point x="151" y="-47" type="curve" smooth="yes"/>
      <point x="238" y="-47"/>
      <point x="288" y="-3"/>
      <point x="288" y="55" type="curve" smooth="yes"/>
      <point x="288" y="104"/>
      <point x="253" y="131"/>
      <point x="210" y="140" type="curve"/>
      <point x="210" y="131" type="line"/>
      <point x="246" y="138"/>
      <point x="277" y="161"/>
      <point x="277" y="203" type="curve" smooth="yes"/>
      <point x="277" y="255"/>
      <point x="234" y="296"/>
      <point x="151" y="296" type="curve" smooth="yes"/>
      <point x="68" y="296"/>
      <point x="25" y="255"/>
      <point x="25" y="203" type="curve" smooth="yes"/>
      <point x="25" y="161"/>
      <point x="56" y="138"/>
    </contour>
    <contour>
      <point x="151" y="102" type="curve" smooth="yes"/>
      <point x="178" y="102"/>
      <point x="196" y="86"/>
      <point x="196" y="61" type="curve" smooth="yes"/>
      <point x="196" y="37"/>
      <point x="178" y="19"/>
      <point x="151" y="19" type="curve" smooth="yes"/>
      <point x="124" y="19"/>
      <point x="106" y="37"/>
      <point x="106" y="61" type="curve" smooth="yes"/>
      <point x="106" y="86"/>
      <point x="124" y="102"/>
    </contour>
  </outline>
</glyph>
<glyph name="eight.sup" format="2">
  <advance width="300"/>
  <outline>
    <contour>
      <point x="151" y="677" type="curve" smooth="yes"/>
      <point x="128" y="677"/>
      <point x="114" y="690"/>
      <point x="114" y="708" type="curve" smooth="yes"/>
      <point x="114" y="726"/>
      <point x="128" y="740"/>
      <point x="151" y="740" type="curve" smooth="yes"/>
      <point x="174" y="740"/>
      <point x="187" y="726"/>
      <point x="187" y="708" type="curve" smooth="yes"/>
      <point x="187" y="690"/>
      <point x="174" y="677"/>
    </contour>
    <contour>
      <point x="92" y="641" type="curve"/>
      <point x="92" y="650" type="line"/>
      <point x="49" y="641"/>
      <point x="14" y="614"/>
      <point x="14" y="565" type="curve" smooth="yes"/>
      <point x="14" y="507"/>
      <point x="64" y="463"/>
      <point x="151" y="463" type="curve" smooth="yes"/>
      <point x="238" y="463"/>
      <point x="288" y="507"/>
      <point x="288" y="565" type="curve" smooth="yes"/>
      <point x="288" y="614"/>
      <point x="253" y="641"/>
      <point x="210" y="650" type="curve"/>
      <point x="210" y="641" type="line"/>
      <point x="246" y="648"/>
      <point x="277" y="671"/>
      <point x="277" y="713" type="curve" smooth="yes"/>
      <point x="277" y="765"/>
      <point x="234" y="806"/>
      <point x="151" y="806" type="curve" smooth="yes"/>
      <point x="68" y="806"/>
      <point x="25" y="765"/>
      <point x="25" y="713" type="curve" smooth="yes"/>
      <point x="25" y="671"/>
      <point x="56" y="648"/>
    </contour>
    <contour>
      <point x="151" y="612" type="curve" smooth="yes"/>
      <point x="178" y="612"/>
      <point x="196" y="596"/>
      <point x="196" y="571" type="curve" smooth="yes"/>
      <point x="196" y="547"/>
      <point x="178" y="529"/>
      <point x="151" y="529" type="curve" smooth="yes"/>
      <point x="124" y="529"/>
      <point x="106" y="547"/>
      <point x="106" y="571" type="curve" smooth="yes"/>
      <point x="106" y="596"/>
      <point x="124" y="612"/>
    </contour>
  </outline>
</glyph>
<glyph name="emdash.uc" format="2">
  <advance width="880"/>
  <outline>
    <contour>
      <point x="54" y="276" type="line"/>
      <point x="826" y="276" type="line"/>
      <point x="826" y="396" type="line"/>
      <point x="54" y="396" type="line"/>
    </contour>
  </outline>
</glyph>
<glyph name="endash.uc" format="2">
  <advance width="680"/>
  <outline>
    <contour>
      <point x="115" y="276" type="line"/>
      <point x="565" y="276" type="line"/>
      <point x="565" y="396" type="line"/>
      <point x="115" y="396" type="line"/>
    </contour>
  </outline>
</glyph>
<glyph name="fhook.tab" format="2">
  <advance width="600"/>
  <outline>
    <contour>
      <point x="150" y="366" type="line"/>
      <point x="512" y="366" type="line"/>
      <point x="512" y="470" type="line"/>
      <point x="150" y="470" type="line"/>
    </contour>
    <contour>
      <point x="315" y="149" type="curve" smooth="yes"/>
      <point x="442" y="542" type="line" smooth="yes"/>
      <point x="455" y="583"/>
      <point x="474" y="600"/>
      <point x="515" y="600" type="curve" smooth="yes"/>
      <point x="525" y="600"/>
      <point x="541" y="599"/>
      <point x="557" y="597" type="curve"/>
      <point x="557" y="708" type="line"/>
      <point x="536" y="711"/>
      <point x="513" y="712"/>
      <point x="498" y="712" type="curve" smooth="yes"/>
      <point x="392" y="712"/>
      <point x="337" y="661"/>
      <point x="303" y="554" type="curve" smooth="yes"/>
      <point x="176" y="158" type="line" smooth="yes"/>
      <point x="163" y="118"/>
      <point x="149" y="100"/>
      <point x="102" y="100" type="curve" smooth="yes"/>
      <point x="90" y="100"/>
      <point x="79" y="101"/>
      <point x="60" y="104" type="curve"/>
      <point x="60" y="-7" type="line"/>
      <point x="77" y="-10"/>
      <point x="99" y="-12"/>
      <point x="120" y="-12" type="curve" smooth="yes"/>
      <point x="218" y="-12"/>
      <point x="279" y="38"/>
    </contour>
  </outline>
</glyph>
<glyph name="five.den" format="2">
  <advance width="300"/>
  <outline>
    <contour>
      <point x="24" y="116" type="line"/>
      <point x="27" y="34"/>
      <point x="74" y="-7"/>
      <point x="153" y="-7" type="curve" smooth="yes"/>
      <point x="235" y="-7"/>
      <point x="276" y="42"/>
      <point x="276" y="115" type="curve" smooth="yes"/>
      <point x="276" y="178"/>
      <point x="244" y="225"/>
      <point x="178" y="225" type="curve" smooth="yes"/>
      <point x="130" y="225"/>
      <point x="102" y="196"/>
      <point x="92" y="166" type="curve"/>
      <point x="118" y="166" type="line"/>
      <point x="136" y="312" type="line"/>
      <point x="91" y="253" type="line"/>
      <point x="266" y="253" type="line"/>
      <point x="266" y="331" type="line"/>
      <point x="53" y="331" type="line"/>
      <point x="32" y="141" type="line"/>
      <point x="121" y="135" type="line"/>
      <point x="126" y="145"/>
      <point x="137" y="155"/>
      <point x="151" y="155" type="curve" smooth="yes"/>
      <point x="172" y="155"/>
      <point x="182" y="138"/>
      <point x="182" y="112" type="curve" smooth="yes"/>
      <point x="182" y="86"/>
      <point x="173" y="65"/>
      <point x="152" y="65" type="curve" smooth="yes"/>
      <point x="132" y="65"/>
      <point x="123" y="81"/>
      <point x="122" y="104" type="curve"/>
    </contour>
  </outline>
</glyph>
<glyph name="five.num" format="2">
  <advance width="300"/>
  <outline>
    <contour>
      <point x="24" y="485" type="line"/>
      <point x="27" y="403"/>
      <point x="74" y="362"/>
      <point x="153" y="362" type="curve" smooth="yes"/>
      <point x="235" y="362"/>
      <point x="276" y="411"/>
      <point x="276" y="484" type="curve" smooth="yes"/>
      <point x="276" y="547"/>
      <point x="244" y="594"/>
      <point x="178" y="594" type="curve" smooth="yes"/>
      <point x="130" y="594"/>
      <point x="102" y="565"/>
      <point x="92" y="535" type="curve"/>
      <point x="118" y="535" type="line"/>
      <point x="136" y="681" type="line"/>
      <point x="91" y="622" type="line"/>
      <point x="266" y="622" type="line"/>
      <point x="266" y="700" type="line"/>
      <point x="53" y="700" type="line"/>
      <point x="32" y="510" type="line"/>
      <point x="121" y="504" type="line"/>
      <point x="126" y="514"/>
      <point x="137" y="524"/>
      <point x="151" y="524" type="curve" smooth="yes"/>
      <point x="172" y="524"/>
      <point x="182" y="507"/>
      <point x="182" y="481" type="curve" smooth="yes"/>
      <point x="182" y="455"/>
      <point x="173" y="434"/>
      <point x="152" y="434" type="curve" smooth="yes"/>
      <point x="132" y="434"/>
      <point x="123" y="450"/>
      <point x="122" y="473" type="curve"/>
    </contour>
  </outline>
</glyph>
<glyph name="five.sub" format="2">
  <advance width="300"/>
  <outline>
    <contour>
      <point x="24" y="75" type="line"/>
      <point x="27" y="-7"/>
      <point x="74" y="-48"/>
      <point x="153" y="-48" type="curve" smooth="yes"/>
      <point x="235" y="-48"/>
      <point x="276" y="1"/>
      <point x="276" y="74" type="curve" smooth="yes"/>
      <point x="276" y="137"/>
      <point x="244" y="184"/>
      <point x="178" y="184" type="curve" smooth="yes"/>
      <point x="130" y="184"/>
      <point x="102" y="155"/>
      <point x="92" y="125" type="curve"/>
      <point x="118" y="125" type="line"/>
      <point x="136" y="271" type="line"/>
      <point x="91" y="212" type="line"/>
      <point x="266" y="212" type="line"/>
      <point x="266" y="290" type="line"/>
      <point x="53" y="290" type="line"/>
      <point x="32" y="100" type="line"/>
      <point x="121" y="94" type="line"/>
      <point x="126" y="104"/>
      <point x="137" y="114"/>
      <point x="151" y="114" type="curve" smooth="yes"/>
      <point x="172" y="114"/>
      <point x="182" y="97"/>
      <point x="182" y="71" type="curve" smooth="yes"/>
      <point x="182" y="45"/>
      <point x="173" y="24"/>
      <point x="152" y="24" type="curve" smooth="yes"/>
      <point x="132" y="24"/>
      <point x="123" y="40"/>
      <point x="122" y="63" type="curve"/>
    </contour>
  </outline>
</glyph>
<glyph name="five.sup" format="2">
  <advance width="300"/>
  <outline>
    <contour>
      <point x="24" y="585" type="line"/>
      <point x="27" y="503"/>
      <point x="74" y="462"/>
      <point x="153" y="462" type="curve" smooth="yes"/>
      <point x="235" y="462"/>
      <point x="276" y="511"/>
      <point x="276" y="584" type="curve" smooth="yes"/>
      <point x="276" y="647"/>
      <point x="244" y="694"/>
      <point x="178" y="694" type="curve" smooth="yes"/>
      <point x="130" y="694"/>
      <point x="102" y="665"/>
      <point x="92" y="635" type="curve"/>
      <point x="118" y="635" type="line"/>
      <point x="136" y="781" type="line"/>
      <point x="91" y="722" type="line"/>
      <point x="266" y="722" type="line"/>
      <point x="266" y="800" type="line"/>
      <point x="53" y="800" type="line"/>
      <point x="32" y="610" type="line"/>
      <point x="121" y="604" type="line"/>
      <point x="126" y="614"/>
      <point x="137" y="624"/>
      <point x="151" y="624" type="curve" smooth="yes"/>
      <point x="172" y="624"/>
      <point x="182" y="607"/>
      <point x="182" y="581" type="curve" smooth="yes"/>
      <point x="182" y="555"/>
      <point x="173" y="534"/>
      <point x="152" y="534" type="curve" smooth="yes"/>
      <point x="132" y="534"/>
      <point x="123" y="550"/>
      <point x="122" y="573" type="curve"/>
    </contour>
  </outline>
</glyph>
<glyph name="five.tab" format="2">
  <advance width="600"/>
  <outline>
    <contour>
      <point x="42" y="213" type="line"/>
      <point x="48" y="66"/>
      <point x="159" y="-12"/>
      <point x="303" y="-12" type="curve" smooth="yes"/>
      <point x="462" y="-12"/>
      <point x="560" y="80"/>
      <point x="560" y="235" type="curve" smooth="yes"/>
      <point x="560" y="381"/>
      <point x="480" y="475"/>
      <point x="348" y="475" type="curve" smooth="yes"/>
      <point x="243" y="475"/>
      <point x="177" y="411"/>
      <point x="159" y="353" type="curve"/>
      <point x="203" y="353" type="line"/>
      <point x="230" y="660" type="line"/>
      <point x="160" y="580" type="line"/>
      <point x="533" y="580" type="line"/>
      <point x="533" y="700" type="line"/>
      <point x="106" y="700" type="line"/>
      <point x="72" y="305" type="line"/>
      <point x="201" y="288" type="line"/>
      <point x="218" y="330"/>
      <point x="254" y="361"/>
      <point x="310" y="361" type="curve" smooth="yes"/>
      <point x="383" y="361"/>
      <point x="418" y="308"/>
      <point x="418" y="235" type="curve" smooth="yes"/>
      <point x="418" y="152"/>
      <point x="377" y="104"/>
      <point x="301" y="104" type="curve" smooth="yes"/>
      <point x="230" y="104"/>
      <point x="199" y="152"/>
      <point x="196" y="196" type="curve"/>
    </contour>
  </outline>
</glyph>
<glyph name="four.den" format="2">
  <advance width="300"/>
  <outline>
    <contour>
      <point x="237" y="333" type="line"/>
      <point x="120" y="333" type="line"/>
      <point x="16" y="136" type="line"/>
      <point x="16" y="59" type="line"/>
      <point x="285" y="59" type="line"/>
      <point x="285" y="133" type="line"/>
      <point x="57" y="133" type="line"/>
      <point x="78" y="109" type="line"/>
      <point x="186" y="317" type="line"/>
      <point x="152" y="314" type="line"/>
      <point x="152" y="0" type="line"/>
      <point x="237" y="0" type="line"/>
    </contour>
  </outline>
</glyph>
<glyph name="four.num" format="2">
  <advance width="300"/>
  <outline>
    <contour>
      <point x="237" y="700" type="line"/>
      <point x="120" y="700" type="line"/>
      <point x="16" y="503" type="line"/>
      <point x="16" y="426" type="line"/>
      <point x="285" y="426" type="line"/>
      <point x="285" y="500" type="line"/>
      <point x="57" y="500" type="line"/>
      <point x="78" y="476" type="line"/>
      <point x="186" y="684" type="line"/>
      <point x="152" y="681" type="line"/>
      <point x="152" y="367" type="line"/>
      <point x="237" y="367" type="line"/>
    </contour>
  </outline>
</glyph>
<glyph name="four.sub" format="2">
  <advance width="300"/>
  <outline>
    <contour>
      <point x="237" y="290" type="line"/>
      <point x="120" y="290" type="line"/>
      <point x="16" y="93" type="line"/>
      <point x="16" y="16" type="line"/>
      <point x="285" y="16" type="line"/>
      <point x="285" y="90" type="line"/>
      <point x="57" y="90" type="line"/>
      <point x="78" y="66" type="line"/>
      <point x="186" y="274" type="line"/>
      <point x="152" y="271" type="line"/>
      <point x="152" y="-43" type="line"/>
      <point x="237" y="-43" type="line"/>
    </contour>
  </outline>
</glyph>
<glyph name="four.sup" format="2">
  <advance width="300"/>
  <outline>
    <contour>
      <point x="237" y="800" type="line"/>
      <point x="120" y="800" type="line"/>
      <point x="16" y="603" type="line"/>
      <point x="16" y="526" type="line"/>
      <point x="285" y="526" type="line"/>
      <point x="285" y="600" type="line"/>
      <point x="57" y="600" type="line"/>
      <point x="78" y="576" type="line"/>
      <point x="186" y="784" type="line"/>
      <point x="152" y="781" type="line"/>
      <point x="152" y="467" type="line"/>
      <point x="237" y="467" type="line"/>
    </contour>
  </outline>
</glyph>
<glyph name="guillemetright.uc" format="2">
  <advance width="500"/>
  <outline>
    <contour>
      <point x="210" y="530" type="line"/>
      <point x="348" y="530" type="line"/>
      <point x="488" y="356" type="line"/>
      <point x="488" y="314" type="line"/>
      <point x="348" y="140" type="line"/>
      <point x="210" y="140" type="line"/>
      <point x="387" y="360" type="line"/>
      <point x="387" y="310" type="line"/>
    </contour>
    <contour>
      <point x="13" y="530" type="line"/>
      <point x="151" y="530" type="line"/>
      <point x="291" y="356" type="line"/>
      <point x="291" y="314" type="line"/>
      <point x="151" y="140" type="line"/>
      <point x="13" y="140" type="line"/>
      <point x="190" y="360" type="line"/>
      <point x="190" y="310" type="line"/>
    </contour>
  </outline>
</glyph>
<glyph name="guilsinglright.uc" format="2">
  <advance width="300"/>
  <outline>
    <contour>
      <point x="11" y="530" type="line"/>
      <point x="149" y="530" type="line"/>
      <point x="289" y="356" type="line"/>
      <point x="289" y="314" type="line"/>
      <point x="149" y="140" type="line"/>
      <point x="11" y="140" type="line"/>
      <point x="188" y="360" type="line"/>
      <point x="188" y="310" type="line"/>
    </contour>
  </outline>
</glyph>
<glyph name="horncmb.uc" format="2">
  <advance width="600"/>
  <outline>
    <contour>
      <point x="280" y="791" type="line"/>
      <point x="285" y="774"/>
      <point x="287" y="755"/>
      <point x="287" y="740" type="curve" smooth="yes"/>
      <point x="287" y="707"/>
      <point x="269" y="700"/>
      <point x="232" y="700" type="curve" smooth="yes"/>
      <point x="164" y="700" type="line"/>
      <point x="164" y="601" type="line"/>
      <point x="242" y="601" type="line" smooth="yes"/>
      <point x="361" y="601"/>
      <point x="399" y="633"/>
      <point x="399" y="730" type="curve" smooth="yes"/>
      <point x="399" y="751"/>
      <point x="396" y="776"/>
      <point x="391" y="791" type="curve"/>
    </contour>
  </outline>
</glyph>
<glyph name="hyphen.uc" format="2">
  <advance width="600"/>
  <outline>
    <contour>
      <point x="135" y="265" type="line"/>
      <point x="465" y="265" type="line"/>
      <point x="465" y="407" type="line"/>
      <point x="135" y="407" type="line"/>
    </contour>
  </outline>
</glyph>
<glyph name="lessequal.tab" format="2">
  <advance width="600"/>
  <outline>
    <contour>
      <point x="544" y="0" type="line"/>
      <point x="544" y="120" type="line"/>
      <point x="56" y="120" type="line"/>
      <point x="56" y="0" type="line"/>
    </contour>
    <contour>
      <point x="56" y="483" type="line"/>
      <point x="56" y="358" type="line"/>
      <point x="544" y="158" type="line"/>
      <point x="544" y="285" type="line"/>
      <point x="124" y="455" type="line"/>
      <point x="124" y="386" type="line"/>
      <point x="544" y="556" type="line"/>
      <point x="544" y="683" type="line"/>
    </contour>
  </outline>
</glyph>
<glyph name="macronbelowcmb.uc" format="2">
  <advance width="600"/>
  <outline>
    <contour>
      <point x="143" y="-177" type="line"/>
      <point x="457" y="-177" type="line"/>
      <point x="457" y="-77" type="line"/>
      <point x="143" y="-77" type="line"/>
    </contour>
  </outline>
</glyph>
<glyph name="multiply.tab" format="2">
  <advance width="600"/>
  <outline>
    <contour>
      <point x="64" y="185" type="line"/>
      <point x="146" y="103" type="line"/>
      <point x="538" y="495" type="line"/>
      <point x="456" y="577" type="line"/>
    </contour>
    <contour>
      <point x="64" y="495" type="line"/>
      <point x="456" y="103" type="line"/>
      <point x="538" y="185" type="line"/>
      <point x="146" y="577" type="line"/>
    </contour>
  </outline>
</glyph>
<glyph name="nine.den" format="2">
  <advance width="300"/>
  <outline>
    <contour>
      <point x="152" y="337" type="curve" smooth="yes"/>
      <point x="63" y="337"/>
      <point x="20" y="286"/>
      <point x="20" y="218" type="curve" smooth="yes"/>
      <point x="20" y="150"/>
      <point x="63" y="113"/>
      <point x="122" y="113" type="curve" smooth="yes"/>
      <point x="176" y="113"/>
      <point x="207" y="139"/>
      <point x="215" y="187" type="curve"/>
      <point x="193" y="187" type="line"/>
      <point x="193" y="157" type="line" smooth="yes"/>
      <point x="193" y="108"/>
      <point x="183" y="62"/>
      <point x="151" y="62" type="curve" smooth="yes"/>
      <point x="133" y="62"/>
      <point x="122" y="75"/>
      <point x="121" y="96" type="curve"/>
      <point x="21" y="109" type="line"/>
      <point x="25" y="35"/>
      <point x="76" y="-6"/>
      <point x="148" y="-6" type="curve" smooth="yes"/>
      <point x="246" y="-6"/>
      <point x="287" y="57"/>
      <point x="287" y="172" type="curve" smooth="yes"/>
      <point x="287" y="227"/>
      <point x="279" y="258"/>
      <point x="259" y="288" type="curve" smooth="yes"/>
      <point x="239" y="317"/>
      <point x="203" y="337"/>
    </contour>
    <contour>
      <point x="152" y="176" type="curve" smooth="yes"/>
      <point x="129" y="176"/>
      <point x="114" y="195"/>
      <point x="114" y="222" type="curve" smooth="yes"/>
      <point x="114" y="249"/>
      <point x="129" y="268"/>
      <point x="152" y="268" type="curve" smooth="yes"/>
      <point x="175" y="268"/>
      <point x="190" y="249"/>
      <point x="190" y="222" type="curve" smooth="yes"/>
      <point x="190" y="195"/>
      <point x="175" y="176"/>
    </contour>
  </outline>
</glyph>
<glyph name="nine.num" format="2">
  <advance width="300"/>
  <outline>
    <contour>
      <point x="152" y="706" type="curve" smooth="yes"/>
      <point x="63" y="706"/>
      <point x="20" y="655"/>
      <point x="20" y="587" type="curve" smooth="yes"/>
      <point x="20" y="519"/>
      <point x="63" y="482"/>
      <point x="122" y="482" type="curve" smooth="yes"/>
      <point x="176" y="482"/>
      <point x="207" y="508"/>
      <point x="215" y="556" type="curve"/>
      <point x="193" y="556" type="line"/>
      <point x="193" y="526" type="line" smooth="yes"/>
      <point x="193" y="477"/>
      <point x="183" y="431"/>
      <point x="151" y="431" type="curve" smooth="yes"/>
      <point x="133" y="431"/>
      <point x="122" y="444"/>
      <point x="121" y="465" type="curve"/>
      <point x="21" y="478" type="line"/>
      <point x="25" y="404"/>
      <point x="76" y="363"/>
      <point x="148" y="363" type="curve" smooth="yes"/>
      <point x="246" y="363"/>
      <point x="287" y="426"/>
      <point x="287" y="541" type="curve" smooth="yes"/>
      <point x="287" y="596"/>
      <point x="279" y="627"/>
      <point x="259" y="657" type="curve" smooth="yes"/>
      <point x="239" y="686"/>
      <point x="203" y="706"/>
    </contour>
    <contour>
      <point x="152" y="545" type="curve" smooth="yes"/>
      <point x="129" y="545"/>
      <point x="114" y="564"/>
      <point x="114" y="591" type="curve" smooth="yes"/>
      <point x="114" y="618"/>
      <point x="129" y="637"/>
      <point x="152" y="637" type="curve" smooth="yes"/>
      <point x="175" y="637"/>
      <point x="190" y="618"/>
      <point x="190" y="591" type="curve" smooth="yes"/>
      <point x="190" y="564"/>
      <point x="175" y="545"/>
    </contour>
  </outline>
</glyph>
<glyph name="nine.sub" format="2">
  <advance width="300"/>
  <outline>
    <contour>
      <point x="152" y="296" type="curve" smooth="yes"/>
      <point x="63" y="296"/>
      <point x="20" y="245"/>
      <point x="20" y="177" type="curve" smooth="yes"/>
      <point x="20" y="109"/>
      <point x="63" y="72"/>
      <point x="122" y="72" type="curve" smooth="yes"/>
      <point x="176" y="72"/>
      <point x="207" y="98"/>
      <point x="215" y="146" type="curve"/>
      <point x="193" y="146" type="line"/>
      <point x="193" y="116" type="line" smooth="yes"/>
      <point x="193" y="67"/>
      <point x="183" y="21"/>
      <point x="151" y="21" type="curve" smooth="yes"/>
      <point x="133" y="21"/>
      <point x="122" y="34"/>
      <point x="121" y="55" type="curve"/>
      <point x="21" y="68" type="line"/>
      <point x="25" y="-6"/>
      <point x="76" y="-47"/>
      <point x="148" y="-47" type="curve" smooth="yes"/>
      <point x="246" y="-47"/>
      <point x="287" y="16"/>
      <point x="287" y="131" type="curve" smooth="yes"/>
      <point x="287" y="186"/>
      <point x="279" y="217"/>
      <point x="259" y="247" type="curve" smooth="yes"/>
      <point x="239" y="276"/>
      <point x="203" y="296"/>
    </contour>
    <contour>
      <point x="152" y="135" type="curve" smooth="yes"/>
      <point x="129" y="135"/>
      <point x="114" y="154"/>
      <point x="114" y="181" type="curve" smooth="yes"/>
      <point x="114" y="208"/>
      <point x="129" y="227"/>
      <point x="152" y="227" type="curve" smooth="yes"/>
      <point x="175" y="227"/>
      <point x="190" y="208"/>
      <point x="190" y="181" type="curve" smooth="yes"/>
      <point x="190" y="154"/>
      <point x="175" y="135"/>
    </contour>
  </outline>
</glyph>
<glyph name="nine.sup" format="2">
  <advance width="300"/>
  <outline>
    <contour>
      <point x="152" y="806" type="curve" smooth="yes"/>
      <point x="63" y="806"/>
      <point x="20" y="755"/>
      <point x="20" y="687" type="curve" smooth="yes"/>
      <point x="20" y="619"/>
      <point x="63" y="582"/>
      <point x="122" y="582" type="curve" smooth="yes"/>
      <point x="176" y="582"/>
      <point x="207" y="608"/>
      <point x="215" y="656" type="curve"/>
      <point x="193" y="656" type="line"/>
      <point x="193" y="626" type="line" smooth="yes"/>
      <point x="193" y="577"/>
      <point x="183" y="531"/>
      <point x="151" y="531" type="curve" smooth="yes"/>
      <point x="133" y="531"/>
      <point x="122" y="544"/>
      <point x="121" y="565" type="curve"/>
      <point x="21" y="578" type="line"/>
      <point x="25" y="504"/>
      <point x="76" y="463"/>
      <point x="148" y="463" type="curve" smooth="yes"/>
      <point x="246" y="463"/>
      <point x="287" y="526"/>
      <point x="287" y="641" type="curve" smooth="yes"/>
      <point x="287" y="696"/>
      <point x="279" y="727"/>
      <point x="259" y="757" type="curve" smooth="yes"/>
      <point x="239" y="786"/>
      <point x="203" y="806"/>
    </contour>
    <contour>
      <point x="152" y="645" type="curve" smooth="yes"/>
      <point x="129" y="645"/>
      <point x="114" y="664"/>
      <point x="114" y="691" type="curve" smooth="yes"/>
      <point x="114" y="718"/>
      <point x="129" y="737"/>
      <point x="152" y="737" type="curve" smooth="yes"/>
      <point x="175" y="737"/>
      <point x="190" y="718"/>
      <point x="190" y="691" type="curve" smooth="yes"/>
      <point x="190" y="664"/>
      <point x="175" y="645"/>
    </contour>
  </outline>
</glyph>
<glyph name="nine.tab" format="2">
  <advance width="600"/>
  <outline>
    <contour>
      <point x="292" y="712" type="curve" smooth="yes"/>
      <point x="133" y="712"/>
      <point x="38" y="601"/>
      <point x="38" y="469" type="curve" smooth="yes"/>
      <point x="38" y="321"/>
      <point x="146" y="231"/>
      <point x="266" y="231" type="curve" smooth="yes"/>
      <point x="364" y="231"/>
      <point x="444" y="291"/>
      <point x="460" y="396" type="curve"/>
      <point x="415" y="396" type="line"/>
      <point x="415" y="332" type="line" smooth="yes"/>
      <point x="415" y="202"/>
      <point x="383" y="98"/>
      <point x="283" y="98" type="curve" smooth="yes"/>
      <point x="228" y="98"/>
      <point x="195" y="127"/>
      <point x="189" y="179" type="curve"/>
      <point x="37" y="209" type="line"/>
      <point x="43" y="78"/>
      <point x="129" y="-12"/>
      <point x="281" y="-12" type="curve" smooth="yes"/>
      <point x="463" y="-12"/>
      <point x="554" y="117"/>
      <point x="554" y="363" type="curve" smooth="yes"/>
      <point x="554" y="478"/>
      <point x="539" y="551"/>
      <point x="501" y="610" type="curve" smooth="yes"/>
      <point x="458" y="678"/>
      <point x="379" y="712"/>
    </contour>
    <contour>
      <point x="292" y="595" type="curve" smooth="yes"/>
      <point x="353" y="595"/>
      <point x="405" y="553"/>
      <point x="405" y="471" type="curve" smooth="yes"/>
      <point x="405" y="389"/>
      <point x="353" y="347"/>
      <point x="292" y="347" type="curve" smooth="yes"/>
      <point x="231" y="347"/>
      <point x="180" y="389"/>
      <point x="180" y="471" type="curve" smooth="yes"/>
      <point x="180" y="553"/>
      <point x="231" y="595"/>
    </contour>
  </outline>
</glyph>
<glyph name="one.den" format="2">
  <advance width="300"/>
  <outline>
    <contour>
      <point x="129" y="333" type="line"/>
      <point x="129" y="275"/>
      <point x="113" y="257"/>
      <point x="50" y="257" type="curve"/>
      <point x="50" y="186" type="line"/>
      <point x="175" y="186" type="line"/>
      <point x="122" y="249" type="line"/>
      <point x="122" y="0" type="line"/>
      <point x="215" y="0" type="line"/>
      <point x="215" y="333" type="line"/>
    </contour>
  </outline>
</glyph>
<glyph name="one.num" format="2">
  <advance width="300"/>
  <outline>
    <contour>
      <point x="129" y="700" type="line"/>
      <point x="129" y="642"/>
      <point x="113" y="624"/>
      <point x="50" y="624" type="curve"/>
      <point x="50" y="553" type="line"/>
      <point x="175" y="553" type="line"/>
      <point x="122" y="616" type="line"/>
      <point x="122" y="367" type="line"/>
      <point x="215" y="367" type="line"/>
      <point x="215" y="700" type="line"/>
    </contour>
  </outline>
</glyph>
<glyph name="one.sub" format="2">
  <advance width="300"/>
  <outline>
    <contour>
      <point x="129" y="290" type="line"/>
      <point x="129" y="232"/>
      <point x="113" y="214"/>
      <point x="50" y="214" type="curve"/>
      <point x="50" y="143" type="line"/>
      <point x="175" y="143" type="line"/>
      <point x="122" y="206" type="line"/>
      <point x="122" y="-43" type="line"/>
      <point x="215" y="-43" type="line"/>
      <point x="215" y="290" type="line"/>
    </contour>
  </outline>
</glyph>
<glyph name="one.sup" format="2">
  <advance width="300"/>
  <outline>
    <contour>
      <point x="129" y="800" type="line"/>
      <point x="129" y="742"/>
      <point x="113" y="724"/>
      <point x="50" y="724" type="curve"/>
      <point x="50" y="653" type="line"/>
      <point x="175" y="653" type="line"/>
      <point x="122" y="716" type="line"/>
      <point x="122" y="467" type="line"/>
      <point x="215" y="467" type="line"/>
      <point x="215" y="800" type="line"/>
    </contour>
  </outline>
</glyph>
<glyph name="one.tab" format="2">
  <advance width="600"/>
  <outline>
    <contour>
      <point x="266" y="700" type="line"/>
      <point x="266" y="589"/>
      <point x="215" y="555"/>
      <point x="64" y="555" type="curve"/>
      <point x="64" y="450" type="line"/>
      <point x="338" y="450" type="line"/>
      <point x="255" y="540" type="line"/>
      <point x="255" y="0" type="line"/>
      <point x="398" y="0" type="line"/>
      <point x="398" y="700" type="line"/>
    </contour>
    <contour>
      <point x="64" y="0" type="line"/>
      <point x="563" y="0" type="line"/>
      <point x="563" y="120" type="line"/>
      <point x="64" y="120" type="line"/>
    </contour>
  </outline>
</glyph>
<glyph name="plus.sub" format="2">
  <advance width="450"/>
  <outline>
    <contour>
      <point x="98" y="84" type="line"/>
      <point x="352" y="84" type="line"/>
      <point x="352" y="166" type="line"/>
      <point x="98" y="166" type="line"/>
    </contour>
    <contour>
      <point x="182" y="259" type="line"/>
      <point x="182" y="-9" type="line"/>
      <point x="268" y="-9" type="line"/>
      <point x="268" y="259" type="line"/>
    </contour>
  </outline>
</glyph>
<glyph name="seven.den" format="2">
  <advance width="300"/>
  <outline>
    <contour>
      <point x="23" y="333" type="line"/>
      <point x="23" y="196" type="line"/>
      <point x="109" y="196" type="line"/>
      <point x="109" y="286" type="line"/>
      <point x="75" y="257" type="line"/>
      <point x="240" y="257" type="line"/>
      <point x="215" y="294" type="line"/>
      <point x="150" y="200"/>
      <point x="102" y="114"/>
      <point x="97" y="0" type="curve"/>
      <point x="193" y="0" type="line"/>
      <point x="199" y="111"/>
      <point x="233" y="188"/>
      <point x="287" y="277" type="curve"/>
      <point x="287" y="333" type="line"/>
    </contour>
  </outline>
</glyph>
<glyph name="seven.num" format="2">
  <advance width="300"/>
  <outline>
    <contour>
      <point x="23" y="700" type="line"/>
      <point x="23" y="563" type="line"/>
      <point x="109" y="563" type="line"/>
      <point x="109" y="653" type="line"/>
      <point x="75" y="624" type="line"/>
      <point x="240" y="624" type="line"/>
      <point x="215" y="661" type="line"/>
      <point x="150" y="567"/>
      <point x="102" y="481"/>
      <point x="97" y="367" type="curve"/>
      <point x="193" y="367" type="line"/>
      <point x="199" y="478"/>
      <point x="233" y="555"/>
      <point x="287" y="644" type="curve"/>
      <point x="287" y="700" type="line"/>
    </contour>
  </outline>
</glyph>
<glyph name="seven.sub" format="2">
  <advance width="300"/>
  <outline>
    <contour>
      <point x="23" y="290" type="line"/>
      <point x="23" y="153" type="line"/>
      <point x="109" y="153" type="line"/>
      <point x="109" y="243" type="line"/>
      <point x="75" y="214" type="line"/>
      <point x="240" y="214" type="line"/>
      <point x="215" y="251" type="line"/>
      <point x="150" y="157"/>
      <point x="102" y="71"/>
      <point x="97" y="-43" type="curve"/>
      <point x="193" y="-43" type="line"/>
      <point x="199" y="68"/>
      <point x="233" y="145"/>
      <point x="287" y="234" type="curve"/>
      <point x="287" y="290" type="line"/>
    </contour>
  </outline>
</glyph>
<glyph name="seven.sup" format="2">
  <advance width="300"/>
  <outline>
    <contour>
      <point x="23" y="800" type="line"/>
      <point x="23" y="663" type="line"/>
      <point x="109" y="663" type="line"/>
      <point x="109" y="753" type="line"/>
      <point x="75" y="724" type="line"/>
      <point x="240" y="724" type="line"/>
      <point x="215" y="761" type="line"/>
      <point x="150" y="667"/>
      <point x="102" y="581"/>
      <point x="97" y="467" type="curve"/>
      <point x="193" y="467" type="line"/>
      <point x="199" y="578"/>
      <point x="233" y="655"/>
      <point x="287" y="744" type="curve"/>
      <point x="287" y="800" type="line"/>
    </contour>
  </outline>
</glyph>
<glyph name="six.den" format="2">
  <advance width="300"/>
  <outline>
    <contour>
      <point x="149" y="-6" type="curve" smooth="yes"/>
      <point x="238" y="-6"/>
      <point x="281" y="49"/>
      <point x="281" y="110" type="curve" smooth="yes"/>
      <point x="281" y="178"/>
      <point x="241" y="221"/>
      <point x="178" y="221" type="curve" smooth="yes"/>
      <point x="126" y="221"/>
      <point x="90" y="192"/>
      <point x="81" y="144" type="curve"/>
      <point x="107" y="144" type="line"/>
      <point x="107" y="173" type="line" smooth="yes"/>
      <point x="107" y="236"/>
      <point x="132" y="262"/>
      <point x="158" y="262" type="curve" smooth="yes"/>
      <point x="173" y="262"/>
      <point x="182" y="255"/>
      <point x="183" y="238" type="curve"/>
      <point x="276" y="228" type="line"/>
      <point x="273" y="295"/>
      <point x="231" y="337"/>
      <point x="161" y="337" type="curve" smooth="yes"/>
      <point x="70" y="337"/>
      <point x="13" y="266"/>
      <point x="13" y="156" type="curve" smooth="yes"/>
      <point x="13" y="109"/>
      <point x="22" y="72"/>
      <point x="39" y="48" type="curve" smooth="yes"/>
      <point x="62" y="14"/>
      <point x="95" y="-6"/>
    </contour>
    <contour>
      <point x="149" y="62" type="curve" smooth="yes"/>
      <point x="126" y="62"/>
      <point x="111" y="81"/>
      <point x="111" y="109" type="curve" smooth="yes"/>
      <point x="111" y="137"/>
      <point x="126" y="156"/>
      <point x="149" y="156" type="curve" smooth="yes"/>
      <point x="173" y="156"/>
      <point x="187" y="137"/>
      <point x="187" y="109" type="curve" smooth="yes"/>
      <point x="187" y="81"/>
      <point x="173" y="62"/>
    </contour>
  </outline>
</glyph>
<glyph name="six.num" format="2">
  <advance width="300"/>
  <outline>
    <contour>
      <point x="149" y="363" type="curve" smooth="yes"/>
      <point x="238" y="363"/>
      <point x="281" y="418"/>
      <point x="281" y="479" type="curve" smooth="yes"/>
      <point x="281" y="547"/>
      <point x="241" y="590"/>
      <point x="178" y="590" type="curve" smooth="yes"/>
      <point x="126" y="590"/>
      <point x="90" y="561"/>
      <point x="81" y="513" type="curve"/>
      <point x="107" y="513" type="line"/>
      <point x="107" y="542" type="line" smooth="yes"/>
      <point x="107" y="605"/>
      <point x="132" y="631"/>
      <point x="158" y="631" type="curve" smooth="yes"/>
      <point x="173" y="631"/>
      <point x="182" y="624"/>
      <point x="183" y="607" type="curve"/>
      <point x="276" y="597" type="line"/>
      <point x="273" y="664"/>
      <point x="231" y="706"/>
      <point x="161" y="706" type="curve" smooth="yes"/>
      <point x="70" y="706"/>
      <point x="13" y="635"/>
      <point x="13" y="525" type="curve" smooth="yes"/>
      <point x="13" y="478"/>
      <point x="22" y="441"/>
      <point x="39" y="417" type="curve" smooth="yes"/>
      <point x="62" y="383"/>
      <point x="95" y="363"/>
    </contour>
    <contour>
      <point x="149" y="431" type="curve" smooth="yes"/>
      <point x="126" y="431"/>
      <point x="111" y="450"/>
      <point x="111" y="478" type="curve" smooth="yes"/>
      <point x="111" y="506"/>
      <point x="126" y="525"/>
      <point x="149" y="525" type="curve" smooth="yes"/>
      <point x="173" y="525"/>
      <point x="187" y="506"/>
      <point x="187" y="478" type="curve" smooth="yes"/>
      <point x="187" y="450"/>
      <point x="173" y="431"/>
    </contour>
  </outline>
</glyph>
<glyph name="six.sub" format="2">
  <advance width="300"/>
  <outline>
    <contour>
      <point x="149" y="-47" type="curve" smooth="yes"/>
      <point x="238" y="-47"/>
      <point x="281" y="8"/>
      <point x="281" y="69" type="curve" smooth="yes"/>
      <point x="281" y="137"/>
      <point x="241" y="180"/>
      <point x="178" y="180" type="curve" smooth="yes"/>
      <point x="126" y="180"/>
      <point x="90" y="151"/>
      <point x="81" y="103" type="curve"/>
      <point x="107" y="103" type="line"/>
      <point x="107" y="132" type="line" smooth="yes"/>
      <point x="107" y="195"/>
      <point x="132" y="221"/>
      <point x="158" y="221" type="curve" smooth="yes"/>
      <point x="173" y="221"/>
      <point x="182" y="214"/>
      <point x="183" y="197" type="curve"/>
      <point x="276" y="187" type="line"/>
      <point x="273" y="254"/>
      <point x="231" y="296"/>
      <point x="161" y="296" type="curve" smooth="yes"/>
      <point x="70" y="296"/>
      <point x="13" y="225"/>
      <point x="13" y="115" type="curve" smooth="yes"/>
      <point x="13" y="68"/>
      <point x="22" y="31"/>
      <point x="39" y="7" type="curve" smooth="yes"/>
      <point x="62" y="-27"/>
      <point x="95" y="-47"/>
    </contour>
    <contour>
      <point x="149" y="21" type="curve" smooth="yes"/>
      <point x="126" y="21"/>
      <point x="111" y="40"/>
      <point x="111" y="68" type="curve" smooth="yes"/>
      <point x="111" y="96"/>
      <point x="126" y="115"/>
      <point x="149" y="115" type="curve" smooth="yes"/>
      <point x="173" y="115"/>
      <point x="187" y="96"/>
      <point x="187" y="68" type="curve" smooth="yes"/>
      <point x="187" y="40"/>
      <point x="173" y="21"/>
    </contour>
  </outline>
</glyph>
